<svg width="146" height="46" viewBox="0 0 146 46" fill="none" xmlns="http://www.w3.org/2000/svg">
<rect width="146" height="46" rx="8" fill="#1A1A1B"/>
<path d="M38.8323 23.0805C38.8058 20.2106 41.2424 18.8144 41.3538 18.7494C39.9739 16.7878 37.835 16.5198 37.0834 16.4984C35.287 16.3141 33.5445 17.5465 32.6295 17.5465C31.6961 17.5465 30.287 16.5162 28.7682 16.5465C26.8138 16.5759 24.9855 17.6791 23.9828 19.3923C21.9133 22.8855 23.4567 28.0189 25.4394 30.8424C26.4312 32.2253 27.5901 33.7693 29.107 33.715C30.5911 33.6553 31.1454 32.7925 32.9363 32.7925C34.7108 32.7925 35.2313 33.715 36.7784 33.6802C38.3711 33.6553 39.3738 32.2912 40.3309 30.8959C41.4771 29.3109 41.9374 27.75 41.9556 27.6698C41.9182 27.6573 38.8624 26.5203 38.8323 23.0805Z" fill="white"/>
<path d="M35.9099 14.641C36.7081 13.6677 37.2542 12.3437 37.1026 11C35.9473 11.0499 34.5025 11.7791 33.6706 12.731C32.9345 13.5698 32.2769 14.9446 32.4468 16.2375C33.7445 16.3319 35.077 15.5991 35.9099 14.641Z" fill="white"/>
<path d="M60.3093 33.5188H58.2352L57.0992 30.0381H53.1502L52.068 33.5188H50.0488L53.9612 21.6689H56.3777L60.3093 33.5188ZM56.7567 28.5778L55.7293 25.4836C55.6206 25.1675 55.4169 24.4231 55.1165 23.2512H55.0799C54.9603 23.7552 54.7676 24.4996 54.5028 25.4836L53.4936 28.5778H56.7567Z" fill="white"/>
<path d="M70.3705 29.1415C70.3705 30.5947 69.9678 31.7433 69.1623 32.5866C68.4408 33.3372 67.5449 33.7121 66.4755 33.7121C65.3212 33.7121 64.4919 33.3078 63.9869 32.4993H63.9504V37.0004H62.0033V27.7871C62.0033 26.8735 61.9786 25.9359 61.9312 24.9742H63.6435L63.7522 26.3286H63.7887C64.438 25.3082 65.4234 24.7988 66.7458 24.7988C67.7796 24.7988 68.6427 25.1969 69.3331 25.9938C70.0253 26.7916 70.3705 27.8405 70.3705 29.1415ZM68.387 29.2109C68.387 28.3793 68.1952 27.6936 67.8098 27.154C67.3888 26.5913 66.8235 26.3099 66.1148 26.3099C65.6344 26.3099 65.1979 26.4666 64.8079 26.7756C64.417 27.0872 64.1613 27.4942 64.0417 27.9982C63.9814 28.2332 63.9513 28.4256 63.9513 28.5769V30.0016C63.9513 30.6232 64.1467 31.1476 64.5376 31.5759C64.9285 32.0042 65.4362 32.2179 66.0609 32.2179C66.7942 32.2179 67.365 31.9419 67.7732 31.3916C68.1824 30.8404 68.387 30.1138 68.387 29.2109Z" fill="white"/>
<path d="M80.4502 29.1415C80.4502 30.5947 80.0475 31.7433 79.2411 32.5866C78.5205 33.3372 77.6246 33.7121 76.5552 33.7121C75.4008 33.7121 74.5716 33.3078 74.0675 32.4993H74.0309V37.0004H72.0839V27.7871C72.0839 26.8735 72.0592 25.9359 72.0117 24.9742H73.7241L73.8328 26.3286H73.8693C74.5177 25.3082 75.5031 24.7988 76.8264 24.7988C77.8593 24.7988 78.7223 25.1969 79.4146 25.9938C80.1041 26.7916 80.4502 27.8405 80.4502 29.1415ZM78.4666 29.2109C78.4666 28.3793 78.2739 27.6936 77.8885 27.154C77.4675 26.5913 76.904 26.3099 76.1944 26.3099C75.7131 26.3099 75.2775 26.4666 74.8867 26.7756C74.4958 27.0872 74.241 27.4942 74.1213 27.9982C74.062 28.2332 74.0309 28.4256 74.0309 28.5769V30.0016C74.0309 30.6232 74.2264 31.1476 74.6154 31.5759C75.0063 32.0033 75.5141 32.2179 76.1406 32.2179C76.8739 32.2179 77.4447 31.9419 77.8529 31.3916C78.262 30.8404 78.4666 30.1138 78.4666 29.2109Z" fill="white"/>
<path d="M91.7198 30.1946C91.7198 31.2025 91.3609 32.0226 90.6403 32.6557C89.8485 33.3476 88.7462 33.6931 87.3298 33.6931C86.022 33.6931 84.9736 33.4473 84.1799 32.9549L84.6311 31.3726C85.4859 31.8766 86.4238 32.1295 87.4457 32.1295C88.1791 32.1295 88.7499 31.9674 89.1599 31.6451C89.5681 31.3228 89.7718 30.89 89.7718 30.3504C89.7718 29.8696 89.6038 29.4644 89.2668 29.1358C88.9316 28.8073 88.3718 28.5019 87.59 28.2196C85.4621 27.4458 84.3991 26.3123 84.3991 24.8217C84.3991 23.8476 84.7717 23.0488 85.5179 22.4273C86.2612 21.8049 87.253 21.4941 88.4932 21.4941C89.5992 21.4941 90.5179 21.682 91.2513 22.0569L90.7645 23.6045C90.0796 23.2412 89.3051 23.0595 88.4384 23.0595C87.7535 23.0595 87.2183 23.2243 86.8348 23.5519C86.5106 23.8449 86.348 24.202 86.348 24.6249C86.348 25.0933 86.5334 25.4806 86.906 25.7851C87.2302 26.0665 87.8193 26.371 88.6741 26.6996C89.7197 27.1101 90.4878 27.5901 90.9819 28.1403C91.4741 28.6888 91.7198 29.3754 91.7198 30.1946Z" fill="white"/>
<path d="M98.1574 26.3984H96.0112V30.547C96.0112 31.6021 96.3893 32.1293 97.1473 32.1293C97.4953 32.1293 97.7839 32.0999 98.0122 32.0411L98.066 33.4827C97.6825 33.6225 97.1775 33.6929 96.5519 33.6929C95.7829 33.6929 95.182 33.464 94.7482 33.0073C94.3162 32.5496 94.0989 31.782 94.0989 30.7037V26.3967H92.8203V24.972H94.0989V23.4075L96.0112 22.8447V24.972H98.1574V26.3984Z" fill="white"/>
<path d="M107.841 29.1753C107.841 30.4887 107.455 31.567 106.686 32.4103C105.88 33.2784 104.809 33.7112 103.475 33.7112C102.189 33.7112 101.166 33.2954 100.402 32.4637C99.6386 31.632 99.2568 30.5822 99.2568 29.3169C99.2568 27.9928 99.6495 26.9083 100.438 26.065C101.224 25.2209 102.285 24.7988 103.619 24.7988C104.905 24.7988 105.94 25.2147 106.721 26.0472C107.468 26.8548 107.841 27.8975 107.841 29.1753ZM105.82 29.2368C105.82 28.4487 105.648 27.7729 105.298 27.2092C104.89 26.5272 104.306 26.187 103.55 26.187C102.767 26.187 102.173 26.5281 101.765 27.2092C101.415 27.7738 101.242 28.4603 101.242 29.2724C101.242 30.0604 101.415 30.7362 101.765 31.299C102.186 31.9811 102.774 32.3212 103.533 32.3212C104.276 32.3212 104.86 31.9739 105.281 31.2812C105.64 30.7069 105.82 30.0239 105.82 29.2368Z" fill="white"/>
<path d="M114.169 26.6438C113.977 26.6091 113.771 26.5913 113.556 26.5913C112.871 26.5913 112.341 26.8433 111.968 27.3481C111.644 27.7934 111.482 28.3561 111.482 29.0355V33.5188H109.536L109.554 27.6651C109.554 26.6803 109.529 25.7836 109.481 24.9751H111.177L111.248 26.61H111.302C111.507 26.0481 111.831 25.5958 112.275 25.2565C112.709 24.9511 113.178 24.7988 113.683 24.7988C113.863 24.7988 114.025 24.8113 114.169 24.8336V26.6438Z" fill="white"/>
<path d="M122.877 28.8417C122.877 29.1819 122.855 29.4686 122.806 29.7028H116.965C116.988 30.5469 117.27 31.1925 117.812 31.6377C118.305 32.0357 118.941 32.2352 119.723 32.2352C120.588 32.2352 121.377 32.1007 122.086 31.8309L122.391 33.1487C121.562 33.5014 120.583 33.6768 119.454 33.6768C118.095 33.6768 117.028 33.2868 116.252 32.5076C115.477 31.7285 115.089 30.6822 115.089 29.3697C115.089 28.0813 115.45 27.0083 116.172 26.1526C116.928 25.239 117.95 24.7822 119.236 24.7822C120.499 24.7822 121.455 25.239 122.105 26.1526C122.619 26.8783 122.877 27.7759 122.877 28.8417ZM121.021 28.3493C121.033 27.7865 120.907 27.3004 120.643 26.8899C120.306 26.3619 119.788 26.0983 119.091 26.0983C118.454 26.0983 117.937 26.3556 117.541 26.8721C117.217 27.2826 117.024 27.775 116.965 28.3484H121.021V28.3493Z" fill="white"/>
<path d="M56.1129 14.378C56.1129 15.426 55.7905 16.2149 55.1467 16.7447C54.5503 17.2336 53.7028 17.4785 52.6051 17.4785C52.0608 17.4785 51.595 17.4553 51.2051 17.409V11.6826C51.7138 11.6025 52.2617 11.5615 52.8535 11.5615C53.8992 11.5615 54.6873 11.7832 55.2188 12.2267C55.8143 12.728 56.1129 13.4448 56.1129 14.378ZM55.1038 14.4038C55.1038 13.7244 54.9193 13.2035 54.5503 12.8402C54.1814 12.4778 53.6426 12.2961 52.933 12.2961C52.6316 12.2961 52.375 12.3157 52.1622 12.3567V16.71C52.28 16.7278 52.4955 16.7358 52.8088 16.7358C53.5412 16.7358 54.1065 16.5373 54.5047 16.1401C54.9029 15.743 55.1038 15.1642 55.1038 14.4038Z" fill="white"/>
<path d="M61.4636 15.2931C61.4636 15.9386 61.2745 16.4675 60.8964 16.8825C60.5001 17.309 59.975 17.5218 59.3192 17.5218C58.6873 17.5218 58.1841 17.3179 57.8087 16.9083C57.4343 16.4996 57.2471 15.984 57.2471 15.3625C57.2471 14.7125 57.4398 14.1791 57.827 13.7651C58.2142 13.351 58.7348 13.1436 59.3905 13.1436C60.0225 13.1436 60.5302 13.3475 60.9147 13.7562C61.28 14.1533 61.4636 14.6662 61.4636 15.2931ZM60.4709 15.3233C60.4709 14.936 60.385 14.6039 60.2142 14.3269C60.0133 13.9921 59.7275 13.8247 59.3558 13.8247C58.9713 13.8247 58.6791 13.9921 58.4781 14.3269C58.3064 14.6039 58.2215 14.9413 58.2215 15.3403C58.2215 15.7276 58.3074 16.0597 58.4781 16.3366C58.6854 16.6715 58.974 16.8389 59.3466 16.8389C59.7119 16.8389 59.9987 16.6688 60.2051 16.3277C60.3823 16.0455 60.4709 15.7107 60.4709 15.3233Z" fill="white"/>
<path d="M68.6382 13.2285L67.2911 17.426H66.4144L65.8564 15.6033C65.7148 15.1483 65.5998 14.696 65.5103 14.2472H65.4929C65.4098 14.7084 65.2947 15.1599 65.1468 15.6033L64.5541 17.426H63.6673L62.4006 13.2285H63.3842L63.871 15.224C63.9888 15.6959 64.0856 16.1456 64.1632 16.5712H64.1806C64.2518 16.2204 64.3696 15.7734 64.5358 15.2329L65.1468 13.2294H65.9267L66.5121 15.1901C66.6537 15.6683 66.7687 16.1287 66.8573 16.5721H66.8838C66.9486 16.1402 67.0464 15.6799 67.176 15.1901L67.6984 13.2294H68.6382V13.2285Z" fill="white"/>
<path d="M73.6 17.4253H72.6429V15.0211C72.6429 14.2803 72.3543 13.9099 71.7753 13.9099C71.4913 13.9099 71.262 14.0114 71.084 14.2153C70.9077 14.4192 70.8182 14.6596 70.8182 14.9348V17.4244H69.8611V14.4272C69.8611 14.0586 69.8492 13.6588 69.8264 13.226H70.6675L70.7123 13.8823H70.7388C70.8502 13.6784 71.0164 13.5101 71.2347 13.3756C71.494 13.2189 71.7844 13.1396 72.1022 13.1396C72.5041 13.1396 72.8383 13.2661 73.1041 13.5199C73.4347 13.8306 73.6 14.2945 73.6 14.9107V17.4253Z" fill="white"/>
<path d="M76.2391 17.4262H75.283V11.3027H76.2391V17.4262Z" fill="white"/>
<path d="M81.874 15.2931C81.874 15.9386 81.6849 16.4675 81.3068 16.8825C80.9105 17.309 80.3845 17.5218 79.7297 17.5218C79.0968 17.5218 78.5936 17.3179 78.2191 16.9083C77.8447 16.4996 77.6575 15.984 77.6575 15.3625C77.6575 14.7125 77.8502 14.1791 78.2374 13.7651C78.6246 13.351 79.1452 13.1436 79.8 13.1436C80.4329 13.1436 80.9397 13.3475 81.3251 13.7562C81.6904 14.1533 81.874 14.6662 81.874 15.2931ZM80.8803 15.3233C80.8803 14.936 80.7945 14.6039 80.6237 14.3269C80.4237 13.9921 80.137 13.8247 79.7662 13.8247C79.3808 13.8247 79.0885 13.9921 78.8885 14.3269C78.7168 14.6039 78.6319 14.9413 78.6319 15.3403C78.6319 15.7276 78.7178 16.0597 78.8885 16.3366C79.0958 16.6715 79.3844 16.8389 79.757 16.8389C80.1224 16.8389 80.4082 16.6688 80.6146 16.3277C80.7927 16.0455 80.8803 15.7107 80.8803 15.3233Z" fill="white"/>
<path d="M86.506 17.4265H85.6466L85.5754 16.943H85.5489C85.2548 17.3286 84.8356 17.5218 84.2913 17.5218C83.8849 17.5218 83.5562 17.3945 83.3087 17.1416C83.084 16.9119 82.9717 16.626 82.9717 16.2868C82.9717 15.7739 83.1909 15.383 83.632 15.1123C84.0722 14.8416 84.6913 14.7089 85.4886 14.7152V14.6368C85.4886 14.0839 85.1909 13.8078 84.5945 13.8078C84.1699 13.8078 83.7954 13.912 83.4721 14.1186L83.2776 13.506C83.6776 13.2647 84.1717 13.1436 84.7544 13.1436C85.8795 13.1436 86.4439 13.7223 86.4439 14.8799V16.4257C86.4439 16.8451 86.4649 17.179 86.506 17.4265ZM85.5124 15.984V15.3367C84.4566 15.3189 83.9288 15.6012 83.9288 16.1826C83.9288 16.4017 83.989 16.5655 84.1123 16.675C84.2356 16.7845 84.3927 16.8389 84.5799 16.8389C84.79 16.8389 84.9863 16.7739 85.1653 16.6447C85.3452 16.5147 85.4557 16.35 85.4968 16.1479C85.5069 16.1025 85.5124 16.0473 85.5124 15.984Z" fill="white"/>
<path d="M91.9444 17.4262H91.095L91.0503 16.7522H91.0238C90.7526 17.2651 90.2905 17.5215 89.6411 17.5215C89.1224 17.5215 88.6904 17.323 88.348 16.9258C88.0055 16.5287 87.8347 16.0131 87.8347 15.38C87.8347 14.7006 88.0201 14.1503 88.3927 13.7301C88.7535 13.3383 89.1955 13.1424 89.7215 13.1424C90.2996 13.1424 90.7042 13.332 90.9343 13.7122H90.9526V11.3027H91.9106V16.2954C91.9106 16.7041 91.9215 17.0808 91.9444 17.4262ZM90.9526 15.6561V14.9562C90.9526 14.8351 90.9434 14.7371 90.9261 14.6623C90.8722 14.438 90.7562 14.2492 90.58 14.0969C90.4019 13.9447 90.1873 13.8681 89.9398 13.8681C89.5827 13.8681 89.3032 14.0061 89.0977 14.283C88.8941 14.5599 88.7909 14.9134 88.7909 15.3453C88.7909 15.7602 88.8886 16.0968 89.085 16.3559C89.2923 16.632 89.5717 16.77 89.9215 16.77C90.2357 16.77 90.4868 16.6551 90.6777 16.4245C90.8622 16.2117 90.9526 15.9553 90.9526 15.6561Z" fill="white"/>
<path d="M100.13 15.2931C100.13 15.9386 99.941 16.4675 99.5629 16.8825C99.1666 17.309 98.6424 17.5218 97.9858 17.5218C97.3547 17.5218 96.8515 17.3179 96.4752 16.9083C96.1008 16.4996 95.9136 15.984 95.9136 15.3625C95.9136 14.7125 96.1063 14.1791 96.4935 13.7651C96.8807 13.351 97.4013 13.1436 98.0579 13.1436C98.689 13.1436 99.1976 13.3475 99.5812 13.7562C99.9465 14.1533 100.13 14.6662 100.13 15.2931ZM99.1383 15.3233C99.1383 14.936 99.0524 14.6039 98.8817 14.3269C98.6798 13.9921 98.3949 13.8247 98.0223 13.8247C97.6387 13.8247 97.3465 13.9921 97.1446 14.3269C96.9729 14.6039 96.888 14.9413 96.888 15.3403C96.888 15.7276 96.9739 16.0597 97.1446 16.3366C97.3519 16.6715 97.6405 16.8389 98.0131 16.8389C98.3785 16.8389 98.6661 16.6688 98.8725 16.3277C99.0488 16.0455 99.1383 15.7107 99.1383 15.3233Z" fill="white"/>
<path d="M105.276 17.4253H104.32V15.0211C104.32 14.2803 104.031 13.9099 103.451 13.9099C103.167 13.9099 102.938 14.0114 102.761 14.2153C102.584 14.4192 102.495 14.6596 102.495 14.9348V17.4244H101.537V14.4272C101.537 14.0586 101.526 13.6588 101.503 13.226H102.344L102.388 13.8823H102.415C102.527 13.6784 102.693 13.5101 102.911 13.3756C103.171 13.2189 103.461 13.1396 103.779 13.1396C104.18 13.1396 104.514 13.2661 104.78 13.5199C105.112 13.8306 105.276 14.2945 105.276 14.9107V17.4253Z" fill="white"/>
<path d="M111.717 13.928H110.664V15.967C110.664 16.4853 110.851 16.7444 111.222 16.7444C111.393 16.7444 111.536 16.7302 111.648 16.7008L111.673 17.4087C111.484 17.4781 111.235 17.5128 110.929 17.5128C110.551 17.5128 110.257 17.4006 110.044 17.1763C109.831 16.9519 109.725 16.5743 109.725 16.0445V13.928H109.095V13.229H109.725V12.4596L110.663 12.1836V13.2281H111.716V13.928H111.717Z" fill="white"/>
<path d="M116.784 17.4262H115.826V15.0399C115.826 14.2875 115.537 13.9108 114.959 13.9108C114.516 13.9108 114.212 14.129 114.046 14.5653C114.018 14.657 114.001 14.7692 114.001 14.901V17.4254H113.045V11.3027H114.001V13.8325H114.02C114.321 13.3721 114.753 13.1424 115.313 13.1424C115.709 13.1424 116.037 13.2688 116.297 13.5226C116.621 13.8387 116.784 14.3088 116.784 14.9304V17.4262Z" fill="white"/>
<path d="M122.011 15.1284C122.011 15.2958 121.998 15.4365 121.975 15.5514H119.105C119.117 15.9663 119.254 16.2824 119.52 16.5015C119.763 16.6974 120.076 16.7953 120.46 16.7953C120.885 16.7953 121.272 16.7294 121.621 16.5968L121.77 17.245C121.362 17.4178 120.882 17.5041 120.326 17.5041C119.659 17.5041 119.134 17.3127 118.754 16.9298C118.372 16.5469 118.183 16.0331 118.183 15.3885C118.183 14.7554 118.359 14.2282 118.715 13.8079C119.085 13.3592 119.587 13.1348 120.22 13.1348C120.839 13.1348 121.309 13.3592 121.627 13.8079C121.884 14.1641 122.011 14.6049 122.011 15.1284ZM121.097 14.8871C121.105 14.6102 121.042 14.3716 120.912 14.1703C120.746 13.9112 120.493 13.7812 120.15 13.7812C119.838 13.7812 119.583 13.9077 119.389 14.1614C119.23 14.3636 119.136 14.6049 119.105 14.8871H121.097Z" fill="white"/>
</svg>
