<svg width="18" height="14" viewBox="0 0 18 14" fill="none" xmlns="http://www.w3.org/2000/svg">
<path d="M0.0908203 4.17455V11.4545C0.0908203 12.1296 0.359001 12.7771 0.836367 13.2545C1.31373 13.7318 1.96118 14 2.63627 14H15.3635C16.0386 14 16.6861 13.7318 17.1635 13.2545C17.6408 12.7771 17.909 12.1296 17.909 11.4545V4.17455L10.3337 8.83527C9.9326 9.08206 9.47087 9.21272 8.99991 9.21272C8.52895 9.21272 8.06722 9.08206 7.66609 8.83527L0.0908203 4.17455Z" fill="white"/>
<path d="M17.909 2.67952V2.54545C17.909 1.87036 17.6408 1.22291 17.1635 0.745546C16.6861 0.268181 16.0386 0 15.3635 0H2.63627C1.96118 0 1.31373 0.268181 0.836367 0.745546C0.359001 1.22291 0.0908203 1.87036 0.0908203 2.54545V2.67952L8.333 7.75176C8.53356 7.87515 8.76443 7.94048 8.99991 7.94048C9.23539 7.94048 9.46626 7.87515 9.66682 7.75176L17.909 2.67952Z" fill="white"/>
</svg>
