<svg width="42" height="42" viewBox="0 0 42 42" fill="none" xmlns="http://www.w3.org/2000/svg">
<path d="M42 8C42 3.58172 38.4183 0 34 0H8C3.58172 0 0 3.58172 0 8V34C0 38.4183 3.58172 42 8 42H34C38.4183 42 42 38.4183 42 34V8Z" fill="#1877F2"/>
<path d="M31.5 21C31.5 15.225 26.775 10.5 21 10.5C15.225 10.5 10.5 15.225 10.5 21C10.5 26.25 14.3062 30.5812 19.2937 31.3687V24.0187H16.6687V21H19.2937V18.6375C19.2937 16.0125 20.8688 14.5688 23.2313 14.5688C24.4125 14.5688 25.5938 14.8313 25.5938 14.8313V17.4563H24.2812C22.9688 17.4563 22.575 18.2438 22.575 19.0312V21H25.4625L24.9375 24.0187H22.4438V31.5C27.6938 30.7125 31.5 26.25 31.5 21Z" fill="white"/>
</svg>
