<svg width="42" height="42" viewBox="0 0 42 42" fill="none" xmlns="http://www.w3.org/2000/svg">
<path d="M42 8C42 3.58172 38.4183 0 34 0H8C3.58172 0 0 3.58172 0 8V34C0 38.4183 3.58172 42 8 42H34C38.4183 42 42 38.4183 42 34V8Z" fill="#F00073"/>
<path d="M21 12.0752C23.8875 12.0752 24.2812 12.0752 25.4625 12.0752C26.5125 12.0752 27.0375 12.3377 27.4312 12.4689C27.9562 12.7314 28.35 12.8627 28.7437 13.2564C29.1375 13.6502 29.4 14.0439 29.5312 14.5689C29.6625 14.9627 29.7937 15.4877 29.9249 16.5377C29.9249 17.7189 29.9249 17.9814 29.9249 21.0002C29.9249 24.0189 29.9249 24.2814 29.9249 25.4627C29.9249 26.5127 29.6625 27.0377 29.5312 27.4314C29.2687 27.9564 29.1375 28.3502 28.7437 28.7439C28.35 29.1377 27.9562 29.4002 27.4312 29.5314C27.0375 29.6627 26.5125 29.7939 25.4625 29.9252C24.2812 29.9252 24.0187 29.9252 21 29.9252C17.9812 29.9252 17.7187 29.9252 16.5375 29.9252C15.4875 29.9252 14.9625 29.6627 14.5687 29.5314C14.0437 29.2689 13.65 29.1377 13.2562 28.7439C12.8625 28.3502 12.6 27.9564 12.4687 27.4314C12.3375 27.0377 12.2062 26.5127 12.075 25.4627C12.075 24.2814 12.075 24.0189 12.075 21.0002C12.075 17.9814 12.075 17.7189 12.075 16.5377C12.075 15.4877 12.3375 14.9627 12.4687 14.5689C12.7312 14.0439 12.8625 13.6502 13.2562 13.2564C13.65 12.8627 14.0437 12.6002 14.5687 12.4689C14.9625 12.3377 15.4875 12.2064 16.5375 12.0752C17.7187 12.0752 18.1125 12.0752 21 12.0752ZM21 10.1064C17.9812 10.1064 17.7187 10.1064 16.5375 10.1064C15.3562 10.1064 14.5687 10.3689 13.9125 10.6314C13.2562 10.8939 12.6 11.2877 11.9437 11.9439C11.2875 12.6002 11.025 13.1252 10.6312 13.9127C10.3687 14.5689 10.2375 15.3564 10.1062 16.5377C10.1062 17.7189 10.1062 18.1127 10.1062 21.0002C10.1062 24.0189 10.1062 24.2814 10.1062 25.4627C10.1062 26.6439 10.3687 27.4314 10.6312 28.0877C10.8937 28.7439 11.2875 29.4002 11.9437 30.0564C12.6 30.7127 13.125 30.9752 13.9125 31.3689C14.5687 31.6314 15.3562 31.7627 16.5375 31.8939C17.7187 31.8939 18.1125 31.8939 21 31.8939C23.8875 31.8939 24.2812 31.8939 25.4625 31.8939C26.6437 31.8939 27.4312 31.6314 28.0875 31.3689C28.7437 31.1064 29.4 30.7127 30.0562 30.0564C30.7125 29.4002 30.975 28.8752 31.3687 28.0877C31.6312 27.4314 31.7624 26.6439 31.8937 25.4627C31.8937 24.2814 31.8937 23.8877 31.8937 21.0002C31.8937 18.1127 31.8937 17.7189 31.8937 16.5377C31.8937 15.3564 31.6312 14.5689 31.3687 13.9127C31.1062 13.2564 30.7125 12.6002 30.0562 11.9439C29.4 11.2877 28.875 11.0252 28.0875 10.6314C27.4312 10.3689 26.6437 10.2377 25.4625 10.1064C24.2812 10.1064 24.0187 10.1064 21 10.1064Z" fill="white"/>
<path d="M21 15.3564C17.85 15.3564 15.3562 17.8502 15.3562 21.0002C15.3562 24.1502 17.85 26.6439 21 26.6439C24.15 26.6439 26.6437 24.1502 26.6437 21.0002C26.6437 17.8502 24.15 15.3564 21 15.3564ZM21 24.6752C19.0312 24.6752 17.325 23.1002 17.325 21.0002C17.325 19.0314 18.9 17.3252 21 17.3252C22.9687 17.3252 24.675 18.9002 24.675 21.0002C24.675 22.9689 22.9687 24.6752 21 24.6752Z" fill="white"/>
<path d="M26.775 16.5377C27.4998 16.5377 28.0875 15.9501 28.0875 15.2252C28.0875 14.5003 27.4998 13.9127 26.775 13.9127C26.0501 13.9127 25.4625 14.5003 25.4625 15.2252C25.4625 15.9501 26.0501 16.5377 26.775 16.5377Z" fill="white"/>
</svg>
