<svg width="18" height="20" viewBox="0 0 18 20" fill="none" xmlns="http://www.w3.org/2000/svg">
<path fill-rule="evenodd" clip-rule="evenodd" d="M8.54572 19.8543L8.61486 19.8938L8.64252 19.9096C8.75219 19.9689 8.8749 20 8.99958 20C9.12426 20 9.24698 19.9689 9.35665 19.9096L9.3843 19.8948L9.45443 19.8543C9.84075 19.6253 10.2177 19.3808 10.5844 19.1214C11.5337 18.4512 12.4206 17.6969 13.2345 16.8674C15.1546 14.9019 17.1488 11.9486 17.1488 8.14876C17.1488 5.98757 16.2903 3.9149 14.7621 2.38672C13.2339 0.858527 11.1613 0 9.00008 0C6.83889 0 4.76622 0.858527 3.23803 2.38672C1.70985 3.9149 0.851318 5.98757 0.851318 8.14876C0.851318 11.9476 2.84653 14.9019 4.76569 16.8674C5.57922 17.6968 6.46584 18.4512 7.41477 19.1214C7.78178 19.3808 8.15907 19.6253 8.54572 19.8543ZM9.00008 11.1119C9.78596 11.1119 10.5397 10.7998 11.0954 10.244C11.6511 9.68834 11.9633 8.93464 11.9633 8.14876C11.9633 7.36287 11.6511 6.60918 11.0954 6.05347C10.5397 5.49777 9.78596 5.18557 9.00008 5.18557C8.21419 5.18557 7.46049 5.49777 6.90479 6.05347C6.34908 6.60918 6.03689 7.36287 6.03689 8.14876C6.03689 8.93464 6.34908 9.68834 6.90479 10.244C7.46049 10.7998 8.21419 11.1119 9.00008 11.1119Z" fill="white"/>
</svg>
