<svg width="16" height="16" viewBox="0 0 16 16" fill="none" xmlns="http://www.w3.org/2000/svg">
<path d="M9.93454 2.79195C9.55371 2.7216 9.20395 2.96463 9.13145 3.33638C9.05895 3.70812 9.30274 4.07107 9.67322 4.14382C10.7886 4.36127 11.6499 5.22468 11.8682 6.34391C11.9303 6.66609 12.2139 6.90113 12.5406 6.90113C12.5844 6.90113 12.6282 6.89713 12.6728 6.88914C13.0433 6.81479 13.2871 6.45264 13.2146 6.08009C12.8887 4.40844 11.6021 3.11733 9.93454 2.79195Z" fill="white"/>
<path d="M9.88474 0.00634381C9.70628 -0.0192386 9.52702 0.0335251 9.38441 0.147047C9.23781 0.262168 9.14619 0.428454 9.12627 0.614726C9.08405 0.991268 9.35573 1.33183 9.73178 1.3742C12.3251 1.66361 14.3408 3.68382 14.6324 6.28523C14.6714 6.63379 14.9638 6.89681 15.3127 6.89681C15.339 6.89681 15.3645 6.89521 15.3908 6.89201C15.5733 6.87203 15.7358 6.78169 15.8505 6.63779C15.9645 6.49389 16.0162 6.31481 15.9955 6.13174C15.6322 2.88597 13.1202 0.366896 9.88474 0.00634381Z" fill="white"/>
<path fill-rule="evenodd" clip-rule="evenodd" d="M7.22531 8.77791C10.4165 11.9683 11.1405 8.27737 13.1724 10.3078C15.1313 12.2662 16.2571 12.6586 13.7752 15.1398C13.4644 15.3896 11.4892 18.3954 4.54763 11.4557C-2.39476 4.5152 0.609261 2.53796 0.859167 2.22716C3.34706 -0.260923 3.73265 0.871506 5.69153 2.82986C7.72341 4.8612 4.03408 5.58753 7.22531 8.77791Z" fill="white"/>
</svg>
