<svg width="146" height="46" viewBox="0 0 146 46" fill="none" xmlns="http://www.w3.org/2000/svg">
<rect width="146" height="46" rx="8" fill="#1A1A1B"/>
<path d="M53.1384 14.234C53.1384 15.0332 52.8933 15.6733 52.4105 16.1507C51.8554 16.7166 51.1324 17.0014 50.2464 17.0014C49.3996 17.0014 48.6766 16.7118 48.0835 16.1411C47.4892 15.562 47.1926 14.8514 47.1926 14.0007C47.1926 13.15 47.4892 12.4393 48.0835 11.865C48.6766 11.2895 49.3996 11 50.2464 11C50.668 11 51.0699 11.0849 51.4535 11.2429C51.8358 11.402 52.1471 11.6174 52.3725 11.883L51.8603 12.3879C51.4669 11.9344 50.9314 11.7107 50.2464 11.7107C49.6288 11.7107 49.0933 11.9213 48.6386 12.346C48.1889 12.7719 47.9634 13.3235 47.9634 14.0007C47.9634 14.6779 48.1889 15.2342 48.6386 15.6601C49.0933 16.0801 49.6288 16.2955 50.2464 16.2955C50.902 16.2955 51.4535 16.0801 51.8885 15.6554C52.1752 15.3742 52.3382 14.9865 52.3811 14.4912H50.2464V13.7997H53.0943C53.1286 13.9492 53.1384 14.094 53.1384 14.234Z" fill="white" stroke="white" stroke-width="0.16" stroke-miterlimit="10"/>
<path d="M57.6566 11.8356H54.9814V13.6542H57.3931V14.3457H54.9814V16.1643H57.6566V16.869H54.2241V11.1309H57.6566V11.8356Z" fill="white" stroke="white" stroke-width="0.16" stroke-miterlimit="10"/>
<path d="M60.845 16.869H60.0876V11.8356H58.4468V11.1309H62.487V11.8356H60.845V16.869Z" fill="white" stroke="white" stroke-width="0.16" stroke-miterlimit="10"/>
<path d="M65.4111 16.869V11.1309H66.1672V16.869H65.4111Z" fill="white" stroke="white" stroke-width="0.16" stroke-miterlimit="10"/>
<path d="M69.5188 16.869H68.7676V11.8356H67.1206V11.1309H71.1658V11.8356H69.5188V16.869Z" fill="white" stroke="white" stroke-width="0.16" stroke-miterlimit="10"/>
<path d="M78.8149 16.1315C78.2353 16.7118 77.5172 17.0014 76.6606 17.0014C75.7991 17.0014 75.081 16.7118 74.5014 16.1315C73.923 15.5525 73.635 14.8418 73.635 14.0007C73.635 13.1596 73.923 12.4489 74.5014 11.8698C75.081 11.2895 75.7991 11 76.6606 11C77.5123 11 78.2304 11.2895 78.81 11.8746C79.3933 12.4585 79.6813 13.1644 79.6813 14.0007C79.6813 14.8418 79.3933 15.5525 78.8149 16.1315ZM75.0614 15.6506C75.4977 16.0801 76.0283 16.2955 76.6606 16.2955C77.288 16.2955 77.8235 16.0801 78.2549 15.6506C78.6899 15.2211 78.9105 14.6695 78.9105 14.0007C78.9105 13.3319 78.6899 12.7803 78.2549 12.3508C77.8235 11.9213 77.288 11.7059 76.6606 11.7059C76.0283 11.7059 75.4977 11.9213 75.0614 12.3508C74.6264 12.7803 74.4058 13.3319 74.4058 14.0007C74.4058 14.6695 74.6264 15.2211 75.0614 15.6506Z" fill="white" stroke="white" stroke-width="0.16" stroke-miterlimit="10"/>
<path d="M80.7437 16.869V11.1309H81.6627L84.5204 15.5936H84.5535L84.5204 14.4905V11.1309H85.2765V16.869H84.4874L81.4948 12.1861H81.4618L81.4948 13.294V16.869H80.7437Z" fill="white" stroke="white" stroke-width="0.16" stroke-miterlimit="10"/>
<path d="M73.5261 25.0843C71.2267 25.0843 69.3482 26.8686 69.3482 29.3303C69.3482 31.772 71.2267 33.575 73.5261 33.575C75.8305 33.575 77.7089 31.772 77.7089 29.3303C77.7089 26.8686 75.8305 25.0843 73.5261 25.0843ZM73.5261 31.903C72.2644 31.903 71.179 30.8413 71.179 29.3303C71.179 27.7993 72.2644 26.7563 73.5261 26.7563C74.7878 26.7563 75.8782 27.7993 75.8782 29.3303C75.8782 30.8413 74.7878 31.903 73.5261 31.903ZM64.4104 25.0843C62.106 25.0843 60.2325 26.8686 60.2325 29.3303C60.2325 31.772 62.106 33.575 64.4104 33.575C66.7135 33.575 68.5883 31.772 68.5883 29.3303C68.5883 26.8686 66.7135 25.0843 64.4104 25.0843ZM64.4104 31.903C63.1475 31.903 62.0583 30.8413 62.0583 29.3303C62.0583 27.7993 63.1475 26.7563 64.4104 26.7563C65.6721 26.7563 66.7575 27.7993 66.7575 29.3303C66.7575 30.8413 65.6721 31.903 64.4104 31.903ZM53.563 26.3857V28.1899H57.7886C57.665 29.198 57.3346 29.9392 56.828 30.4557C56.2112 31.0796 55.2506 31.772 53.563 31.772C50.9625 31.772 48.9262 29.6322 48.9262 26.9808C48.9262 24.3295 50.9625 22.1897 53.563 22.1897C54.9691 22.1897 55.9922 22.7499 56.7472 23.476L57.9942 22.2046C56.9381 21.1765 55.5332 20.3867 53.563 20.3867C49.997 20.3867 47 23.345 47 26.9808C47 30.6167 49.997 33.575 53.563 33.575C55.4904 33.575 56.9381 32.9312 58.0762 31.7234C59.2425 30.5343 59.6059 28.8624 59.6059 27.5124C59.6059 27.0931 59.5716 26.7076 59.5105 26.3857H53.563ZM97.9193 27.7844C97.5754 26.8349 96.5144 25.0843 94.3532 25.0843C92.2117 25.0843 90.4286 26.8049 90.4286 29.3303C90.4286 31.7084 92.1933 33.575 94.5588 33.575C96.4715 33.575 97.5754 32.3859 98.0294 31.6934L96.6098 30.729C96.1362 31.4352 95.4913 31.903 94.5588 31.903C93.6324 31.903 92.9679 31.4701 92.5421 30.6167L98.1114 28.2672L97.9193 27.7844ZM92.241 29.198C92.1933 27.561 93.488 26.7226 94.4156 26.7226C95.1425 26.7226 95.7593 27.0931 95.9649 27.6234L92.241 29.198ZM87.7143 33.3167H89.5451V20.8396H87.7143V33.3167ZM84.7162 26.0301H84.655C84.2438 25.5335 83.4594 25.0843 82.4657 25.0843C80.3804 25.0843 78.4738 26.9509 78.4738 29.344C78.4738 31.7234 80.3804 33.575 82.4657 33.575C83.4594 33.575 84.2438 33.1221 84.655 32.6105H84.7162V33.2194C84.7162 34.8426 83.8656 35.7148 82.4938 35.7148C81.3753 35.7148 80.6814 34.8913 80.3951 34.1988L78.803 34.8763C79.2619 36.0018 80.4771 37.3867 82.4938 37.3867C84.6403 37.3867 86.4514 36.0991 86.4514 32.9661V25.3426H84.7162V26.0301ZM82.6223 31.903C81.3606 31.903 80.3045 30.8263 80.3045 29.344C80.3045 27.848 81.3606 26.7563 82.6223 26.7563C83.8656 26.7563 84.8459 27.848 84.8459 29.344C84.8459 30.8263 83.8656 31.903 82.6223 31.903ZM106.49 20.8396H102.112V33.3167H103.938V28.5891H106.49C108.518 28.5891 110.507 27.0931 110.507 24.7138C110.507 22.3356 108.513 20.8396 106.49 20.8396ZM106.538 26.8536H103.938V22.5752H106.538C107.901 22.5752 108.68 23.7293 108.68 24.7138C108.68 25.6795 107.901 26.8536 106.538 26.8536ZM117.825 25.0606C116.506 25.0606 115.134 25.6545 114.57 26.9709L116.19 27.6633C116.539 26.9709 117.18 26.7463 117.858 26.7463C118.805 26.7463 119.766 27.3265 119.78 28.3508V28.4818C119.45 28.2872 118.743 27.999 117.873 27.999C116.128 27.999 114.349 28.9784 114.349 30.8063C114.349 32.4782 115.779 33.555 117.386 33.555C118.614 33.555 119.292 32.9898 119.718 32.3323H119.78V33.2967H121.544V28.5105C121.544 26.2984 119.924 25.0606 117.825 25.0606ZM117.605 31.8981C117.007 31.8981 116.175 31.5961 116.175 30.8413C116.175 29.8755 117.213 29.505 118.111 29.505C118.915 29.505 119.292 29.6859 119.78 29.9242C119.637 31.0796 118.662 31.8981 117.605 31.8981ZM127.969 25.3339L125.87 30.7427H125.807L123.638 25.3339H121.669L124.929 32.8925L123.069 37.0985H124.976L130 25.3339H127.969ZM111.51 33.3167H113.341V20.8396H111.51V33.3167Z" fill="white"/>
<path d="M16.8826 11.6443C16.5946 11.9386 16.428 12.3968 16.428 12.9903V34.1578C16.428 34.7512 16.5946 35.2094 16.8826 35.5038L16.9537 35.5684L29.1026 23.7116V23.4316L16.9537 11.5749L16.8826 11.6443Z" fill="url(#paint0_linear_74_71)"/>
<path d="M33.1477 27.666L29.1025 23.7118V23.4318L33.1526 19.4776L33.2433 19.529L38.0396 22.1935C39.4084 22.9496 39.4084 24.1939 38.0396 24.9549L33.2433 27.6146L33.1477 27.666Z" fill="url(#paint1_linear_74_71)"/>
<path d="M33.2433 27.6141L29.1026 23.5713L16.8826 35.5035C17.3372 35.9701 18.0786 36.0263 18.9217 35.5597L33.2433 27.6141Z" fill="url(#paint2_linear_74_71)"/>
<path d="M33.2433 19.5275L18.9217 11.582C18.0786 11.1201 17.3372 11.1764 16.8826 11.643L29.1026 23.5703L33.2433 19.5275Z" fill="url(#paint3_linear_74_71)"/>
<defs>
<linearGradient id="paint0_linear_74_71" x1="28.024" y1="34.3782" x2="11.9652" y2="17.9303" gradientUnits="userSpaceOnUse">
<stop stop-color="#00A0FF"/>
<stop offset="0.0066" stop-color="#00A1FF"/>
<stop offset="0.2601" stop-color="#00BEFF"/>
<stop offset="0.5122" stop-color="#00D2FF"/>
<stop offset="0.7604" stop-color="#00DFFF"/>
<stop offset="1" stop-color="#00E3FF"/>
</linearGradient>
<linearGradient id="paint1_linear_74_71" x1="39.822" y1="23.5704" x2="16.1007" y2="23.5704" gradientUnits="userSpaceOnUse">
<stop stop-color="#FFE000"/>
<stop offset="0.4087" stop-color="#FFBD00"/>
<stop offset="0.7754" stop-color="#FFA500"/>
<stop offset="1" stop-color="#FF9C00"/>
</linearGradient>
<linearGradient id="paint2_linear_74_71" x1="30.9917" y1="21.3736" x2="9.21476" y2="-0.931024" gradientUnits="userSpaceOnUse">
<stop stop-color="#FF3A44"/>
<stop offset="1" stop-color="#C31162"/>
</linearGradient>
<linearGradient id="paint3_linear_74_71" x1="13.8065" y1="42.5448" x2="23.5309" y2="32.5848" gradientUnits="userSpaceOnUse">
<stop stop-color="#32A071"/>
<stop offset="0.0685" stop-color="#2DA771"/>
<stop offset="0.4762" stop-color="#15CF74"/>
<stop offset="0.8009" stop-color="#06E775"/>
<stop offset="1" stop-color="#00F076"/>
</linearGradient>
</defs>
</svg>
