<svg width="50" height="50" viewBox="0 0 50 50" fill="none" xmlns="http://www.w3.org/2000/svg">
<rect width="50" height="50" rx="25" fill="#2CB742"/>
<path d="M19.8583 32.0356L20.6434 32.4934C21.9551 33.2583 23.4458 33.6667 25.0013 33.6667C29.7878 33.6667 33.668 29.7865 33.668 25C33.668 20.2135 29.7878 16.3334 25.0013 16.3334C20.2148 16.3334 16.3346 20.2135 16.3346 25C16.3346 26.556 16.7433 28.0472 17.5086 29.3591L17.9662 30.1435L17.2583 32.7452L19.8583 32.0356ZM14.1725 35.8334L15.6371 30.4508C14.7031 28.8498 14.168 26.9874 14.168 25C14.168 19.0169 19.0182 14.1667 25.0013 14.1667C30.9844 14.1667 35.8347 19.0169 35.8347 25C35.8347 30.9831 30.9844 35.8334 25.0013 35.8334C23.0146 35.8334 21.1528 35.2986 19.552 34.3651L14.1725 35.8334ZM21.0919 19.9174C21.237 19.9072 21.3825 19.9056 21.5277 19.9127C21.5864 19.9166 21.6448 19.9233 21.7032 19.9301C21.8757 19.95 22.0655 20.0551 22.1293 20.1997C22.4524 20.9325 22.766 21.6695 23.07 22.4105C23.137 22.574 23.0966 22.786 22.969 22.9912C22.9042 23.0964 22.8025 23.2439 22.6846 23.3948C22.5621 23.5516 22.2984 23.8399 22.2984 23.8399C22.2984 23.8399 22.1916 23.9679 22.2318 24.1273C22.2475 24.1875 22.2976 24.2753 22.3429 24.349C22.368 24.3899 22.3914 24.4264 22.4065 24.4516C22.6837 24.9145 23.0564 25.3838 23.5116 25.8251C23.6421 25.9515 23.7686 26.0805 23.9047 26.2004C24.412 26.6477 24.9859 27.0132 25.6058 27.2839L25.6113 27.2864C25.7029 27.3258 25.7499 27.3474 25.8839 27.4043C25.9515 27.4329 26.0206 27.4576 26.0916 27.4763C26.1173 27.483 26.1436 27.4868 26.17 27.4887C26.3452 27.4992 26.4465 27.3868 26.4897 27.3351C27.2735 26.3856 27.3452 26.3236 27.3506 26.3241V26.3258C27.4537 26.2173 27.6156 26.1796 27.7601 26.1884C27.8261 26.1924 27.8918 26.2051 27.9518 26.2325C28.5279 26.4953 29.4699 26.9053 29.4699 26.9053L30.0998 27.1885C30.2053 27.2394 30.3016 27.3593 30.3063 27.4759C30.3091 27.5483 30.3169 27.6653 30.291 27.8794C30.2571 28.1597 30.1719 28.4971 30.0871 28.6739C30.0276 28.798 29.9504 28.908 29.8607 29.0012C29.7391 29.1275 29.6487 29.2042 29.5025 29.3132C29.4134 29.3795 29.3673 29.4107 29.3673 29.4107C29.2168 29.5056 29.132 29.5531 28.9527 29.6485C28.6738 29.797 28.3657 29.8824 28.0501 29.8986C27.849 29.9089 27.6483 29.9234 27.4474 29.9126C27.4385 29.9121 26.8318 29.8189 26.8318 29.8189C25.2914 29.4137 23.8669 28.6548 22.6714 27.6022C22.427 27.387 22.2004 27.1542 21.969 26.9239C21.0059 25.9651 20.2767 24.9311 19.8346 23.9531C19.6165 23.4708 19.4785 22.9543 19.4763 22.4227C19.4723 21.7652 19.6876 21.1252 20.0881 20.6037C20.167 20.5009 20.242 20.3943 20.3713 20.2722C20.5082 20.1429 20.5953 20.0735 20.6892 20.0255C20.8143 19.9615 20.9517 19.9272 21.0919 19.9174Z" fill="white"/>
</svg>
