<svg width="42" height="42" viewBox="0 0 42 42" fill="none" xmlns="http://www.w3.org/2000/svg">
<path d="M34 0H8C3.58172 0 0 3.58172 0 8V34C0 38.4183 3.58172 42 8 42H34C38.4183 42 42 38.4183 42 34V8C42 3.58172 38.4183 0 34 0Z" fill="#FF0000"/>
<path d="M30.975 15.8816C30.7125 14.9629 30.0563 14.3066 29.1375 14.0441C27.5625 13.6504 20.8687 13.6504 20.8687 13.6504C20.8687 13.6504 14.3063 13.6504 12.6 14.0441C11.6813 14.3066 11.025 14.9629 10.7625 15.8816C10.5 17.5879 10.5 21.0004 10.5 21.0004C10.5 21.0004 10.5 24.4129 10.8938 26.1191C11.1563 27.0379 11.8125 27.6941 12.7312 27.9566C14.3062 28.3504 21 28.3504 21 28.3504C21 28.3504 27.5625 28.3504 29.2687 27.9566C30.1875 27.6941 30.8438 27.0379 31.1063 26.1191C31.5 24.4129 31.5 21.0004 31.5 21.0004C31.5 21.0004 31.5 17.5879 30.975 15.8816ZM18.9 24.1504V17.8504L24.4125 21.0004L18.9 24.1504Z" fill="white"/>
</svg>
