<svg width="24" height="24" viewBox="0 0 24 24" fill="none" xmlns="http://www.w3.org/2000/svg">
<path d="M15.551 12.9961L13.5409 15.013C12.7258 15.831 11.2916 15.8486 10.4589 15.013L8.44875 12.9961L1.22925 20.2391C1.49798 20.3633 1.79428 20.4375 2.10928 20.4375H21.8905C22.2055 20.4375 22.5017 20.3634 22.7704 20.2391L15.551 12.9961Z" fill="white"/>
<path d="M21.8907 3.5625H2.10943C1.79443 3.5625 1.49813 3.63666 1.22949 3.76092L8.94404 11.5011C8.94455 11.5016 8.94516 11.5017 8.94568 11.5022C8.9462 11.5027 8.94629 11.5034 8.94629 11.5034L11.4547 14.0201C11.7211 14.2866 12.2791 14.2866 12.5455 14.0201L15.0534 11.5038C15.0534 11.5038 15.054 11.5027 15.0545 11.5022C15.0545 11.5022 15.0556 11.5016 15.0562 11.5011L22.7705 3.76088C22.5019 3.63656 22.2057 3.5625 21.8907 3.5625Z" fill="white"/>
<path d="M0.224344 4.74431C0.0853125 5.02547 0 5.33756 0 5.67187V18.3281C0 18.6624 0.0852187 18.9745 0.224297 19.2557L7.45631 12.0002L0.224344 4.74431Z" fill="white"/>
<path d="M23.7756 4.74422L16.5437 12.0002L23.7756 19.2558C23.9147 18.9746 24 18.6625 24 18.3281V5.67188C24 5.33747 23.9147 5.02538 23.7756 4.74422Z" fill="white"/>
</svg>
