<svg width="10" height="20" viewBox="0 0 10 20" fill="none" xmlns="http://www.w3.org/2000/svg">
<path d="M3.48296 11.2414H1.41213C1.08713 11.2414 0.970459 11.1058 0.970459 10.7325C0.970459 9.7702 0.970459 8.80871 0.970459 7.84802C0.970459 7.47706 1.09338 7.33676 1.41421 7.33676H3.48296V5.25605C3.45841 4.32141 3.65487 3.39649 4.05171 2.57847C4.46424 1.75262 5.12528 1.12568 5.91213 0.814027C6.42277 0.60195 6.96249 0.495652 7.50588 0.500137H9.55379C9.84754 0.500137 9.97046 0.64757 9.97046 0.975728V3.68898C9.97046 4.02902 9.84546 4.16457 9.55379 4.16457C8.99338 4.16457 8.43296 4.16457 7.87462 4.19072C7.31629 4.21688 7.01212 4.50699 7.01212 5.17282C6.99962 5.88621 7.01212 6.58533 7.01212 7.31298H9.41838C9.76004 7.31298 9.87671 7.44614 9.87671 7.83851C9.87671 8.78969 9.87671 9.74563 9.87671 10.7063C9.87671 11.0939 9.76838 11.2152 9.42463 11.2176H6.99963V18.9554C6.99963 19.3692 6.88713 19.5 6.52879 19.5H3.92046C3.60588 19.5 3.48296 19.3597 3.48296 19.0006V11.2414Z" fill="white"/>
</svg>
