<svg width="23" height="22" viewBox="0 0 23 22" fill="none" xmlns="http://www.w3.org/2000/svg">
<path d="M17.222 0H5.74846C2.57869 0 0 2.57945 0 5.75015V16.2499C0 19.4206 2.57869 22 5.74846 22H17.222C20.3918 22 22.9704 19.4206 22.9704 16.2499V5.75015C22.9704 2.57945 20.3918 0 17.222 0ZM2.02788 5.75015C2.02788 3.69829 3.6972 2.02847 5.74846 2.02847H17.222C19.2732 2.02847 20.9426 3.69829 20.9426 5.75015V16.2499C20.9426 18.3017 19.2732 19.9715 17.222 19.9715H5.74846C3.6972 19.9715 2.02788 18.3017 2.02788 16.2499V5.75015Z" fill="white"/>
<path d="M11.485 16.3473C14.4326 16.3473 16.832 13.9485 16.832 10.9987C16.832 8.04894 14.4339 5.65012 11.485 5.65012C8.53606 5.65012 6.13794 8.04894 6.13794 10.9987C6.13794 13.9485 8.53606 16.3473 11.485 16.3473ZM11.485 7.67989C13.3154 7.67989 14.8041 9.16908 14.8041 11C14.8041 12.831 13.3154 14.3202 11.485 14.3202C9.65457 14.3202 8.16582 12.831 8.16582 11C8.16582 9.16908 9.65457 7.67989 11.485 7.67989Z" fill="white"/>
<path d="M17.3272 6.51415C18.1209 6.51415 18.7678 5.86832 18.7678 5.07304C18.7678 4.27777 18.1222 3.63193 17.3272 3.63193C16.5321 3.63193 15.8865 4.27777 15.8865 5.07304C15.8865 5.86832 16.5321 6.51415 17.3272 6.51415Z" fill="white"/>
</svg>
