<svg width="20" height="20" viewBox="0 0 20 20" fill="none" xmlns="http://www.w3.org/2000/svg">
<path fill-rule="evenodd" clip-rule="evenodd" d="M18.7681 13.906L15.5433 12.044C15.241 11.87 14.8822 11.8229 14.5453 11.9132C14.2085 12.0034 13.9212 12.2236 13.7464 12.5253C13.4276 13.0778 12.9441 13.5257 12.303 13.6571C12.0014 13.7231 11.689 13.7222 11.3877 13.6546C11.0864 13.587 10.8036 13.4542 10.5591 13.2657C9.84302 12.7279 9.16002 12.1047 8.52719 11.4719C7.89435 10.839 7.27098 10.1558 6.73361 9.43955C6.54508 9.19501 6.41235 8.91217 6.34475 8.61087C6.27714 8.30958 6.27629 7.99713 6.34226 7.69547C6.4736 7.05427 6.92162 6.57075 7.47388 6.25196C7.77558 6.07711 7.99567 5.78975 8.08589 5.45288C8.17611 5.11601 8.12912 4.75711 7.9552 4.45484L6.09326 1.22953C5.9356 0.955681 5.68451 0.747856 5.38605 0.644163C5.08758 0.54047 4.76174 0.547859 4.46829 0.664977L4.4291 0.680042C3.80208 0.921303 2.04309 1.56829 1.58221 2.02919C0.415018 3.19641 0.409715 4.84631 0.813878 6.35458C1.57009 9.17777 3.83066 12.1003 5.86463 14.1346C7.89859 16.1689 10.821 18.4295 13.6439 19.1861C14.1943 19.3334 14.7676 19.4287 15.3384 19.4286C16.3415 19.4282 17.2527 19.1336 17.9686 18.4176C18.4149 17.9712 19.078 16.1769 19.3196 15.5642L19.335 15.5249C19.4524 15.2322 19.4597 14.9067 19.3554 14.609C19.2512 14.3113 19.0425 14.0615 18.7681 13.906Z" fill="white"/>
</svg>
