<svg width="23" height="16" viewBox="0 0 23 16" fill="none" xmlns="http://www.w3.org/2000/svg">
<path d="M18.3514 0.327075C19.3672 0.327075 20.458 0.347882 21.2869 0.935473C22.3571 1.69341 22.6481 3.1357 22.782 4.44036C23.0293 6.84325 23.0331 9.27183 22.7918 11.6747C22.6916 12.6654 22.5254 13.713 21.8728 14.4648C21.2262 15.2106 20.2667 15.4975 19.2605 15.6073L19.2596 15.6093C18.7481 15.6648 18.2242 15.674 17.7224 15.6728C13.8072 15.6692 9.89136 15.6654 5.97733 15.663C4.74548 15.663 3.40387 15.623 2.45194 14.8398C1.37945 13.9551 1.15599 12.421 1.06912 11.0331C0.948497 9.13125 0.938956 7.22333 1.03787 5.32024C1.09217 4.27506 1.18744 3.20395 1.63748 2.25774C1.96081 1.57847 2.50031 0.968413 3.19022 0.647388C3.99249 0.274493 4.83228 0.339987 5.69608 0.338794C7.76402 0.33638 9.83224 0.335348 11.9002 0.332934C14.0501 0.330521 16.2014 0.329488 18.3514 0.327075ZM9.63651 11.371L15.4715 8.00188L9.63651 4.63176V11.371Z" fill="white"/>
</svg>
