<svg width="44" height="40" viewBox="0 0 44 40" fill="none" xmlns="http://www.w3.org/2000/svg">
<path d="M4.88187 20.5758C5.46718 19.3016 5.91226 17.9846 6.86949 16.9115L5.86349 11.0462C5.86349 11.0462 4.32095 3.76643 14.1127 0.565506C23.8984 -2.63542 28.5809 8.54647 25.3983 14.1862C22.2156 19.8259 28.4346 19.015 31.477 17.1554C34.5133 15.2897 35.4461 14.5093 39.0433 14.3691C42.6345 14.2289 44.1709 19.5576 43.5185 22.7159C42.8661 25.8741 35.8973 43.2445 19.661 39.4582C14.6675 38.2937 9.22293 35.8549 6.01591 31.6968C3.47346 28.3983 3.16861 24.3255 4.88187 20.5758Z" fill="#FCE66A"/>
<path d="M4.88185 20.5758C5.46716 19.3015 5.91224 17.9846 6.86947 16.9115L5.86347 11.0462C5.86347 11.0462 4.32093 3.76637 14.1127 0.565453C15.137 0.230118 16.1064 0.0594026 17.0149 0.0167236C10.3752 4.50411 12.4177 15.0763 12.4177 15.0763C11.4666 16.1494 11.0154 17.4663 10.4301 18.7406C8.71686 22.4841 9.02171 26.563 11.5642 29.8615C14.7712 34.0197 20.2097 36.4585 25.2092 37.623C27.7029 38.2083 29.9832 38.2815 32.05 37.9949C28.7333 39.7874 24.63 40.6166 19.661 39.4582C14.6675 38.2936 9.22291 35.8549 6.01589 31.6967C3.47344 28.3982 3.16859 24.3254 4.88185 20.5758Z" fill="#F2DE66"/>
<path d="M10.6435 13.3692C10.4362 13.0278 7.58886 12.0522 6.23533 11.2109C4.88179 10.3695 2.94905 11.8206 1.46748 10.4304C-0.0140896 9.04033 -0.92864 13.6314 1.50406 15.3812C3.93676 17.131 13.442 17.9297 10.6435 13.3753V13.3692Z" fill="#E8BFA5"/>
<path d="M1.46763 10.4304C1.58347 10.5341 1.69931 10.6012 1.82125 10.6743C1.87613 11.7474 2.30291 12.9607 3.31501 13.6862C4.77829 14.741 8.79621 15.4361 11.1557 14.8447C11.1679 17.7163 3.63206 16.9115 1.51031 15.3812C-0.922395 13.6314 -0.00784397 9.04033 1.47372 10.4304H1.46763Z" fill="#E0B294"/>
<g style="mix-blend-mode:screen" opacity="0.61">
<path d="M39.8359 24.6304C39.5249 25.2828 39.214 25.9291 38.903 26.5814C38.7201 26.9595 38.5372 27.3375 38.2811 27.6667C37.958 28.0813 37.5129 28.3984 37.0191 28.5752C36.5923 28.7276 36.1106 28.7764 35.7021 28.5752C35.2021 28.3374 34.9278 27.8069 34.7327 27.2887C34.6229 27.0021 34.5315 26.7034 34.5254 26.3985C34.5254 25.9961 34.6656 25.6059 34.8119 25.2279C35.3241 23.8988 35.8362 22.5757 36.3484 21.2466C36.8727 19.893 38.6957 18.2895 40.1163 19.5882C41.4881 20.8381 40.47 23.283 39.8298 24.6243L39.8359 24.6304Z" fill="#FFF65C"/>
</g>
<path d="M11.5459 10.0525C12.2409 10.2598 12.8933 10.2781 13.5091 10.089C14.8626 9.68055 15.4601 8.44895 15.4784 8.39408C15.6186 8.10143 15.4906 7.7539 15.198 7.61367C14.9114 7.47953 14.5578 7.60147 14.4236 7.89413C14.4053 7.92461 14.0029 8.72332 13.1616 8.97329C12.5214 9.1623 11.7471 8.99159 10.8813 8.46724C10.5947 8.29653 10.2472 8.38798 10.0765 8.66235C9.91186 8.93671 9.99722 9.29644 10.2716 9.46715C10.7106 9.72932 11.1374 9.92443 11.5459 10.0525Z" fill="#454233"/>
<path d="M15.576 9.54636C15.6674 9.57685 15.7711 9.57685 15.8686 9.55856C16.1857 9.49149 16.3808 9.18054 16.3137 8.8635C16.2954 8.79034 15.9052 7.05879 14.4541 6.61981C14.442 6.61981 14.4298 6.61371 14.4176 6.60761C14.1066 6.52226 13.7835 6.69907 13.692 7.01001C13.6067 7.31486 13.7774 7.638 14.0822 7.72946C14.0944 7.72946 14.1005 7.72946 14.1066 7.73556C14.8931 7.97334 15.1614 9.09519 15.1614 9.10738C15.2102 9.32077 15.3687 9.48539 15.5638 9.54027L15.576 9.54636Z" fill="#454233"/>
<path d="M16.515 26.6912C16.515 26.6912 21.9658 17.5335 27.3128 19.6431C32.6599 21.7526 27.4104 27.685 27.4104 27.685C27.4104 27.685 32.0746 35.6904 23.5997 32.8797" stroke="#F2BC66" stroke-width="0.5" stroke-linecap="round" stroke-linejoin="round"/>
</svg>
