<svg width="30" height="29" viewBox="0 0 30 29" fill="none" xmlns="http://www.w3.org/2000/svg">
<path d="M14.094 8.06988C14.0109 4.6152 16.4684 1.25549 19.7806 0.293876C23.1166 -0.69148 27.0342 0.875592 28.7913 3.87915C30.7857 7.27447 29.9784 11.572 28.7556 15.3117C27.4498 19.2649 25.7402 23.0758 23.6508 26.6729C23.3777 27.1478 23.0809 27.6227 22.5942 27.872C22.0481 28.1688 21.3833 28.0738 20.7897 27.9788C16.8245 27.3496 12.9068 26.293 9.15537 24.8566C5.33266 23.3845 1.27252 21.0457 0.227805 17.0805C-0.638834 13.7921 1.04696 10.1118 3.93179 8.31919C6.81663 6.52655 10.6393 6.55029 13.6785 8.06988H14.1059H14.094Z" fill="#EBA7A1"/>
<g style="mix-blend-mode:multiply" opacity="0.3">
<path d="M24.2087 0.376953C23.995 3.60607 23.5202 6.82332 22.7722 9.96934C21.3358 15.9764 18.9258 21.853 15.1743 26.7916C17.0263 27.2784 18.8902 27.682 20.7778 27.9788C21.3832 28.0738 22.0362 28.1687 22.5823 27.872C23.069 27.6226 23.3658 27.1359 23.6389 26.6729C25.7283 23.0758 27.4497 19.2649 28.7437 15.3116C29.9665 11.572 30.7738 7.27445 28.7794 3.87912C27.7821 2.18146 26.0845 0.958669 24.1969 0.376953H24.2087Z" fill="#EBA7A1"/>
</g>
</svg>
