<svg width="30" height="28" viewBox="0 0 30 28" fill="none" xmlns="http://www.w3.org/2000/svg">
<path d="M17.8692 0.0231681C17.8692 0.0231681 19.8911 -0.228789 20.7776 3.45415C21.6673 7.13708 21.4744 8.32221 22.8742 8.84479C24.2708 9.36426 29.7392 9.98016 29.9912 13.3427C30.2463 16.7052 24.8929 17.5731 23.3594 19.2124C21.8259 20.8517 24.9676 26.1303 22.3049 27.6514C19.6423 29.1725 15.5612 23.0415 13.1909 23.3308C10.8206 23.6201 7.60429 28.202 4.95407 25.8721C2.30385 23.5423 6.81731 18.8578 6.17031 16.7737C5.52331 14.6896 -1.54706 11.6319 1.1125 8.77014C3.77205 5.9084 10.1612 8.99099 12.4568 6.4372C14.7524 3.88652 14.5502 -0.294112 17.8692 0.0231681Z" fill="#FCE66A"/>
<path d="M1.10928 8.76682C3.76883 5.90508 10.158 8.98767 12.4536 6.43388C14.743 3.8832 14.5439 -0.297429 17.8629 0.0167407C17.8629 0.0167407 19.5395 -0.182337 20.51 2.57364C19.5395 3.9423 19.0823 6.20059 17.6358 7.80876C15.3433 10.3626 8.95107 7.27996 6.29152 10.1417C3.63197 13.0034 10.7023 16.0611 11.3493 18.1452C11.8595 19.7907 9.16259 23.0506 9.29945 25.4987C7.82815 26.435 6.31329 27.0664 4.95085 25.8688C2.30063 23.539 6.81409 18.8545 6.16709 16.7704C5.52009 14.6863 -1.55027 11.6286 1.10928 8.76682Z" fill="#F0DA65"/>
<g style="mix-blend-mode:screen">
<path d="M20.0715 18.7176C19.7698 18.9882 19.409 19.2557 19.0077 19.2215C18.4665 19.1749 18.1088 18.5621 18.1679 18.0208C18.227 17.4796 18.5847 17.0192 18.9766 16.6397C19.3685 16.2602 19.8071 15.9212 20.1089 15.4702C20.4013 15.0285 20.5475 14.5028 20.8492 14.0673C21.773 12.7204 23.2288 13.8931 22.7591 15.2151C22.3049 16.4935 21.0607 17.8311 20.0746 18.7176H20.0715Z" fill="#FCE66A"/>
</g>
</svg>
