<svg width="160" height="157" viewBox="0 0 160 157" fill="none" xmlns="http://www.w3.org/2000/svg">
<g clip-path="url(#clip0_74_940)">
<path d="M21.1879 146.409C21.1879 146.409 21.1602 146.38 21.1463 146.366C20.9803 146.15 21.0212 145.833 21.2434 145.66C51.5422 122.807 95.246 80.265 131.408 7.44328C131.532 7.19792 131.831 7.08997 132.076 7.21446C132.329 7.33201 132.43 7.63787 132.305 7.88323C96.0556 80.8873 52.2297 123.533 21.8448 146.455C21.6442 146.608 21.3547 146.581 21.181 146.401L21.1879 146.409Z" fill="#C77CD8"/>
<path d="M134.08 7.51798C133.576 8.42152 132.438 8.75533 131.521 8.25137C130.603 7.74742 130.283 6.61032 130.787 5.69264C131.291 4.7891 132.428 4.45529 133.339 4.95205C134.243 5.45576 134.577 6.59311 134.073 7.51079L134.08 7.51798Z" fill="#C77CD8"/>
<path d="M129.277 10.0016C128.773 10.9051 127.636 11.2389 126.718 10.735C125.814 10.2313 125.481 9.09391 125.985 8.17624C126.488 7.2727 127.626 6.93889 128.543 7.44284C129.447 7.94655 129.781 9.0839 129.277 10.0016Z" fill="#C77CD8"/>
<path d="M133.756 14.7401C132.897 15.3193 131.727 15.0867 131.148 14.228C130.569 13.3692 130.802 12.1993 131.66 11.6202C132.519 11.0411 133.689 11.2736 134.268 12.1324C134.847 12.9911 134.615 14.161 133.756 14.7401Z" fill="#C77CD8"/>
<path d="M128.91 16.445C128.051 17.0241 126.881 16.7916 126.302 15.9328C125.723 15.0741 125.956 13.9042 126.814 13.325C127.673 12.7459 128.843 12.9785 129.422 13.8372C130.001 14.6959 129.769 15.8659 128.91 16.445Z" fill="#C77CD8"/>
<path d="M124.315 16.3509C123.456 16.93 122.286 16.6974 121.707 15.8387C121.128 14.98 121.36 13.81 122.219 13.2309C123.078 12.6518 124.248 12.8843 124.827 13.7431C125.406 14.6018 125.174 15.7717 124.315 16.3509Z" fill="#C77CD8"/>
<path d="M125.286 20.696C124.427 21.2751 123.257 21.0425 122.678 20.1838C122.099 19.3251 122.331 18.1551 123.19 17.576C124.049 16.9969 125.219 17.2294 125.798 18.0882C126.377 18.9469 126.144 20.1168 125.286 20.696Z" fill="#C77CD8"/>
<path d="M129.959 21.6188C129.1 22.1979 127.93 21.9654 127.351 21.1066C126.772 20.2479 127.004 19.078 127.863 18.4989C128.722 17.9198 129.892 18.1523 130.471 19.011C131.05 19.8698 130.817 21.0397 129.959 21.6188Z" fill="#C77CD8"/>
<path d="M127.745 26.9126C126.886 27.4917 125.716 27.2592 125.137 26.4005C124.558 25.5417 124.79 24.3718 125.649 23.7927C126.508 23.2136 127.678 23.4461 128.257 24.3049C128.836 25.1636 128.603 26.3335 127.745 26.9126Z" fill="#C77CD8"/>
<path d="M134.657 20.2649C133.798 20.844 132.628 20.6115 132.049 19.7528C131.47 18.894 131.702 17.7241 132.561 17.145C133.42 16.5659 134.59 16.7984 135.169 17.6571C135.748 18.5159 135.516 19.6858 134.657 20.2649Z" fill="#C77CD8"/>
<path d="M123.532 26.408C122.673 26.9871 121.503 26.7546 120.924 25.8958C120.345 25.0371 120.577 23.8672 121.436 23.2881C122.295 22.7089 123.465 22.9415 124.044 23.8002C124.623 24.659 124.39 25.8289 123.532 26.408Z" fill="#C77CD8"/>
<path d="M120.33 22.215C119.471 22.7941 118.302 22.5616 117.722 21.7028C117.143 20.8441 117.376 19.6742 118.235 19.0951C119.093 18.516 120.263 18.7485 120.842 19.6072C121.421 20.466 121.189 21.6359 120.33 22.215Z" fill="#C77CD8"/>
<path d="M119.524 29.0963C118.666 29.6755 117.496 29.4429 116.916 28.5842C116.337 27.7254 116.57 26.5555 117.429 25.9764C118.287 25.3973 119.457 25.6298 120.036 26.4886C120.616 27.3473 120.383 28.5172 119.524 29.0963Z" fill="#C77CD8"/>
<path d="M124.564 32.126C123.705 32.7051 122.535 32.4726 121.956 31.6138C121.377 30.7551 121.609 29.5852 122.468 29.0061C123.327 28.427 124.497 28.6595 125.076 29.5182C125.655 30.377 125.422 31.5469 124.564 32.126Z" fill="#C77CD8"/>
<path d="M118.728 35.8576C117.869 36.4367 116.699 36.2042 116.12 35.3454C115.541 34.4867 115.773 33.3168 116.632 32.7376C117.491 32.1585 118.661 32.3911 119.24 33.2498C119.819 34.1085 119.586 35.2785 118.728 35.8576Z" fill="#C77CD8"/>
<path d="M115.45 32.4059C114.591 32.985 113.421 32.7525 112.842 31.8938C112.263 31.035 112.495 29.8651 113.354 29.286C114.213 28.7069 115.383 28.9394 115.962 29.7981C116.541 30.6569 116.309 31.8268 115.45 32.4059Z" fill="#C77CD8"/>
<path d="M113.893 37.7606C113.034 38.3398 111.864 38.1072 111.285 37.2485C110.706 36.3898 110.938 35.2198 111.797 34.6407C112.656 34.0616 113.826 34.2941 114.405 35.1529C114.984 36.0116 114.751 37.1815 113.893 37.7606Z" fill="#C77CD8"/>
<path d="M117.299 43.9939C116.44 44.573 115.27 44.3405 114.691 43.4818C114.112 42.623 114.345 41.4531 115.203 40.874C116.062 40.2949 117.232 40.5274 117.811 41.3862C118.39 42.2449 118.158 43.4148 117.299 43.9939Z" fill="#C77CD8"/>
<path d="M113.085 43.1003C112.227 43.6794 111.057 43.4468 110.478 42.5881C109.898 41.7294 110.131 40.5594 110.99 39.9803C111.848 39.4012 113.018 39.6337 113.597 40.4925C114.177 41.3512 113.944 42.5211 113.085 43.1003Z" fill="#C77CD8"/>
<path d="M110.667 48.7582C109.808 49.3373 108.638 49.1048 108.059 48.2461C107.48 47.3873 107.713 46.2174 108.571 45.6383C109.43 45.0592 110.6 45.2917 111.179 46.1504C111.758 47.0092 111.526 48.1791 110.667 48.7582Z" fill="#C77CD8"/>
<path d="M121.089 40.3612C120.23 40.9403 119.061 40.7078 118.481 39.8491C117.902 38.9903 118.135 37.8204 118.994 37.2413C119.852 36.6622 121.022 36.8947 121.601 37.7535C122.18 38.6122 121.948 39.7821 121.089 40.3612Z" fill="#C77CD8"/>
<path d="M125.741 37.2314C124.882 37.8105 123.712 37.5779 123.133 36.7192C122.554 35.8605 122.786 34.6905 123.645 34.1114C124.504 33.5323 125.674 33.7648 126.253 34.6236C126.832 35.4823 126.599 36.6522 125.741 37.2314Z" fill="#C77CD8"/>
<path d="M133.718 25.8427C132.859 26.4218 131.689 26.1893 131.11 25.3305C130.531 24.4718 130.764 23.3019 131.622 22.7227C132.481 22.1436 133.651 22.3762 134.23 23.2349C134.809 24.0936 134.577 25.2636 133.718 25.8427Z" fill="#C77CD8"/>
<path d="M128.888 31.5224C128.029 32.1015 126.859 31.869 126.28 31.0102C125.701 30.1515 125.934 28.9815 126.792 28.4024C127.651 27.8233 128.821 28.0559 129.4 28.9146C129.979 29.7733 129.747 30.9433 128.888 31.5224Z" fill="#C77CD8"/>
<path d="M116.391 25.4633C115.532 26.0424 114.362 25.8099 113.783 24.9511C113.204 24.0924 113.437 22.9225 114.295 22.3434C115.154 21.7642 116.324 21.9968 116.903 22.8555C117.482 23.7142 117.25 24.8842 116.391 25.4633Z" fill="#C77CD8"/>
<path d="M96.6361 66.2297L97.0014 65.5572C97.0671 65.4381 103.701 53.6511 119.832 54.4765L120.934 54.5381L120.241 55.3889C109.487 68.5963 97.8767 66.4635 97.3833 66.37L96.6433 66.2228L96.6361 66.2297ZM118.632 55.5659C106.266 55.386 100.08 62.9729 98.4402 65.3771C101.181 65.5804 110.159 65.376 118.632 55.5659Z" fill="#C77CD8"/>
<path d="M97.7332 65.7679C97.7332 65.7679 97.6845 65.7176 97.6781 65.6821C97.624 65.5397 97.6904 65.3782 97.8259 65.3169C97.9256 65.2762 107.764 61.1406 112.944 57.723C113.073 57.6403 113.249 57.6646 113.331 57.8075C113.414 57.9362 113.383 58.1054 113.247 58.195C108.031 61.6474 98.1427 65.8034 98.043 65.8441C97.9361 65.8917 97.8093 65.8612 97.7329 65.7821L97.7332 65.7679Z" fill="#C77CD8"/>
<path d="M94.8189 70.2787L94.2936 69.5765C93.948 69.1178 85.8733 58.0508 91.4255 37.2988L91.8267 35.7853L92.4736 37.218C101.543 57.3759 95.4984 69.0246 95.2283 69.5079L94.8119 70.2715L94.8189 70.2787ZM92.1002 39.1634C88.2482 55.2845 92.9693 65.2111 94.6454 68.055C95.801 65.0483 98.6879 54.8085 92.1002 39.1634Z" fill="#C77CD8"/>
<path d="M94.5313 68.9159C94.4896 68.8727 94.4623 68.8156 94.4564 68.7519C94.437 68.6455 93.0948 57.9998 93.4792 51.7617C93.4888 51.6134 93.6183 51.4884 93.7736 51.5052C93.9219 51.5149 94.047 51.6443 94.0301 51.7996C93.6537 57.9883 94.9828 68.5772 95.0021 68.6836C95.0207 68.8324 94.9121 68.9791 94.7633 68.9977C94.6782 69.0104 94.5869 68.9734 94.5313 68.9159Z" fill="#C77CD8"/>
<path d="M79.1327 90.1824L78.6837 89.5735C78.3936 89.1724 71.5312 79.5621 78.934 64.2242L79.4109 63.2354L79.9315 64.2062C87.5263 78.4615 79.6685 89.4704 79.5889 89.5751L79.1397 90.1896L79.1327 90.1824ZM79.4594 65.7327C74.161 77.5923 77.7876 85.7955 79.1392 88.1882C80.6186 85.6751 84.8601 76.838 79.4594 65.7327Z" fill="#C77CD8"/>
<path d="M78.964 88.9136C78.9153 88.8633 78.888 88.8062 78.8823 88.7283C78.8771 88.6221 78.4413 77.9073 79.3553 71.7139C79.3791 71.5658 79.5225 71.4552 79.6706 71.4789C79.8187 71.5027 79.9293 71.6461 79.9055 71.7942C78.9997 77.9241 79.4362 88.5965 79.4415 88.7027C79.4529 88.8585 79.3304 88.9907 79.1748 88.988C79.09 88.9865 79.0198 88.957 78.9642 88.8995L78.964 88.9136Z" fill="#C77CD8"/>
<path d="M76.2314 93.5407L76.7528 92.8426C77.0787 92.4027 85.0606 81.983 107.167 81.6394L108.738 81.6101L107.532 82.6217C91.1031 96.4446 77.6549 93.8343 77.0841 93.7182L76.2314 93.5407ZM105.556 82.8065C88.606 83.4803 80.5429 90.4333 78.3171 92.7638C81.6075 93.0615 92.6178 93.1188 105.556 82.8065Z" fill="#C77CD8"/>
<path d="M77.4687 93.1521C77.4687 93.1521 77.4131 93.0945 77.4069 93.0449C77.36 92.8956 77.4406 92.7343 77.5828 92.6944C77.6894 92.6609 87.8455 89.3865 93.2862 86.4119C93.4219 86.3364 93.5836 86.3888 93.6663 86.5175C93.7417 86.6532 93.6963 86.8221 93.5606 86.8976C88.07 89.8925 77.8642 93.1873 77.7575 93.2208C77.6508 93.2543 77.5382 93.224 77.4687 93.1521Z" fill="#C77CD8"/>
</g>
<defs>
<clipPath id="clip0_74_940">
<rect width="44.71" height="179.02" fill="white" transform="translate(128.77 0.105957) rotate(45.9973)"/>
</clipPath>
</defs>
</svg>
