<svg width="192" height="195" viewBox="0 0 192 195" fill="none" xmlns="http://www.w3.org/2000/svg">
<g clip-path="url(#clip0_74_877)">
<path d="M139.969 168.441C139.669 168.522 139.363 168.345 139.283 168.045C139.252 167.929 136.023 156.029 127.543 137.544C126.095 134.381 91.0502 60.0775 12.3168 67.912C12.0141 67.9413 11.7362 67.7155 11.7069 67.4128C11.6776 67.1101 11.9034 66.8322 12.2061 66.8029C91.7266 58.8921 127.091 133.886 128.556 137.076C137.085 155.662 140.334 167.64 140.365 167.756C140.445 168.055 140.268 168.361 139.969 168.441Z" fill="#C77CD8"/>
<path d="M126.057 133.853C125.98 133.874 125.888 133.877 125.8 133.86C125.581 133.815 103.938 129.228 91.3845 107.713C79.6006 87.5238 79.4007 59.5637 90.7855 24.6086C90.8825 24.3135 91.1928 24.1579 91.4879 24.2549C91.7831 24.3518 91.9386 24.6621 91.8417 24.9573C80.5583 59.5953 80.7263 87.243 92.3404 107.146C104.644 128.231 125.803 132.71 126.012 132.757C126.319 132.82 126.51 133.11 126.448 133.417C126.403 133.636 126.238 133.794 126.045 133.846L126.057 133.853Z" fill="#C77CD8"/>
<path d="M83.2363 76.0114C83.1204 76.0424 82.9942 76.0348 82.8672 75.986C82.5862 75.8645 82.457 75.5368 82.5759 75.2462C82.6247 75.1192 88.1802 62.6579 101.172 59.1784C101.472 59.0982 101.778 59.275 101.858 59.5745C101.938 59.8739 101.761 60.1801 101.462 60.2603C88.9915 63.6 83.6559 75.5677 83.607 75.6947C83.537 75.8584 83.4006 75.9674 83.2363 76.0114Z" fill="#C77CD8"/>
<path d="M83.3835 64.1909C83.3835 64.1909 83.3255 64.2064 83.3062 64.2116C83.0035 64.2409 82.7185 64.0273 82.6866 63.715C82.673 63.6254 81.4448 54.13 69.1088 48.9654C68.8278 48.8439 68.689 48.5188 68.8104 48.2378C68.9319 47.9568 69.257 47.818 69.538 47.9394C82.5139 53.3674 83.7547 63.1805 83.7932 63.5946C83.827 63.8754 83.6443 64.1211 83.3835 64.1909Z" fill="#C77CD8"/>
<path d="M85.2218 49.6399C85.1155 49.6684 85.0015 49.6679 84.8868 49.6261C84.5987 49.5169 84.4528 49.204 84.5498 48.9089C84.6609 48.5893 87.5026 41.1095 100.302 37.6818C100.601 37.6016 100.907 37.7784 100.987 38.0779C101.068 38.3773 100.891 38.6835 100.591 38.7637C88.3913 42.031 85.6271 49.2208 85.5969 49.3014C85.5321 49.4844 85.3886 49.6056 85.2147 49.6522L85.2218 49.6399Z" fill="#C77CD8"/>
<path d="M86.8041 41.9799C86.7462 41.9955 86.6882 42.011 86.6322 41.9949C86.3288 41.983 86.0914 41.7153 86.1033 41.4119C86.1065 41.3075 86.5511 30.598 77.0752 24.8641C76.8154 24.7059 76.7223 24.3582 76.8902 24.0958C77.0483 23.8361 77.3961 23.743 77.6584 23.9108C87.7151 29.9964 87.228 41.3592 87.2178 41.4758C87.2026 41.7283 87.0289 41.9301 86.8067 41.9896L86.8041 41.9799Z" fill="#C77CD8"/>
<path d="M45.8525 94.8329C45.7076 94.8717 45.5569 94.8499 45.4221 94.7721C45.1527 94.6165 45.0692 94.2662 45.2274 94.0065C54.6937 78.096 73.3191 78.8742 73.5085 78.8856C73.8145 78.9072 74.0492 79.1652 74.0373 79.4686C74.0157 79.7746 73.7602 80.019 73.4543 79.9975C73.2745 79.9835 55.305 79.2574 46.1975 94.5749C46.1197 94.7096 45.9974 94.7941 45.8622 94.8303L45.8525 94.8329Z" fill="#C77CD8"/>
<path d="M63.2173 75.0161C63.0531 75.0601 62.8682 75.0268 62.7232 74.9104C54.1388 67.9439 53.79 59.2585 53.636 55.5522C53.6134 54.9267 53.5896 54.3741 53.5327 54.1616C53.4525 53.8621 53.6293 53.556 53.9288 53.4758C54.2282 53.3956 54.5344 53.5724 54.6146 53.8718C54.7051 54.2099 54.7282 54.7214 54.7536 55.5117C54.8978 59.0654 55.2358 67.4017 63.4244 74.0497C63.6629 74.2446 63.7052 74.5956 63.5102 74.8342C63.4318 74.9276 63.3358 74.9947 63.2199 75.0258L63.2173 75.0161Z" fill="#C77CD8"/>
<path d="M23.9152 83.9681C23.7799 84.0043 23.6317 83.9922 23.4996 83.9241C23.2328 83.7782 23.13 83.433 23.2759 83.1662C32.0386 67.1025 47.1048 68.8546 47.2555 68.8764C47.5667 68.9172 47.7751 69.1927 47.7342 69.5039C47.6933 69.8151 47.4178 70.0234 47.1092 69.9922C46.9681 69.9679 32.639 68.3393 24.2505 83.7127C24.1753 83.857 24.0433 83.9441 23.9081 83.9804L23.9152 83.9681Z" fill="#C77CD8"/>
<path d="M36.0102 68.0162C35.8847 68.0498 35.7462 68.0352 35.6166 67.9767C23.5839 62.089 23.8722 53.9266 23.8931 53.5794C23.9146 53.2734 24.1727 53.0387 24.4761 53.0506C24.7795 53.0625 25.0168 53.3302 25.0049 53.6336C25.0037 53.7064 24.7736 61.4288 36.1019 66.9668C36.3758 67.1005 36.4979 67.4404 36.3546 67.7169C36.2819 67.871 36.1429 67.9703 35.998 68.0091L36.0102 68.0162Z" fill="#C77CD8"/>
<path d="M95.0216 22.3353C95.5338 24.2479 94.4022 26.2073 92.4896 26.7195C90.577 27.2317 88.6175 26.1001 88.1053 24.1875C87.5931 22.2749 88.7247 20.3155 90.6373 19.8032C92.5499 19.291 94.5094 20.4227 95.0216 22.3353Z" fill="#C77CD8"/>
<path d="M79.7582 22.7065C80.2704 24.6191 79.1388 26.5785 77.2262 27.0907C75.3136 27.6029 73.3541 26.4713 72.8419 24.5587C72.3297 22.6461 73.4613 20.6867 75.3739 20.1745C77.2865 19.6622 79.246 20.7939 79.7582 22.7065Z" fill="#C77CD8"/>
<path d="M103.063 41.2282C104.973 40.7167 106.106 38.7538 105.595 36.8439C105.083 34.934 103.12 33.8004 101.211 34.3119C99.3007 34.8234 98.1671 36.7863 98.6786 38.6962C99.1901 40.606 101.153 41.7397 103.063 41.2282Z" fill="#C77CD8"/>
<path d="M72.0531 47.2037C72.5653 49.1163 71.4337 51.0757 69.5211 51.5879C67.6085 52.1001 65.649 50.9685 65.1368 49.0559C64.6246 47.1433 65.7562 45.1839 67.6688 44.6717C69.5814 44.1594 71.5409 45.2911 72.0531 47.2037Z" fill="#C77CD8"/>
<path d="M82.4588 39.3235C82.9711 41.2361 81.8394 43.1956 79.9268 43.7078C78.0142 44.22 76.0548 43.0884 75.5426 41.1758C75.0304 39.2632 76.162 37.3037 78.0746 36.7915C79.9872 36.2793 81.9466 37.4109 82.4588 39.3235Z" fill="#C77CD8"/>
<path d="M94.3348 53.4004C94.847 55.313 93.7154 57.2725 91.8028 57.7847C89.8902 58.2969 87.9308 57.1653 87.4186 55.2527C86.9063 53.3401 88.038 51.3806 89.9506 50.8684C91.8632 50.3562 93.8226 51.4878 94.3348 53.4004Z" fill="#C77CD8"/>
<path d="M68.4825 66.9599C68.9947 68.8725 67.8631 70.8319 65.9505 71.3441C64.0379 71.8564 62.0785 70.7247 61.5663 68.8121C61.054 66.8995 62.1857 64.9401 64.0983 64.4279C66.0109 63.9157 67.9703 65.0473 68.4825 66.9599Z" fill="#C77CD8"/>
<path d="M77.0113 86.5917C77.5236 88.5043 76.3919 90.4638 74.4793 90.976C72.5667 91.4882 70.6073 90.3566 70.0951 88.444C69.5829 86.5314 70.7145 84.5719 72.6271 84.0597C74.5397 83.5475 76.4991 84.6791 77.0113 86.5917Z" fill="#C77CD8"/>
<path d="M95.2503 77.3073C95.7626 79.2199 94.6309 81.1793 92.7183 81.6916C90.8057 82.2038 88.8463 81.0722 88.3341 79.1596C87.8219 77.247 88.9535 75.2875 90.8661 74.7753C92.7787 74.2631 94.7381 75.3947 95.2503 77.3073Z" fill="#C77CD8"/>
<path d="M47.943 61.0833C48.4552 62.9959 47.3236 64.9553 45.411 65.4676C43.4984 65.9798 41.5389 64.8481 41.0267 62.9355C40.5145 61.0229 41.6461 59.0635 43.5587 58.5513C45.4713 58.0391 47.4308 59.1707 47.943 61.0833Z" fill="#C77CD8"/>
<path d="M26.4857 71.5711C26.9979 73.4837 25.8663 75.4431 23.9537 75.9554C22.0411 76.4676 20.0817 75.3359 19.5694 73.4233C19.0572 71.5107 20.1888 69.5513 22.1014 69.0391C24.014 68.5269 25.9735 69.6585 26.4857 71.5711Z" fill="#C77CD8"/>
<path d="M53.4195 75.4247C53.9318 77.3373 52.8001 79.2968 50.8875 79.809C48.9749 80.3212 47.0155 79.1896 46.5033 77.277C45.9911 75.3644 47.1227 73.4049 49.0353 72.8927C50.9479 72.3805 52.9073 73.5121 53.4195 75.4247Z" fill="#C77CD8"/>
<path d="M105.56 58.5933C106.072 60.5059 104.941 62.4654 103.028 62.9776C101.116 63.4898 99.1561 62.3582 98.6439 60.4456C98.1317 58.533 99.2633 56.5735 101.176 56.0613C103.089 55.5491 105.048 56.6807 105.56 58.5933Z" fill="#C77CD8"/>
<path d="M158.486 77.6296C158.999 79.5422 157.867 81.5016 155.954 82.0138C154.042 82.526 152.082 81.3944 151.57 79.4818C151.058 77.5692 152.19 75.6098 154.102 75.0976C156.015 74.5853 157.974 75.717 158.486 77.6296Z" fill="#C77CD8"/>
<path d="M148.747 83.1674C149.26 85.08 148.128 87.0395 146.215 87.5517C144.303 88.0639 142.343 86.9323 141.831 85.0197C141.319 83.1071 142.451 81.1476 144.363 80.6354C146.276 80.1232 148.235 81.2548 148.747 83.1674Z" fill="#C77CD8"/>
<path d="M140.787 97.3184C141.299 99.231 140.168 101.19 138.255 101.703C136.343 102.215 134.383 101.083 133.871 99.1707C133.359 97.2581 134.49 95.2986 136.403 94.7864C138.316 94.2742 140.275 95.4058 140.787 97.3184Z" fill="#C77CD8"/>
<path d="M172.398 83.3039C172.91 85.2165 171.778 87.1759 169.866 87.6881C167.953 88.2004 165.994 87.0687 165.482 85.1561C164.969 83.2435 166.101 81.2841 168.014 80.7719C169.926 80.2597 171.886 81.3913 172.398 83.3039Z" fill="#C77CD8"/>
<path d="M172.972 104.041C173.484 105.954 172.353 107.913 170.44 108.426C168.527 108.938 166.568 107.806 166.056 105.894C165.544 103.981 166.675 102.022 168.588 101.509C170.5 100.997 172.46 102.129 172.972 104.041Z" fill="#C77CD8"/>
<path d="M161.376 105.004C161.889 106.916 160.757 108.876 158.844 109.388C156.932 109.9 154.972 108.769 154.46 106.856C153.948 104.943 155.079 102.984 156.992 102.472C158.905 101.96 160.864 103.091 161.376 105.004Z" fill="#C77CD8"/>
<path d="M147.28 107.723C147.792 109.636 146.66 111.595 144.748 112.107C142.835 112.619 140.876 111.488 140.364 109.575C139.851 107.663 140.983 105.703 142.896 105.191C144.808 104.679 146.768 105.81 147.28 107.723Z" fill="#C77CD8"/>
<path d="M154.027 122.635C154.539 124.548 153.408 126.507 151.495 127.019C149.583 127.532 147.623 126.4 147.111 124.487C146.599 122.575 147.73 120.615 149.643 120.103C151.556 119.591 153.515 120.722 154.027 122.635Z" fill="#C77CD8"/>
<path d="M56.9879 51.7559C57.5001 53.6685 56.3685 55.628 54.4559 56.1402C52.5433 56.6524 50.5838 55.5208 50.0716 53.6082C49.5594 51.6956 50.691 49.7361 52.6036 49.2239C54.5162 48.7117 56.4757 49.8433 56.9879 51.7559Z" fill="#C77CD8"/>
<path d="M27.6463 52.7502C28.1586 54.6628 27.0269 56.6222 25.1143 57.1344C23.2017 57.6466 21.2423 56.515 20.7301 54.6024C20.2179 52.6898 21.3495 50.7304 23.2621 50.2182C25.1747 49.7059 27.1341 50.8376 27.6463 52.7502Z" fill="#C77CD8"/>
<path d="M14.3841 66.3542C14.8964 68.2668 13.7647 70.2262 11.8521 70.7384C9.93953 71.2506 7.98009 70.119 7.46787 68.2064C6.95566 66.2938 8.08728 64.3344 9.99988 63.8222C11.9125 63.31 13.8719 64.4416 14.3841 66.3542Z" fill="#C77CD8"/>
<path d="M27.2381 82.4985C27.7504 84.4111 26.6187 86.3705 24.7061 86.8827C22.7935 87.3949 20.8341 86.2633 20.3219 84.3507C19.8097 82.4381 20.9413 80.4787 22.8539 79.9665C24.7665 79.4542 26.7259 80.5859 27.2381 82.4985Z" fill="#C77CD8"/>
<path d="M49.3368 94.0033C49.849 95.9159 48.7174 97.8754 46.8048 98.3876C44.8922 98.8998 42.9327 97.7682 42.4205 95.8556C41.9083 93.943 43.0399 91.9836 44.9525 91.4713C46.8651 90.9591 48.8246 92.0907 49.3368 94.0033Z" fill="#C77CD8"/>
<path d="M125.054 131.926L123.161 128.179C122.922 127.715 100.215 81.6198 132.173 55.4516C139.585 50.4232 142.862 51.181 144.314 52.6971C147.131 55.6386 144.935 63.4835 139.102 71.3504C129.529 84.2354 119.897 106.754 124.215 127.824L125.057 131.936L125.054 131.926ZM139.537 52.9515C137.711 53.4405 135.441 54.5869 132.845 56.3379C107.102 77.4152 117.749 111.915 122.408 123.629C120.047 103.525 129.157 82.8444 138.205 70.6692C144.162 62.645 145.583 55.6183 143.514 53.46C142.712 52.6293 141.343 52.4678 139.537 52.9515Z" fill="#C77CD8"/>
<path d="M123.018 126.643C122.883 126.68 122.746 126.592 122.712 126.466C115.909 99.0533 121.935 80.4616 128.19 69.6866C134.969 58.0053 143.485 52.7328 143.574 52.6779C143.689 52.6057 143.845 52.6467 143.917 52.7619C143.989 52.8772 143.948 53.0331 143.833 53.1054C143.754 53.1576 135.327 58.3753 128.605 69.9586C122.408 80.6453 116.431 99.1101 123.188 126.349C123.224 126.485 123.147 126.619 123.011 126.656L123.018 126.643Z" fill="#C77CD8"/>
<path d="M122.573 123.046C122.573 123.046 122.553 123.051 122.544 123.054C122.406 123.081 122.276 122.981 122.259 122.84C117.735 93.502 130.857 75.391 130.994 75.2092C131.077 75.0938 131.237 75.0718 131.343 75.1573C131.458 75.2403 131.478 75.3904 131.395 75.5058C131.267 75.685 118.269 93.6386 122.757 122.769C122.781 122.897 122.698 123.013 122.573 123.046Z" fill="#C77CD8"/>
<path d="M122.039 122.33C121.914 122.363 121.769 122.288 121.736 122.163C113.357 94.5089 121.637 73.9778 121.716 73.7703C121.765 73.6434 121.914 73.5827 122.041 73.6315C122.168 73.6803 122.229 73.8297 122.18 73.9567C122.099 74.1545 113.884 94.5438 122.214 122.014C122.25 122.149 122.182 122.281 122.049 122.327L122.039 122.33Z" fill="#C77CD8"/>
<path d="M108.706 126.159L105.341 123.644C88.1077 110.785 63.6185 109.952 47.8974 113.137C38.2951 115.087 30.2629 113.739 28.7999 109.939C28.0467 107.977 28.7511 104.693 36.4059 100.148C73.7209 82.3071 105.796 122.446 106.123 122.855L108.716 126.157L108.706 126.159ZM44.9305 98.1545C42.2934 98.8607 39.6244 99.8343 36.9171 101.129C31.5946 104.293 28.9923 107.371 29.8314 109.538C30.9114 112.334 37.8772 114.03 47.6682 112.049C62.5334 109.031 85.1233 109.576 102.318 120.241C94.4667 111.877 71.6296 91.0042 44.9305 98.1545Z" fill="#C77CD8"/>
<path d="M104.661 122.149C104.584 122.17 104.506 122.15 104.442 122.105C82.6429 104.412 63.3884 101.98 51.0694 103.064C37.7379 104.232 29.4546 109.639 29.3755 109.691C29.2602 109.764 29.1069 109.732 29.025 109.619C28.9527 109.504 28.9841 109.351 29.0967 109.269C29.1759 109.217 37.5647 103.74 51.027 102.557C63.4381 101.47 82.8311 103.916 104.76 121.709C104.866 121.794 104.888 121.954 104.793 122.062C104.762 122.102 104.709 122.136 104.661 122.149Z" fill="#C77CD8"/>
<path d="M101.597 120.216C101.529 120.234 101.454 120.223 101.39 120.178C76.9144 103.741 55.1572 107.89 54.9299 107.93C54.7947 107.967 54.6644 107.867 54.6405 107.739C54.6043 107.604 54.6891 107.457 54.8418 107.447C55.0569 107.4 77.0317 103.212 101.674 119.771C101.787 119.844 101.819 120.001 101.745 120.114C101.707 120.166 101.655 120.201 101.606 120.214L101.597 120.216Z" fill="#C77CD8"/>
<path d="M101.169 119.43C101.092 119.451 101.004 119.433 100.937 119.378C79.6005 100.164 57.6689 98.946 57.4505 98.9424C57.3146 98.9374 57.2108 98.8203 57.2158 98.6843C57.2208 98.5484 57.3379 98.4446 57.4738 98.4496C57.6948 98.4629 79.8036 99.6851 101.276 119.018C101.384 119.114 101.384 119.269 101.299 119.375C101.268 119.414 101.222 119.437 101.174 119.449L101.169 119.43Z" fill="#C77CD8"/>
<path d="M139.677 166.117L136.531 163.337C120.4 149.105 96.0694 146.273 80.1375 148.169C70.4056 149.326 62.508 147.321 61.3585 143.415C60.7669 141.4 61.7368 138.179 69.7395 134.276C108.375 119.55 137.072 162.188 137.363 162.617L139.68 166.127L139.677 166.117ZM74.8279 133.793C73.3016 134.202 71.7478 134.701 70.1883 135.295C64.6231 138.017 61.7745 140.871 62.4326 143.097C63.2737 145.967 70.0817 148.233 80.0049 147.056C95.0654 145.269 117.538 147.656 133.807 159.698C126.359 150.325 103.758 126.045 74.8375 133.791L74.8279 133.793Z" fill="#C77CD8"/>
<path d="M135.993 161.793C135.916 161.814 135.819 161.799 135.76 161.732C115.499 142.322 96.5067 138.319 84.1512 138.377C70.7624 138.443 62.0456 143.159 61.9542 143.204C61.8267 143.269 61.6804 143.226 61.6178 143.108C61.5552 142.99 61.5963 142.834 61.7141 142.771C61.8055 142.726 70.6112 137.956 84.121 137.878C96.5783 137.813 115.709 141.831 136.108 161.369C136.206 161.467 136.206 161.622 136.118 161.718C136.085 161.748 136.042 161.78 136.003 161.791L135.993 161.793Z" fill="#C77CD8"/>
<path d="M133.102 159.617C133.025 159.638 132.947 159.617 132.883 159.572C109.842 141.187 87.8102 143.537 87.5899 143.564C87.4495 143.581 87.329 143.479 87.3146 143.348C87.3003 143.218 87.3974 143.078 87.5308 143.073C87.7511 143.045 109.994 140.67 133.194 159.189C133.3 159.274 133.322 159.434 133.236 159.54C133.206 159.579 133.153 159.614 133.105 159.627L133.102 159.617Z" fill="#C77CD8"/>
<path d="M132.749 158.801C132.662 158.824 132.572 158.796 132.503 158.732C112.819 137.843 91.0488 134.832 90.835 134.807C90.6964 134.792 90.5997 134.663 90.6143 134.524C90.629 134.386 90.7584 134.289 90.8969 134.304C91.1108 134.329 113.051 137.357 132.866 158.386C132.964 158.484 132.955 158.642 132.857 158.741C132.824 158.77 132.787 158.79 132.749 158.801Z" fill="#C77CD8"/>
<path d="M137.812 161.627C137.638 161.674 137.441 161.633 137.293 161.507C137.155 161.378 123.306 148.669 136.942 131.165C157.351 104.974 155.067 81.0195 155.046 80.787C155.017 80.4842 155.233 80.209 155.543 80.1674C155.845 80.1381 156.121 80.3542 156.162 80.664C156.186 80.9062 158.54 105.277 137.829 131.849C124.832 148.529 137.906 160.546 138.041 160.665C138.273 160.872 138.295 161.228 138.086 161.45C138.014 161.532 137.916 161.589 137.81 161.617L137.812 161.627Z" fill="#C77CD8"/>
<path d="M151.788 106.195C151.556 106.257 151.314 106.166 151.175 105.955C143.923 94.8015 144.576 85.2576 144.603 84.8569C144.625 84.5509 144.895 84.3233 145.201 84.3448C145.507 84.3664 145.735 84.6367 145.713 84.9427C145.708 85.0374 145.073 94.5349 152.099 105.345C152.27 105.6 152.199 105.95 151.932 106.115C151.879 106.149 151.824 106.175 151.776 106.188L151.788 106.195Z" fill="#C77CD8"/>
<path d="M143.268 123.86C143.065 123.914 142.841 123.85 142.692 123.683C135.416 115.031 135.628 103.027 136.322 99.1248C136.547 97.8743 136.776 97.6473 136.982 97.5298C137.251 97.3749 137.588 97.4712 137.743 97.7403C137.875 97.9637 137.826 98.2459 137.645 98.4187C136.956 99.7522 135.592 113.524 143.534 122.961C143.732 123.197 143.702 123.547 143.465 123.745C143.398 123.805 143.323 123.835 143.246 123.856L143.268 123.86Z" fill="#C77CD8"/>
<path d="M154.097 98.1951C154.01 98.2184 153.918 98.2223 153.828 98.1947C153.528 98.1197 153.337 97.8294 153.409 97.5201C153.481 97.2108 153.628 97.1405 154.557 96.7053C157.371 95.3824 165.927 91.3415 167.947 84.1956C168.032 83.8934 168.339 83.7282 168.642 83.8129C168.944 83.8976 169.109 84.2054 169.024 84.5076C166.864 92.136 157.959 96.3429 155.038 97.7258C154.698 97.8891 154.467 97.9924 154.349 98.055C154.285 98.124 154.194 98.1692 154.107 98.1925L154.097 98.1951Z" fill="#C77CD8"/>
<path d="M153.603 116.102C149.652 117.161 147.247 116.8 147.05 116.76C146.746 116.707 146.544 116.419 146.588 116.118C146.641 115.814 146.926 115.603 147.23 115.656C147.328 115.671 156.56 117.018 169.087 105.692C169.311 105.487 169.668 105.506 169.873 105.73C170.079 105.955 170.06 106.312 169.836 106.517C163.286 112.443 157.628 115.014 153.591 116.095L153.603 116.102Z" fill="#C77CD8"/>
</g>
<defs>
<clipPath id="clip0_74_877">
<rect width="155.42" height="159.93" fill="white" transform="translate(0 40.3604) rotate(-14.9926)"/>
</clipPath>
</defs>
</svg>
