<svg width="118" height="84" viewBox="0 0 118 84" fill="none" xmlns="http://www.w3.org/2000/svg">
<path d="M72.9113 7.77646C76.5648 7.06699 80.286 7.40483 83.5535 9.37883C91.1261 13.9446 90.4504 24.3648 89.4851 31.9712C97.3135 29.1429 107.632 26.5318 113.274 34.6064C115.055 37.1547 116.04 40.1808 116.687 43.2263C118.516 51.8462 117.107 62.4353 108.39 66.7453C100.402 70.6981 90.1511 67.3148 84.0988 61.3687C86.6713 63.8977 81.1692 73.2899 79.6489 75.259C76.4731 79.3856 71.9074 82.8124 66.7045 83.7342C53.152 86.1329 48.4849 71.7889 46.6557 61.2915C46.8488 65.7269 44.2811 69.9645 40.7482 72.6431C34.7393 77.1993 24.7922 79.2457 17.5719 76.9386C10.2165 74.593 6.99242 67.1459 9.66142 60.0656C10.3468 58.2509 15.9502 48.5498 17.6684 48.796C11.5292 47.9224 5.95475 45.7312 2.56662 40.1567C-0.860113 34.5195 -1.20761 26.1409 3.69117 21.3676C11.1045 14.1473 24.6474 18.742 31.4284 24.5771C25.0769 14.3934 33.3928 -0.457357 45.4443 0.0108029C50.0245 0.189379 54.18 2.6074 57.1772 5.9907C59.3974 8.4956 61.714 12.8924 61.7237 12.9069C61.3279 12.154 70.7925 8.27841 71.8688 8.00813C72.2163 7.92126 72.5638 7.84403 72.9161 7.77646H72.9113Z" fill="#F5F8FA"/>
<path d="M3.696 21.3676C6.64975 18.4911 10.5784 17.492 14.6616 17.6996C14.232 21.0974 15.0621 24.7606 16.8045 27.6275C19.7872 32.5407 24.7005 34.4713 30.1108 35.2387C28.5953 35.0215 23.6579 43.569 23.0546 45.1666C20.7042 51.4023 23.5421 57.9662 30.024 60.0318C36.3851 62.0638 45.1499 60.2587 50.4444 56.248C53.5574 53.8879 55.821 50.1522 55.6473 46.2477C57.2545 55.4999 61.3665 68.1354 73.307 66.0214C77.8921 65.2106 81.9125 62.1892 84.7118 58.555C86.0487 56.8175 90.8992 48.545 88.6308 46.3152C93.9591 51.5567 102.994 54.5394 110.031 51.0548C113.405 49.3848 115.533 46.6434 116.725 43.4532C118.482 52.0297 117.024 62.474 108.39 66.7502C100.402 70.703 90.1511 67.3197 84.0988 61.3736C86.6713 63.9026 81.1692 73.2948 79.6489 75.2639C76.4731 79.3905 71.9074 82.8172 66.7045 83.7391C53.152 86.1378 48.4849 71.7938 46.6557 61.2964C46.8488 65.7318 44.2811 69.9694 40.7482 72.648C34.7393 77.2041 24.7922 79.2505 17.5719 76.9435C10.2165 74.5979 6.99242 67.1508 9.66142 60.0705C10.3468 58.2557 15.9502 48.5547 17.6684 48.8008C11.5292 47.9273 5.95475 45.7361 2.56662 40.1616C-0.860113 34.5244 -1.20761 26.1458 3.69117 21.3725L3.696 21.3676Z" fill="#E8EBED"/>
<path d="M55.1453 49.3848C60.3288 50.8809 63.9004 46.9667 65.0683 44.6887C65.2807 44.2688 65.1166 43.7572 64.6967 43.5448C64.2768 43.3373 63.7652 43.4966 63.548 43.9116C63.437 44.1288 60.7342 49.2255 55.6134 47.7486C50.4733 46.2669 50.3768 42.6616 50.3768 42.5072C50.372 42.039 49.9859 41.6674 49.5225 41.6577C49.0544 41.6577 48.6731 42.0342 48.6731 42.5023C48.6731 42.705 48.7214 47.5314 55.1405 49.3848H55.1453Z" fill="#FCA96A"/>
<path d="M50.71 35.1034C50.4832 34.9538 50.184 34.9152 49.9137 35.0262C46.207 36.5562 42.5052 31.7394 42.4666 31.6912C42.1866 31.3147 41.6509 31.2423 41.2744 31.5271C40.898 31.8118 40.8256 32.3427 41.1055 32.7192C41.2889 32.9605 45.6327 38.6363 50.5652 36.5996C50.9996 36.421 51.2071 35.9239 51.0286 35.4895C50.961 35.3254 50.85 35.1951 50.7149 35.1034H50.71Z" fill="#454233"/>
<path d="M42.9443 32.2896C42.7995 32.1931 42.6209 32.14 42.4327 32.1497C40.5214 32.2414 38.4702 33.7038 38.3833 33.7665C38.002 34.0416 37.9152 34.5725 38.1903 34.9538C38.4654 35.3303 38.9963 35.422 39.3776 35.1469C39.8554 34.8042 41.3467 33.9065 42.5099 33.8486C42.978 33.8244 43.3449 33.4287 43.3207 32.9557C43.3062 32.6709 43.1566 32.4296 42.9394 32.2848L42.9443 32.2896Z" fill="#454233"/>
<path d="M44.9471 34.0513C44.783 33.9403 44.5803 33.8872 44.3727 33.9161C42.7318 34.1188 40.7964 36.1507 40.4247 36.5562C40.1062 36.9037 40.1303 37.4442 40.4778 37.7628C40.8253 38.0765 41.3659 38.0572 41.6796 37.7097C42.4277 36.894 43.8225 35.7019 44.5803 35.6102C45.0484 35.5523 45.3814 35.1276 45.3235 34.6594C45.2897 34.4036 45.1498 34.1864 44.9471 34.0513Z" fill="#454233"/>
<path d="M73.8717 37.9897C73.6787 37.9269 73.4615 37.9318 73.2636 38.0186C73.2057 38.0428 67.6264 40.4318 65.136 37.2899C64.8464 36.9182 64.3106 36.8555 63.939 37.1499C63.5722 37.4395 63.5046 37.98 63.799 38.3468C67.1099 42.5361 73.669 39.7079 73.9489 39.5824C74.3785 39.3942 74.5764 38.8922 74.3833 38.4627C74.282 38.231 74.0937 38.0669 73.8717 37.9945V37.9897Z" fill="#454233"/>
<path d="M72.8823 38.3515C72.5203 38.2309 72.1052 38.3709 71.8929 38.7087C71.6419 39.1093 71.7625 39.6354 72.1631 39.8815C73.1525 40.4993 74.0116 42.0148 74.2626 42.5457C74.4605 42.9704 74.9673 43.1586 75.3968 42.9559C75.8215 42.758 76.0049 42.2513 75.8071 41.8265C75.7636 41.73 74.6873 39.452 73.0657 38.4384C73.0078 38.3998 72.945 38.3709 72.8823 38.3515Z" fill="#454233"/>
<path d="M70.2761 38.9067C69.9334 38.7957 69.5473 38.9067 69.3205 39.2108C69.0405 39.5921 69.1226 40.123 69.5039 40.4029C70.1168 40.8518 70.7539 42.5748 71.0097 43.6511C71.1159 44.1096 71.5744 44.3943 72.0329 44.2833C72.4914 44.1771 72.7762 43.7186 72.6652 43.2601C72.5397 42.7244 71.8447 40.0071 70.5126 39.0274C70.4354 38.9743 70.3582 38.9308 70.2761 38.9067Z" fill="#454233"/>
<g style="mix-blend-mode:screen">
<path d="M81.7967 19.3502C80.5273 17.5548 78.6547 16.2951 76.6276 15.4987C75.0832 14.8906 71.9895 13.7033 70.4643 14.7555C68.5434 16.0779 68.0608 21.5414 69.9527 22.9748C71.0676 23.8194 72.39 23.9304 73.2588 25.1225C73.7752 25.8272 74.1324 26.6332 74.6633 27.3234C76.2608 29.4084 81.7339 30.2723 83.095 27.4682C84.2581 25.0646 83.2349 21.3917 81.7918 19.3502H81.7967Z" fill="#F5F8FA"/>
</g>
</svg>
