<svg width="40" height="40" viewBox="0 0 40 40" fill="none" xmlns="http://www.w3.org/2000/svg">
<g clip-path="url(#clip0_74_998)">
<path d="M0.179844 13.4601C0.179844 13.4601 0.335201 10.6013 5.69906 10.2935C11.0629 9.98576 12.6655 10.5446 13.7448 8.73854C14.8242 6.93251 17.0564 -0.461701 21.8152 0.0242276C26.574 0.510156 26.435 8.12303 28.3401 10.6499C30.2453 13.1767 38.3973 10.1477 39.8528 14.2052C41.3082 18.2627 31.7252 22.3769 31.5372 25.7217C31.3409 29.0665 36.9256 34.6547 33.0171 37.7404C29.1087 40.826 23.6958 33.4237 20.6296 33.7962C17.5633 34.1688 11.5208 43.1828 8.19293 38.7932C4.86504 34.4037 10.7767 26.3372 7.79227 22.5389C4.80781 18.7406 -1.07935 17.9712 0.196198 13.4682L0.179844 13.4601Z" fill="#F5F8FA"/>
<path d="M8.16846 38.8014C4.84058 34.4118 10.7523 26.3454 7.76781 22.5471C4.78334 18.7406 -1.10382 17.9794 0.17173 13.4764C0.17173 13.4764 0.318909 11.1116 4.39904 10.4556C6.06707 12.1401 9.10059 13.3306 10.9812 15.7279C13.9657 19.5343 8.06216 27.6007 11.3819 31.9822C14.7097 36.3717 20.7523 27.3578 23.8185 26.9852C26.2388 26.6856 30.1145 31.229 33.565 31.6501C34.4972 33.9178 35.0041 36.1693 32.9845 37.7566C29.0679 40.8423 23.6631 33.44 20.5969 33.8125C17.5307 34.1851 11.4882 43.199 8.16028 38.8095L8.16846 38.8014Z" fill="#E8EBED"/>
</g>
<defs>
<clipPath id="clip0_74_998">
<rect width="40" height="40" fill="white" transform="matrix(-1 0 0 1 40 0)"/>
</clipPath>
</defs>
</svg>
