<svg width="22" height="22" viewBox="0 0 22 22" fill="none" xmlns="http://www.w3.org/2000/svg">
<path d="M5.85807 18.0356L6.6432 18.4934C7.95484 19.2583 9.44552 19.6667 11.0011 19.6667C15.7876 19.6667 19.6677 15.7865 19.6677 11C19.6677 6.21355 15.7876 2.33335 11.0011 2.33335C6.21459 2.33335 2.33439 6.21355 2.33439 11C2.33439 12.556 2.74306 14.0472 3.50838 15.3591L3.96596 16.1435L3.25801 18.7452L5.85807 18.0356ZM0.172253 21.8334L1.63688 16.4508C0.702848 14.8498 0.167725 12.9874 0.167725 11C0.167725 5.01693 5.01797 0.166687 11.0011 0.166687C16.9841 0.166687 21.8344 5.01693 21.8344 11C21.8344 16.9831 16.9841 21.8334 11.0011 21.8334C9.01435 21.8334 7.15255 21.2986 5.55176 20.3651L0.172253 21.8334ZM7.09168 5.91738C7.23671 5.90718 7.38224 5.90562 7.52747 5.91271C7.58614 5.91656 7.64453 5.92335 7.70297 5.9301C7.8755 5.95002 8.06523 6.05509 8.12901 6.1997C8.45219 6.93249 8.76577 7.66947 9.06971 8.41045C9.13677 8.57403 9.09636 8.78604 8.96875 8.99119C8.90396 9.09639 8.80222 9.24394 8.68435 9.39484C8.56184 9.5516 8.29815 9.83988 8.29815 9.83988C8.29815 9.83988 8.19133 9.96793 8.23159 10.1273C8.24728 10.1875 8.29731 10.2753 8.34267 10.349C8.36779 10.3899 8.39111 10.4264 8.40625 10.4516C8.68349 10.9145 9.05617 11.3838 9.51139 11.8251C9.64182 11.9515 9.76836 12.0805 9.90442 12.2004C10.4117 12.6477 10.9857 13.0132 11.6056 13.2839L11.6111 13.2864C11.7026 13.3258 11.7497 13.3474 11.8837 13.4043C11.9513 13.4329 12.0204 13.4576 12.0913 13.4763C12.117 13.483 12.1433 13.4868 12.1698 13.4887C12.345 13.4992 12.4462 13.3868 12.4895 13.3351C13.2733 12.3856 13.345 12.3236 13.3504 12.3241V12.3258C13.4534 12.2173 13.6154 12.1796 13.7599 12.1884C13.8259 12.1924 13.8915 12.2051 13.9515 12.2325C14.5277 12.4953 15.4696 12.9053 15.4696 12.9053L16.0996 13.1885C16.2051 13.2394 16.3014 13.3593 16.3061 13.4759C16.3089 13.5483 16.3167 13.6653 16.2908 13.8794C16.2569 14.1597 16.1716 14.4971 16.0869 14.6739C16.0273 14.798 15.9502 14.908 15.8605 15.0012C15.7388 15.1275 15.6485 15.2042 15.5022 15.3132C15.4132 15.3795 15.367 15.4107 15.367 15.4107C15.2165 15.5056 15.1317 15.5531 14.9524 15.6485C14.6736 15.797 14.3655 15.8824 14.0499 15.8986C13.8487 15.9089 13.6481 15.9234 13.4471 15.9126C13.4383 15.9121 12.8316 15.8189 12.8316 15.8189C11.2912 15.4137 9.86661 14.6548 8.6712 13.6022C8.42679 13.387 8.20012 13.1542 7.96877 12.9239C7.00562 11.9651 6.27647 10.9311 5.83433 9.95309C5.6163 9.47079 5.47824 8.95425 5.47606 8.42275C5.47206 7.76524 5.68732 7.12515 6.08783 6.6037C6.16678 6.5009 6.24171 6.39428 6.37101 6.2722C6.50793 6.14291 6.59508 6.0735 6.68895 6.02547C6.81407 5.96146 6.9515 5.92722 7.09168 5.91738Z" fill="white"/>
</svg>
