<svg width="57" height="74" viewBox="0 0 57 74" fill="none" xmlns="http://www.w3.org/2000/svg">
<g opacity="0.6">
<path d="M18.5863 34.7819C6.22091 47.7815 7.76758 60.4544 31.0656 65.0549C56.2316 70.0246 67.7337 49.2907 60.3342 47.6896C70.4128 37.4871 59.9335 39.0926 59.9335 39.0926C66.6174 25.4756 59.1085 24.0653 53.8722 31.2592C48.6359 38.453 40.8377 42.1514 34.578 36.0811C39.9016 34.3125 42.1459 27.7377 41.5621 22.3827C40.9783 17.0277 36.9048 11.3464 26.8852 11.7952C14.8866 12.3323 10.1642 26.2891 18.5863 34.7819Z" fill="#C796D2"/>
<path d="M16.5183 19.1838C16.4379 18.8602 16.0253 18.7541 15.7757 18.9762C14.4693 20.1382 12.1523 20.422 10.8103 18.9035C9.2996 17.1949 7.2718 19.1384 8.92818 23.2062C10.2171 26.3727 13.8909 28.0251 15.4562 28.6018C15.7834 28.7224 16.1019 28.4471 16.0693 28.0999C15.7923 25.1346 17.0075 21.1511 16.5183 19.1838Z" fill="#F2B5FF"/>
<path d="M21.9341 20.0461C21.7933 19.2801 21.0581 18.7732 20.292 18.914C19.5259 19.0548 19.0191 19.7899 19.1599 20.556C19.3007 21.3221 20.0358 21.829 20.8019 21.6882C21.568 21.5474 22.0749 20.8122 21.9341 20.0461Z" fill="#855D8E"/>
<path d="M30.4047 11.3012C30.4047 11.3012 34.6569 8.02924 32.6456 7.36093C30.6343 6.69263 28.4616 10.7906 28.4616 10.7906C28.4616 10.7906 29.182 8.67475 28.2699 8.73062C27.3579 8.78699 26.9779 12.5088 26.9779 12.5088L31.0263 12.5684C31.0263 12.5684 33.3302 11.3277 32.7303 10.7701C32.1299 10.2127 30.4047 11.3012 30.4047 11.3012Z" fill="#C796D2"/>
<path d="M9.84692 22.5801C10.7966 24.757 12.9191 26.3793 15.2692 26.7237" stroke="#855D8E" stroke-width="2" stroke-miterlimit="10" stroke-linecap="round"/>
<path d="M20.5654 45.8039C14.962 54.2584 41.7133 68.0259 42.7052 58.6208C50.6892 58.0211 47.2279 51.8464 47.2279 51.8464C56.2081 45.2584 51.3353 40.6982 47.9878 41.9024C38.519 45.3082 25.0302 39.0675 20.5654 45.8039Z" fill="#F2B5FF"/>
<path d="M42.4645 44.8087C47.7089 45.5982 42.9712 49.2064 41.0124 50.1471C45.6481 51.8219 41.0788 54.7829 37.2721 55.2903C39.9749 56.2975 38.9665 58.4411 33.5688 58.0375" stroke="#855D8E" stroke-width="2" stroke-miterlimit="10" stroke-linecap="round" stroke-linejoin="round"/>
<path d="M34.1844 29.6159C34.1646 29.56 34.1433 29.5143 34.0917 29.4801C34.0468 29.45 33.9787 29.4348 33.9253 29.4484C33.8716 29.4626 33.819 29.492 33.7895 29.5411C33.7616 29.5876 33.7391 29.6534 33.7578 29.7075C33.7994 29.826 33.825 29.9485 33.8387 30.0734C33.8462 30.1939 33.8431 30.3141 33.8243 30.4334C33.816 30.4853 33.8459 30.5532 33.8793 30.591C33.9149 30.6309 33.9751 30.6626 34.0298 30.6635C34.086 30.664 34.1456 30.6491 34.1874 30.6086C34.2313 30.5658 34.2503 30.5186 34.2599 30.458C34.3041 30.1792 34.2783 29.8829 34.1844 29.6159Z" fill="#AD75B9"/>
<path d="M34.8113 29.0991C34.765 28.9907 34.6178 28.953 34.5179 29.0041C34.407 29.0605 34.3764 29.1886 34.4229 29.2974C34.6107 29.7373 34.7061 30.2233 34.7022 30.697C34.7012 30.815 34.7857 30.9202 34.9077 30.9271C35.0212 30.9338 35.137 30.8402 35.1378 30.7217C35.1424 30.162 35.0309 29.6134 34.8113 29.0991Z" fill="#AD75B9"/>
<path d="M35.56 28.6746C35.5007 28.5732 35.3755 28.5237 35.2665 28.5796C35.1662 28.6308 35.1121 28.7706 35.1716 28.873C35.4843 29.4075 35.6315 30.0174 35.5909 30.6358C35.5725 30.9161 36.0081 30.9408 36.026 30.6606C36.0719 29.9703 35.9093 29.2718 35.56 28.6746Z" fill="#AD75B9"/>
<path d="M18.6647 37.7373C18.5814 37.6517 18.4487 37.64 18.3572 37.7201C17.9837 38.0457 17.7468 38.4913 17.6646 38.978C17.6456 39.0907 17.7613 39.2068 17.8701 39.2081C17.9993 39.2098 18.0797 39.1235 18.1002 39.0027C18.1016 38.994 18.1031 38.9859 18.1045 38.9772C18.1049 38.9749 18.1046 38.9756 18.1065 38.969C18.1126 38.942 18.1191 38.9148 18.1258 38.8881C18.1386 38.8404 18.1532 38.7934 18.1696 38.7469C18.1869 38.6974 18.2066 38.6488 18.2281 38.6009C18.2329 38.5907 18.2377 38.5805 18.2424 38.5704C18.2432 38.5691 18.2428 38.5697 18.2435 38.5684C18.2563 38.5438 18.2691 38.5193 18.2831 38.4949C18.3332 38.4064 18.3904 38.3218 18.4541 38.2425C18.4618 38.2326 18.4696 38.2233 18.4778 38.2138C18.4794 38.2117 18.4791 38.2123 18.4803 38.2109C18.4958 38.1938 18.5118 38.1766 18.5279 38.1599C18.5665 38.1197 18.6068 38.0817 18.6488 38.0456C18.7334 37.9702 18.7464 37.8213 18.6647 37.7373Z" fill="#AD75B9"/>
<path d="M19.0695 38.5864C19.0628 38.5938 19.0566 38.6011 19.0499 38.6085C19.0886 38.565 19.1165 38.5218 19.1201 38.4614C19.123 38.4078 19.1028 38.3431 19.0652 38.3038C19.0261 38.2632 18.9732 38.2321 18.9147 38.2313C18.8606 38.2307 18.7952 38.2445 18.7571 38.2862C18.6501 38.4047 18.5659 38.5339 18.5098 38.6841C18.4602 38.8166 18.4344 38.9631 18.4381 39.1051C18.4395 39.1641 18.4526 39.2176 18.493 39.2627C18.5286 39.3026 18.5888 39.3344 18.6435 39.3352C18.7535 39.3368 18.8767 39.2521 18.8737 39.1298C18.8721 39.0724 18.8786 39.0161 18.8868 38.9599C18.9014 38.8935 18.9227 38.8297 18.9501 38.7674C18.984 38.7033 19.0219 38.6413 19.0695 38.5864Z" fill="#AD75B9"/>
<path d="M19.7838 38.7071C19.7765 38.6795 19.763 38.6553 19.7428 38.6347C19.7243 38.6125 19.7019 38.5957 19.6754 38.5857C19.6501 38.5704 19.6227 38.5628 19.5927 38.562C19.5363 38.5611 19.4769 38.5764 19.4351 38.617C19.3938 38.6573 19.366 38.7082 19.3626 38.7675L19.3482 39.0175C19.3452 39.0475 19.35 39.0759 19.362 39.1027C19.3694 39.1303 19.3829 39.1545 19.4031 39.1751C19.4215 39.1974 19.4439 39.2141 19.4704 39.2241C19.4957 39.2394 19.5232 39.247 19.5531 39.2478C19.6094 39.2482 19.669 39.2334 19.7107 39.1929C19.752 39.1525 19.7799 39.1016 19.7833 39.0423L19.7977 38.7923C19.8007 38.7623 19.7959 38.734 19.7838 38.7071Z" fill="#AD75B9"/>
<path d="M22.0092 54.7676C21.314 54.1151 20.7629 53.3317 20.3846 52.4561C20.2736 52.1985 19.8854 52.3974 19.9962 52.6545C20.3868 53.5596 20.9647 54.3832 21.6834 55.0581C21.7692 55.1387 21.8981 55.1586 21.9909 55.0754C22.074 55.0021 22.0956 54.8485 22.0092 54.7676Z" fill="#AD75B9"/>
<path d="M20.5332 54.5666C20.3091 54.2059 20.0844 53.8448 19.8603 53.4841C19.8003 53.3874 19.6754 53.3278 19.567 53.3891C19.4713 53.4434 19.4077 53.5787 19.472 53.6825C19.696 54.0432 19.9207 54.4043 20.1448 54.765C20.2049 54.8617 20.3297 54.9212 20.4382 54.86C20.5343 54.8056 20.5978 54.6697 20.5332 54.5666Z" fill="#AD75B9"/>
<path d="M19.7942 54.5838C19.7431 54.4972 19.6926 54.411 19.6415 54.3244C19.629 54.2982 19.6119 54.2767 19.589 54.2601C19.5689 54.24 19.545 54.2254 19.5172 54.2168C19.4889 54.2062 19.46 54.2034 19.4305 54.208C19.4013 54.2076 19.3741 54.2148 19.3481 54.2294C19.2998 54.2569 19.2563 54.2991 19.2405 54.3536C19.2247 54.4082 19.2231 54.4719 19.2531 54.5228C19.3042 54.6094 19.3547 54.6956 19.4058 54.7823C19.4183 54.8084 19.4354 54.8299 19.4583 54.8465C19.4784 54.8666 19.5023 54.8812 19.5301 54.8898C19.5584 54.9004 19.5873 54.9032 19.6168 54.8986C19.646 54.899 19.6732 54.8919 19.6992 54.8773C19.7475 54.8497 19.791 54.8076 19.8068 54.753C19.8226 54.6984 19.824 54.6342 19.7942 54.5838Z" fill="#AD75B9"/>
<path d="M19.213 54.9366C19.2045 54.8994 19.1879 54.8662 19.1625 54.8371C19.1452 54.8129 19.1279 54.7892 19.1101 54.7652C19.0916 54.7429 19.0692 54.7262 19.0427 54.7162C19.0176 54.7013 18.99 54.6933 18.96 54.6925C18.93 54.6895 18.9017 54.6943 18.8749 54.7063C18.8473 54.7137 18.8231 54.7272 18.8024 54.7474C18.7904 54.7613 18.7779 54.7753 18.7661 54.7897C18.7446 54.8222 18.7325 54.8587 18.7304 54.8978C18.7321 54.9171 18.7332 54.9366 18.7349 54.9559C18.7433 54.9931 18.76 55.0263 18.7853 55.0554C18.8027 55.0796 18.8204 55.1031 18.8378 55.1273C18.8562 55.1496 18.8786 55.1663 18.9051 55.1763C18.9304 55.1917 18.9579 55.1992 18.9878 55.2C19.0178 55.203 19.0462 55.1982 19.073 55.1861C19.1006 55.1788 19.1248 55.1653 19.1454 55.1451C19.1574 55.1312 19.1699 55.1172 19.1818 55.1028C19.2033 55.0703 19.2154 55.0338 19.218 54.9946C19.2158 54.9754 19.2141 54.956 19.213 54.9366Z" fill="#AD75B9"/>
<path d="M26.5415 13.2098C25.7332 13.2519 24.9377 13.396 24.1703 13.6526C24.0589 13.6899 23.9767 13.7877 24.0033 13.9116C24.0257 14.0168 24.1503 14.1161 24.2623 14.0786C24.9905 13.8354 25.7497 13.6851 26.5172 13.6447C26.6348 13.6386 26.7401 13.5662 26.7473 13.4392C26.753 13.332 26.6596 13.2035 26.5415 13.2098Z" fill="#AD75B9"/>
<path d="M25.3209 14.2576C25.0031 14.2697 24.6968 14.3396 24.4071 14.4713C24.3029 14.5186 24.2556 14.6653 24.3121 14.7647C24.3727 14.8711 24.4944 14.9101 24.6055 14.8597C24.6357 14.8461 24.6664 14.8324 24.6976 14.8201C24.7148 14.813 24.7328 14.8068 24.7501 14.7997C24.7511 14.7994 24.7501 14.7997 24.7516 14.7992C24.8151 14.7789 24.8787 14.7591 24.9442 14.7437C25.0092 14.7284 25.0749 14.7157 25.1411 14.7067C25.1739 14.7023 25.207 14.6989 25.2397 14.6956C25.2586 14.6946 25.2776 14.6936 25.2966 14.6925C25.3559 14.6904 25.4085 14.6782 25.4542 14.6376C25.4941 14.602 25.5258 14.5418 25.5267 14.4871C25.5276 14.3784 25.4433 14.2529 25.3209 14.2576Z" fill="#AD75B9"/>
<path d="M25.2985 15.4155C25.2843 15.3618 25.255 15.3091 25.2058 15.2797C25.1546 15.2487 25.0985 15.2372 25.0395 15.248C24.9486 15.2651 24.8583 15.2821 24.7673 15.2988C24.7385 15.3037 24.7132 15.3153 24.691 15.3338C24.6664 15.348 24.6466 15.3673 24.6315 15.3915C24.6142 15.4157 24.6042 15.4422 24.6009 15.4712C24.5926 15.4999 24.5926 15.5286 24.6 15.5584C24.6142 15.6121 24.6435 15.6647 24.6927 15.6942C24.7439 15.7252 24.8 15.7367 24.8591 15.7259L25.1312 15.6751C25.16 15.6702 25.1853 15.6586 25.2076 15.6401C25.2321 15.6259 25.252 15.607 25.267 15.5824C25.2843 15.5582 25.2943 15.5317 25.2976 15.5027C25.3054 15.4741 25.3058 15.4448 25.2985 15.4155Z" fill="#AD75B9"/>
<path d="M38.0079 18.1653C37.9138 18.0206 37.8196 17.8758 37.7261 17.7314C37.7137 17.7053 37.6965 17.6838 37.6736 17.6672C37.6534 17.6466 37.6296 17.6325 37.6019 17.6239C37.5507 17.6066 37.4809 17.6089 37.4327 17.6364C37.3844 17.664 37.3409 17.7061 37.3252 17.7607C37.31 17.8134 37.3062 17.8811 37.3377 17.9298C37.4319 18.0746 37.526 18.2193 37.6195 18.3637C37.6319 18.3899 37.6491 18.4114 37.672 18.428C37.6922 18.4486 37.716 18.4627 37.7438 18.4713C37.7949 18.4886 37.8647 18.4863 37.9129 18.4587C37.9612 18.4312 38.0047 18.3891 38.0205 18.3345C38.036 18.2811 38.0393 18.2136 38.0079 18.1653Z" fill="#AD75B9"/>
<path d="M37.1334 18.3123L37.1082 18.2551C37.0958 18.2289 37.0787 18.2074 37.0558 18.1908C37.0356 18.1702 37.0117 18.1561 36.984 18.1475C36.9556 18.1369 36.9267 18.1336 36.8973 18.1387C36.868 18.1383 36.8409 18.1455 36.8148 18.1601C36.7996 18.1705 36.784 18.181 36.7688 18.1914C36.7404 18.2171 36.7199 18.2477 36.7073 18.2843C36.7034 18.3036 36.7001 18.3227 36.6962 18.3419C36.6942 18.381 36.7021 18.4184 36.7198 18.4535C36.728 18.4726 36.7368 18.4915 36.745 18.5106C36.7574 18.5368 36.7745 18.5583 36.7974 18.5749C36.8176 18.5955 36.8415 18.6096 36.8692 18.6182C36.8976 18.6288 36.9265 18.6321 36.9559 18.627C36.9852 18.6274 37.0123 18.6202 37.0384 18.6056C37.0536 18.5953 37.0693 18.5847 37.0844 18.5743C37.1129 18.5486 37.1333 18.518 37.1459 18.4814C37.1498 18.4622 37.1531 18.443 37.157 18.4238C37.1589 18.3842 37.1516 18.3472 37.1334 18.3123Z" fill="#AD75B9"/>
<path d="M55.8182 55.9146C55.7118 55.8503 55.5894 55.8781 55.516 55.9755C55.2261 56.3609 54.9367 56.7462 54.6467 57.131C54.5781 57.2221 54.6113 57.3749 54.7077 57.4332C54.814 57.4975 54.9365 57.4696 55.0099 57.3722C55.2998 56.9868 55.5892 56.6016 55.8792 56.2167C55.9483 56.1255 55.9146 55.9728 55.8182 55.9146Z" fill="#AD75B9"/>
<path d="M54.7595 56.1826C54.7481 56.1314 54.7126 56.0744 54.6668 56.0468C54.6176 56.0174 54.5573 56.0005 54.5004 56.0151C54.4451 56.0298 54.3976 56.0599 54.3645 56.1078L54.1213 56.4656C54.0894 56.5121 54.0778 56.5775 54.0895 56.632C54.1009 56.6832 54.1364 56.7402 54.1822 56.7678C54.2314 56.7972 54.2918 56.8141 54.3487 56.7995C54.4039 56.7848 54.4514 56.7547 54.4844 56.7068L54.7278 56.349C54.7596 56.3025 54.7712 56.237 54.7595 56.1826Z" fill="#AD75B9"/>
<path d="M54.0444 55.993C54.0335 55.9417 53.9975 55.8848 53.9517 55.8572C53.9025 55.8278 53.8422 55.8109 53.7853 55.8255C53.7331 55.8393 53.6761 55.8688 53.6495 55.9182L53.4834 56.2248C53.4661 56.249 53.4561 56.2755 53.4528 56.3045C53.4445 56.3332 53.4444 56.3619 53.4519 56.3917C53.4632 56.4429 53.4987 56.4999 53.5446 56.5275C53.5937 56.5569 53.6541 56.5738 53.7109 56.5592C53.7631 56.5454 53.8202 56.5159 53.8468 56.4665L54.0128 56.1599C54.0301 56.1357 54.0402 56.1092 54.0434 56.0802C54.0517 56.0515 54.0523 56.0227 54.0444 55.993Z" fill="#AD75B9"/>
<path d="M54.3982 37.2632C54.3803 37.1467 54.2491 37.0726 54.1392 37.0962C54.0184 37.1219 53.9544 37.2387 53.9722 37.3552C54.0584 37.9148 54.0476 38.4933 53.9338 39.0485C53.91 39.1636 53.9493 39.2839 54.0704 39.3247C54.1714 39.3585 54.323 39.3037 54.3466 39.188C54.4774 38.5516 54.4971 37.9061 54.3982 37.2632Z" fill="#AD75B9"/>
<path d="M53.4514 37.9227C53.4158 37.8828 53.3556 37.8511 53.3009 37.8502C53.175 37.8487 53.0872 37.9343 53.0707 38.0557C53.0426 38.2634 53.015 38.471 52.9868 38.6787C52.9799 38.7313 53.0076 38.7977 53.0417 38.8363C53.0773 38.8762 53.1376 38.908 53.1923 38.9089C53.3182 38.9103 53.4059 38.8247 53.4224 38.7034C53.4506 38.4957 53.4782 38.2881 53.5063 38.0803C53.5138 38.0276 53.4861 37.9613 53.4514 37.9227Z" fill="#AD75B9"/>
<path d="M52.702 38.2856C52.6896 38.2594 52.6724 38.2379 52.6496 38.2213C52.6294 38.2007 52.6055 38.1866 52.5778 38.178C52.5585 38.1742 52.5394 38.1708 52.5202 38.167C52.4811 38.1649 52.4437 38.1729 52.4086 38.1906C52.3934 38.201 52.3777 38.2115 52.3626 38.2219C52.3341 38.2476 52.3137 38.2782 52.3011 38.3148C52.2881 38.379 52.275 38.4433 52.2622 38.508C52.2516 38.5364 52.2483 38.5654 52.2534 38.5947C52.2529 38.624 52.2601 38.6511 52.2747 38.6772C52.2871 38.7033 52.3043 38.7248 52.3272 38.7414C52.3472 38.7615 52.3712 38.7762 52.399 38.7847C52.4182 38.7886 52.4373 38.7919 52.4566 38.7958C52.4957 38.7978 52.533 38.7899 52.5681 38.7722C52.5833 38.7618 52.599 38.7512 52.6142 38.7409C52.6426 38.7151 52.663 38.6845 52.6757 38.6479C52.6887 38.5837 52.7017 38.5195 52.7146 38.4547C52.7252 38.4264 52.7284 38.3974 52.7234 38.368C52.7239 38.3393 52.7166 38.3117 52.702 38.2856Z" fill="#AD75B9"/>
<path d="M39.1539 21.7183C39.1983 22.2975 39.115 22.9804 38.6184 23.2817C38.0928 23.6007 37.4179 23.3122 36.8925 22.9924C34.9867 21.8324 33.2743 20.1495 32.6748 18.0003C32.4859 17.3237 32.4414 16.5167 32.9171 16.0001C33.6175 15.2395 35.3687 15.3494 36.1155 15.9976C37.1679 16.9107 38.0437 18.1415 38.5838 19.422C38.8919 20.152 39.0931 20.9275 39.1539 21.7183Z" fill="white"/>
<path d="M36.109 25.2996C36.3649 25.3691 36.6629 25.3994 36.8732 25.2382C37.1549 25.0224 37.1272 24.5847 36.9893 24.2577C36.7561 23.7054 36.291 23.2864 35.7561 23.0316C35.3831 22.8542 34.5006 22.5094 34.1478 22.8709C33.2603 23.7813 35.477 25.1286 36.109 25.2996Z" fill="white"/>
<path d="M25.3936 53.2653C25.9238 53.4649 26.5844 53.5435 27.0021 53.1607C27.2646 52.9202 27.3672 52.5399 27.3378 52.1846C27.3084 51.8294 27.1626 51.4942 26.9929 51.1812C26.4743 50.2246 25.6603 49.3739 24.6144 49.0713C24.061 48.9114 23.4149 48.9298 22.9681 49.2935C22.2277 49.8966 22.7197 50.8547 23.1436 51.4818C23.6889 52.2872 24.4833 52.9229 25.3936 53.2653Z" fill="white"/>
</g>
</svg>
