<svg width="39" height="67" viewBox="0 0 39 67" fill="none" xmlns="http://www.w3.org/2000/svg">
<g opacity="0.6">
<path d="M29.3411 30.8815L13.615 20.2503C13.615 20.2503 -9.00196 42.3362 -9.08859 47.8281C-9.21342 55.7357 8.45029 64.3427 11.7134 62.535C17.7921 59.1681 29.3411 30.8815 29.3411 30.8815Z" fill="#C796D2"/>
<path d="M16.1189 42.4521C12.3232 39.0731 9.82876 34.1599 5.89566 30.9487C0.48087 36.6715 -6.25816 44.3335 -6.30132 47.0638C-6.40536 53.6419 8.28818 60.8008 11.0023 59.2977C13.5323 57.8963 17.2016 51.3053 20.2367 45.0693C18.7853 44.5096 17.3915 43.585 16.1189 42.4521Z" fill="#F2B5FF"/>
<path d="M18.2415 13.6454C17.2806 13.9349 12.3897 20.872 12.3897 20.872C20.0332 28.6814 29.067 32.1463 29.067 32.1463C29.067 32.1463 33.5857 24.9851 33.4595 23.9328C33.3324 22.8802 19.132 13.3768 18.2415 13.6454Z" fill="#AD75B9"/>
<path d="M21.4544 15.6283C23.5515 18.156 30.1337 21.4958 30.1337 21.4958C30.1337 21.4958 27.8252 18.5709 27.945 17.6377C28.1366 16.1455 31.4621 14.6982 32.5628 12.0379C33.6724 9.357 30.3392 6.74269 27.8599 9.61168C26.2502 11.4749 26.5321 14.3945 25.1319 15.9338C24.4519 16.683 21.4544 15.6283 21.4544 15.6283Z" fill="#C796D2"/>
<path d="M18.3628 14.3716C25.3655 21.6515 32.8947 24.1954 32.8947 24.1954" stroke="#855D8E" stroke-width="1.2" stroke-miterlimit="10" stroke-linecap="round"/>
<path d="M17.989 16.0205L14.1502 21.1271" stroke="#855D8E" stroke-width="1.2" stroke-miterlimit="10" stroke-linecap="round"/>
<path d="M20.4472 18.3911L16.913 23.285" stroke="#855D8E" stroke-width="1.2" stroke-miterlimit="10" stroke-linecap="round"/>
<path d="M23.6988 20.589L20.2441 25.7945" stroke="#855D8E" stroke-width="1.2" stroke-miterlimit="10" stroke-linecap="round"/>
<path d="M26.4848 22.5693L23.5634 27.7491" stroke="#855D8E" stroke-width="1.2" stroke-miterlimit="10" stroke-linecap="round"/>
<path d="M29.8338 24.5753L27.2317 29.6161" stroke="#855D8E" stroke-width="1.2" stroke-miterlimit="10" stroke-linecap="round"/>
<path d="M29.4031 31.7812C23.303 28.9308 17.6677 25.089 12.7836 20.4548C12.2028 19.9035 11.2441 20.7149 11.8296 21.2705C16.8901 26.0722 22.6819 30.0168 29.0019 32.9705C29.7314 33.3113 30.1288 32.1204 29.4031 31.7812Z" fill="#855D8E"/>
<path d="M10.7607 27.4161C4.7932 33.0047 -0.571404 39.2637 -5.19562 46.0398C-5.6815 46.7518 -4.64246 47.4554 -4.15624 46.7425C0.403916 40.0609 5.67952 33.8994 11.5635 28.3885C12.1906 27.8017 11.3886 26.8281 10.7607 27.4161Z" fill="white"/>
<path d="M0.0828882 46.7639L-1.42102 45.6197C-1.68275 45.4208 -2.12192 45.5101 -2.29239 45.7881C-2.47843 46.0915 -2.40447 46.4462 -2.12394 46.6595L-0.620051 47.8037C-0.358488 48.003 0.0808718 47.9134 0.251338 47.6353C0.437125 47.3314 0.363002 46.9771 0.0828882 46.7639Z" fill="white"/>
<path d="M3.34493 42.3224C2.85476 41.946 2.36443 41.57 1.87426 41.1935C1.61346 40.9936 1.17299 41.0847 1.00287 41.362C0.816316 41.6666 0.891886 42.0185 1.17132 42.2333C1.66149 42.6098 2.15184 42.9858 2.64201 43.3622C2.90281 43.5622 3.34325 43.471 3.51338 43.1938C3.69993 42.8892 3.62394 42.5371 3.34493 42.3224Z" fill="white"/>
<path d="M6.7363 38.352C6.69524 38.1799 6.60521 38.0659 6.47166 37.9511C6.055 37.5939 5.63792 37.2365 5.22126 36.8793C5.10735 36.7818 4.89166 36.7561 4.75079 36.7831C4.59965 36.8124 4.43165 36.9142 4.34987 37.0478C4.26502 37.1865 4.21481 37.3553 4.25368 37.5182C4.29474 37.6903 4.38477 37.8043 4.51832 37.9191C4.93498 38.2763 5.35205 38.6337 5.76871 38.9909C5.88262 39.0884 6.09831 39.1141 6.23918 39.0871C6.39032 39.0578 6.55831 38.956 6.6401 38.8225C6.72495 38.6838 6.77517 38.5149 6.7363 38.352Z" fill="white"/>
<path d="M9.99034 33.9823C9.95088 33.8173 9.86488 33.6822 9.7257 33.5814C9.42752 33.3654 9.12978 33.1496 8.83161 32.9337C8.70378 32.8414 8.51389 32.8078 8.36114 32.8375C8.21 32.8668 8.04201 32.9686 7.96022 33.1021C7.87537 33.2408 7.82516 33.4097 7.86403 33.5725C7.90349 33.7376 7.98949 33.8727 8.12867 33.9735C8.42684 34.1894 8.7246 34.4053 9.02278 34.6212C9.15061 34.7135 9.34047 34.7471 9.49323 34.7174C9.64437 34.6881 9.81236 34.5863 9.89415 34.4528C9.97883 34.3145 10.0292 34.1452 9.99034 33.9823Z" fill="white"/>
<path d="M13.2935 30.7951C13.2967 30.6428 13.2611 30.4546 13.1443 30.3461C12.8896 30.1102 12.6344 29.8741 12.3797 29.6382C12.3254 29.57 12.2584 29.5199 12.1788 29.4889C12.1076 29.4455 12.0293 29.4224 11.9441 29.4201C11.7934 29.4102 11.6072 29.4643 11.495 29.5693C11.3748 29.682 11.2805 29.8356 11.2767 30.0055C11.2735 30.1578 11.3091 30.3459 11.426 30.4545C11.6807 30.6904 11.9358 30.9265 12.1905 31.1624C12.2448 31.2305 12.3118 31.2806 12.3914 31.3117C12.4626 31.3551 12.5409 31.3782 12.6262 31.3805C12.7768 31.3904 12.963 31.3363 13.0752 31.2312C13.1954 31.1186 13.2899 30.9645 13.2935 30.7951Z" fill="white"/>
</g>
</svg>
