<svg width="35" height="37" viewBox="0 0 35 37" fill="none" xmlns="http://www.w3.org/2000/svg">
<g opacity="0.6">
<path d="M24.5575 17.62C24.1505 17.4996 23.7531 17.5861 23.467 17.8579C23.1495 18.1588 23.0152 18.6458 23.1239 19.098C23.2295 19.5381 23.5426 19.8651 23.9827 19.9955C26.373 20.703 28.2806 22.5271 28.9607 24.757C29.6777 27.1077 28.9624 29.7567 27.18 31.3478C26.0377 32.3675 24.5775 32.968 23.433 33.3772C22.2551 33.7972 20.6988 34.2903 19.1169 34.359C16.6405 34.4664 14.2545 33.2767 12.8904 31.2543C11.3585 28.9831 11.3894 25.7875 12.9652 23.4833C13.2296 23.0968 13.2648 22.6315 13.0609 22.2067C12.8583 21.784 12.453 21.4901 12.0286 21.4579C11.6499 21.4292 11.2985 21.6088 11.0641 21.9514C9.14477 24.7574 8.77864 28.3231 10.1075 31.2565C11.4307 34.1768 14.3006 36.3232 17.4184 36.7254C19.0403 36.9345 20.8305 36.7393 22.8912 36.1284C23.1904 36.0397 23.4783 35.9496 23.7566 35.8575C25.495 35.2817 26.843 34.633 27.9519 33.8424C30.7413 31.8539 32.1211 28.524 31.5527 25.1518C30.9648 21.6601 28.2193 18.7036 24.5575 17.62Z" fill="#AD75B9"/>
<path d="M17.2713 16.6427C17.2713 16.6427 3.69098 13.9424 0.647134 19.7448C-2.39672 25.5473 5.44424 31.6197 21.0683 26.4487C36.6928 21.2776 37.3981 11.5442 31.8244 9.42616C26.6707 7.46722 17.2713 16.6427 17.2713 16.6427Z" fill="#C796D2"/>
<path d="M17.344 17.0269C17.344 17.0269 7.06924 15.5359 4.59198 19.6155C2.11472 23.6951 7.92456 27.6656 19.9708 23.679C32.0171 19.692 32.8189 12.9677 28.6297 11.6602C24.7553 10.4509 17.344 17.0269 17.344 17.0269Z" fill="#AD75B9"/>
<path d="M8.23814 22.4711C17.6584 23.2886 24.7523 18.1927 26.8269 16.4986C27.0474 16.3186 26.9282 15.9616 26.6434 15.9525C25.1993 15.9059 22.2038 15.6907 20.9688 14.7206C17.2018 11.7615 20.5923 6.82743 17.7663 2.306C14.8881 -2.29847 7.08017 0.43795 8.30641 6.57957C9.06998 10.4048 12.0777 10.3252 13.3053 17.0404C13.6279 18.8054 9.91922 20.9605 8.12465 21.8914C7.85201 22.0323 7.93245 22.4446 8.23814 22.4711Z" fill="#C796D2"/>
<path d="M10.4766 5.75508C9.80523 5.97728 10.1496 7.02089 10.8219 6.79825C11.4928 6.57605 11.1489 5.53244 10.4766 5.75508Z" fill="#AD75B9"/>
<path d="M10.4568 3.67305C9.78546 3.89525 10.1298 4.93885 10.8021 4.71622C11.4735 4.49402 11.1291 3.45041 10.4568 3.67305Z" fill="#AD75B9"/>
<path d="M11.9092 4.84712C11.2379 5.06932 11.5822 6.11293 12.2545 5.89029C12.9259 5.66809 12.5815 4.62448 11.9092 4.84712Z" fill="#AD75B9"/>
<path d="M19.5001 16.5582C18.8287 16.7804 19.1731 17.824 19.8453 17.6014C20.5163 17.3792 20.1723 16.336 19.5001 16.5582Z" fill="white"/>
<path d="M17.5626 16.2145C16.8912 16.4367 17.2356 17.4803 17.9078 17.2576C18.5792 17.0354 18.2352 15.9922 17.5626 16.2145Z" fill="white"/>
<path d="M16.2801 2.27137C15.7696 1.73478 14.7825 0.982078 13.9798 1.17906C13.6363 1.26342 13.2758 1.5678 13.0497 1.82914C12.694 2.24049 12.8531 2.65358 13.1488 3.05102C13.8945 4.05245 14.7503 4.9717 15.6956 5.78701C16.0435 6.08705 16.4814 6.391 16.9249 6.27055C17.2558 6.18054 17.488 5.8618 17.5611 5.52655C17.6341 5.19129 17.5741 4.84168 17.4863 4.5099C17.2676 3.68197 16.8706 2.89188 16.2801 2.27137Z" fill="white"/>
<path d="M14.4035 6.79759C14.3874 7.46636 15.7915 8.49953 16.1658 7.69422C16.2563 7.49941 16.1354 7.27547 16.0102 7.1011C15.698 6.66626 14.4317 5.61701 14.4035 6.79759Z" fill="white"/>
</g>
</svg>
