<svg width="26" height="26" viewBox="0 0 26 26" fill="none" xmlns="http://www.w3.org/2000/svg">
<path d="M16.8506 7.36816L16.96 7.5498L17.166 7.59766L24.4414 9.28223L19.5459 14.9219L19.4072 15.082L19.4258 15.293L20.0713 22.7324L13.1953 19.8193L13 19.7373L12.8047 19.8193L5.92773 22.7324L6.57422 15.293L6.59277 15.082L6.4541 14.9219L1.55762 9.28223L8.83398 7.59766L9.04004 7.5498L9.14941 7.36816L13 0.969727L16.8506 7.36816Z" stroke="#FFD014"/>
<mask id="mask0_74_486" style="mask-type:alpha" maskUnits="userSpaceOnUse" x="0" y="0" width="17" height="26">
<rect width="17" height="26" fill="#D9D9D9"/>
</mask>
<g mask="url(#mask0_74_486)">
<path d="M13 0L17.2791 7.11036L25.3637 8.98278L19.9237 15.2496L20.6412 23.5172L13 20.28L5.35879 23.5172L6.07631 15.2496L0.636266 8.98278L8.72092 7.11036L13 0Z" fill="#FFD014"/>
</g>
</svg>
