<svg width="16" height="28" viewBox="0 0 16 28" fill="none" xmlns="http://www.w3.org/2000/svg">
<path d="M26.1839 27.9465C34.3566 27.7768 42.6946 27.3859 50.3236 24.5796C51.4505 24.165 52.5774 23.687 53.4807 22.9211C54.384 22.1552 55.0445 21.0544 54.9977 19.901C54.9248 18.1186 53.173 16.731 51.3444 16.3735C49.5157 16.0166 47.6301 16.4453 45.8178 16.8724C46.2322 15.1822 46.65 13.4563 46.4874 11.7271C46.3248 9.99785 45.4796 8.23297 43.9051 7.3675C41.6169 6.11002 38.6563 7.13105 36.5883 8.69851C34.5203 10.2654 32.8797 12.3527 30.6028 13.6277C31.3164 10.8797 32.0328 8.01066 31.3853 5.24794C30.7377 2.48522 28.2739 -0.110627 25.3134 0.00363745C23.356 0.0794369 21.6442 1.28092 20.2701 2.61533C16.1522 6.6146 13.9837 12.0354 11.9241 17.2899C9.34575 16.6626 6.61552 16.0364 4.06312 16.7536C2.21248 17.274 0.4386 18.8098 0.0705038 20.6731C-0.377761 22.942 1.38483 24.3347 3.27951 25.2997C7.14227 27.2666 12.3408 27.6286 16.623 27.8679C19.806 28.0472 22.9975 28.0127 26.1839 27.9465Z" fill="white"/>
</svg>
