<svg width="37" height="28" viewBox="0 0 37 28" fill="none" xmlns="http://www.w3.org/2000/svg">
<path d="M8.18392 27.9465C16.3566 27.7768 24.6946 27.3859 32.3236 24.5796C33.4505 24.165 34.5774 23.687 35.4807 22.9211C36.384 22.1552 37.0445 21.0544 36.9977 19.901C36.9248 18.1186 35.173 16.731 33.3444 16.3735C31.5157 16.0166 29.6301 16.4453 27.8178 16.8724C28.2322 15.1822 28.65 13.4563 28.4874 11.7271C28.3248 9.99785 27.4796 8.23297 25.9051 7.3675C23.6169 6.11002 20.6563 7.13105 18.5883 8.69851C16.5203 10.2654 14.8797 12.3527 12.6028 13.6277C13.3164 10.8797 14.0328 8.01066 13.3853 5.24794C12.7377 2.48522 10.2739 -0.110627 7.31336 0.00363745C5.35601 0.0794369 3.64425 1.28092 2.2701 2.61533C-1.84785 6.6146 -4.01635 12.0354 -6.07588 17.2899C-8.65425 16.6626 -11.3845 16.0364 -13.9369 16.7536C-15.7875 17.274 -17.5614 18.8098 -17.9295 20.6731C-18.3778 22.942 -16.6152 24.3347 -14.7205 25.2997C-10.8577 27.2666 -5.65923 27.6286 -1.377 27.8679C1.80602 28.0472 4.99751 28.0127 8.18392 27.9465Z" fill="white"/>
</svg>
