<svg width="39" height="20" viewBox="0 0 39 20" fill="none" xmlns="http://www.w3.org/2000/svg">
<path d="M18.5668 19.9618C24.3619 19.8406 30.2744 19.5614 35.684 17.5569C36.4831 17.2607 37.2821 16.9193 37.9226 16.3722C38.5632 15.8251 39.0316 15.0389 38.9983 14.215C38.9467 12.9418 37.7045 11.9507 36.4078 11.6954C35.1112 11.4404 33.7741 11.7467 32.489 12.0517C32.7828 10.8444 33.0791 9.61168 32.9638 8.3765C32.8485 7.14132 32.2492 5.88069 31.1327 5.2625C29.5102 4.3643 27.4108 5.09361 25.9444 6.21322C24.478 7.33244 23.3147 8.82338 21.7001 9.7341C22.2062 7.77123 22.7142 5.7219 22.255 3.74853C21.7958 1.77516 20.0488 -0.0790196 17.9495 0.00259818C16.5615 0.0567407 15.3477 0.91494 14.3733 1.86809C11.4533 4.72471 9.91568 8.59671 8.45528 12.3499C6.62699 11.9018 4.69101 11.4545 2.88112 11.9669C1.56885 12.3386 0.311008 13.4356 0.0499936 14.7665C-0.267867 16.3872 0.981971 17.3819 2.32547 18.0712C5.06452 19.4761 8.75073 19.7347 11.7872 19.9056C14.0443 20.0337 16.3073 20.0091 18.5668 19.9618Z" fill="white"/>
</svg>
