<svg width="41" height="28" viewBox="0 0 41 28" fill="none" xmlns="http://www.w3.org/2000/svg">
<path d="M12.1839 27.9465C20.3566 27.7768 28.6946 27.3859 36.3236 24.5796C37.4505 24.165 38.5774 23.687 39.4807 22.9211C40.384 22.1552 41.0445 21.0544 40.9977 19.901C40.9248 18.1186 39.173 16.731 37.3444 16.3735C35.5157 16.0166 33.6301 16.4453 31.8178 16.8724C32.2322 15.1822 32.65 13.4563 32.4874 11.7271C32.3248 9.99785 31.4796 8.23297 29.9051 7.3675C27.6169 6.11002 24.6563 7.13105 22.5883 8.69851C20.5203 10.2654 18.8797 12.3527 16.6028 13.6277C17.3164 10.8797 18.0328 8.01066 17.3853 5.24794C16.7377 2.48522 14.2739 -0.110627 11.3134 0.00363745C9.35601 0.0794369 7.64425 1.28092 6.2701 2.61533C2.15215 6.6146 -0.016346 12.0354 -2.07588 17.2899C-4.65425 16.6626 -7.38448 16.0364 -9.93688 16.7536C-11.7875 17.274 -13.5614 18.8098 -13.9295 20.6731C-14.3778 22.942 -12.6152 24.3347 -10.7205 25.2997C-6.85773 27.2666 -1.65923 27.6286 2.623 27.8679C5.80602 28.0472 8.99751 28.0127 12.1839 27.9465Z" fill="white"/>
</svg>
