<svg width="71" height="69" viewBox="0 0 71 69" fill="none" xmlns="http://www.w3.org/2000/svg">
<g opacity="0.6">
<path d="M58.0518 20.8957C42.4391 9.7363 28.3408 43.6278 41.1158 52.103C54.7708 61.162 72.8465 31.4703 58.0518 20.8957Z" fill="#C796D2"/>
<path d="M43.6581 26.711C39.122 29.4227 36.0211 47.3518 42.4339 51.0165C50.6746 55.7256 61.3921 42.7122 60.7276 37.6338C60.1829 33.4691 46.9827 24.7233 43.6581 26.711Z" fill="#F2B5FF"/>
<path d="M40.8995 28.0728C51.945 31.8904 60.5371 41.0765 60.5371 41.0765L57.7554 45.4235C44.8463 35.6162 39.1563 34.89 39.1563 34.89L40.8995 28.0728Z" fill="#C796D2"/>
<path d="M50.2708 31.735C50.2708 31.735 52.6285 29.7472 51.1306 28.2151C49.6326 26.6829 45.2213 29.4909 45.2213 29.4909L44.4221 32.3755C44.4221 32.3755 49.6143 36.6772 50.8009 35.2586C51.9879 33.8401 50.2708 31.735 50.2708 31.735Z" fill="#AD75B9"/>
<path d="M38.7287 27.7415C38.7287 27.7415 38.1034 24.7217 40.2278 24.4429C42.3525 24.1639 44.085 29.0976 44.085 29.0976L42.9306 31.8596C42.9306 31.8596 36.1901 32.0327 36.1339 30.184C36.0778 28.3353 38.7287 27.7415 38.7287 27.7415Z" fill="#AD75B9"/>
<path d="M43.4201 32.8649C44.185 33.1295 45.1736 32.2788 45.6282 30.9648C46.0828 29.6507 45.8312 28.371 45.0662 28.1063C44.3013 27.8417 43.3126 28.6924 42.8581 30.0065C42.4035 31.3205 42.6551 32.6003 43.4201 32.8649Z" fill="#F2B5FF"/>
<path d="M51.2546 19.8103C52.6954 19.5437 54.2228 19.771 55.5229 20.4467C56.0066 20.698 56.503 21.0776 56.5638 21.6193C56.6271 22.1836 56.1914 22.6751 55.7469 23.028C54.0177 24.4004 51.6334 24.9062 49.496 24.3542C48.4527 24.0847 46.953 23.0747 47.6908 21.8293C48.361 20.6975 50.0309 20.0369 51.2546 19.8103Z" fill="#F2B5FF"/>
<path d="M50.8747 25.5064C50.64 25.5805 50.3737 25.7392 50.3859 25.9849C50.3927 26.124 50.4906 26.2402 50.5872 26.34C51.1079 26.8798 51.7433 27.3084 52.4392 27.5889C52.7312 27.7068 53.0597 27.7987 53.3574 27.6959C53.6793 27.5845 53.8956 27.2503 53.9162 26.91C53.9367 26.5697 53.7826 26.234 53.5487 25.9863C52.8624 25.258 51.7794 25.2216 50.8747 25.5064Z" fill="#F2B5FF"/>
<path d="M58.6206 40.6324C58.723 40.7959 58.8207 40.9688 58.8487 41.1599C58.8762 41.3508 58.8201 41.5655 58.6634 41.6783C58.4352 41.8435 58.1164 41.7343 57.8636 41.6092C56.5259 40.9475 55.3464 39.9688 54.4499 38.776C54.2817 38.5519 54.1149 38.2814 54.1832 38.0097C54.4336 37.011 55.8856 37.9181 56.3217 38.2666C57.2023 38.97 58.0154 39.6644 58.6206 40.6324Z" fill="#F2B5FF"/>
<path d="M24.283 14.7788C43.4275 16.1125 32.7236 51.2241 17.4761 49.627C1.17857 47.9198 6.14159 13.5149 24.283 14.7788Z" fill="#C796D2"/>
<path d="M31.6808 28.4265C33.4524 33.4055 24.43 49.2061 17.1512 47.9495C7.79842 46.3346 7.81791 29.4763 11.5633 25.983C14.635 23.1186 30.382 24.7772 31.6808 28.4265Z" fill="#F2B5FF"/>
<path d="M32.941 31.2331C21.9928 27.1454 9.51841 28.7597 9.51841 28.7597L8.89625 33.883C25.0948 34.5383 29.9452 37.6003 29.9452 37.6003L32.941 31.2331Z" fill="#C796D2"/>
<path d="M23.3829 28.0911C23.3829 28.0911 22.83 25.0571 24.9605 24.8292C27.0909 24.6013 28.7052 29.5752 28.7052 29.5752L27.485 32.3088C27.485 32.3088 20.7423 32.3204 20.7303 30.4708C20.7183 28.6213 23.3829 28.0911 23.3829 28.0911Z" fill="#AD75B9"/>
<path d="M34.8261 32.3592C34.8261 32.3592 37.2307 30.4287 35.7701 28.8609C34.3093 27.2934 29.8323 29.995 29.8323 29.995L28.9641 32.8598C28.9641 32.8598 34.0519 37.2844 35.2721 35.8947C36.4923 34.505 34.8261 32.3592 34.8261 32.3592Z" fill="#AD75B9"/>
<path d="M27.9323 33.354C28.6907 33.637 29.6995 32.8102 30.1855 31.5074C30.6716 30.2045 30.4507 28.919 29.6923 28.6361C28.9339 28.3531 27.9251 29.1799 27.4391 30.4828C26.953 31.7856 27.1738 33.0711 27.9323 33.354Z" fill="#F2B5FF"/>
<path d="M30.2154 18.2692C29.2742 17.1463 27.9511 16.3494 26.5187 16.0426C25.9859 15.9283 25.3614 15.9051 24.9697 16.2839C24.5618 16.6786 24.5846 17.3354 24.7028 17.8908C25.1626 20.0499 26.6792 21.9577 28.6793 22.893C29.6554 23.3496 31.4548 23.5252 31.6786 22.0951C31.8822 20.7955 31.0151 19.223 30.2154 18.2692Z" fill="#F2B5FF"/>
<path d="M26.8823 22.9038C27.0164 23.1103 27.1206 23.4023 26.9548 23.5844C26.8612 23.6873 26.7116 23.7142 26.5732 23.7302C25.8279 23.8152 25.0651 23.7411 24.3502 23.5145C24.0497 23.4194 23.738 23.2814 23.5741 23.0123C23.3966 22.7213 23.4429 22.3261 23.6435 22.0508C23.8441 21.7755 24.1766 21.6146 24.5148 21.5724C25.5076 21.4468 26.3662 22.1084 26.8823 22.9038Z" fill="#F2B5FF"/>
<path d="M11.2796 29.6371C11.0964 29.6982 10.911 29.7692 10.768 29.8988C10.625 30.0284 10.5322 30.23 10.5807 30.4168C10.6517 30.6894 10.9668 30.808 11.2415 30.8725C12.694 31.2139 14.2268 31.2099 15.6779 30.8612C15.9503 30.7957 16.2511 30.693 16.3717 30.4401C16.8141 29.5103 15.1173 29.2858 14.5588 29.2768C13.4316 29.2581 12.3625 29.2762 11.2796 29.6371Z" fill="white"/>
</g>
</svg>
