<svg width="59" height="64" viewBox="0 0 59 64" fill="none" xmlns="http://www.w3.org/2000/svg">
<g opacity="0.6">
<path d="M49.8629 30.5421C50.8174 21.0272 43.7568 13.2049 43.0268 12.4253C41.8927 12.2052 30.0079 10.0814 24.3186 16.2648L23.8931 15.8734C30.0654 9.16475 42.6985 11.7632 43.2335 11.8769C43.2893 11.8888 43.3398 11.9167 43.3799 11.9573C43.4608 12.0401 51.4675 20.3455 50.4383 30.5996L49.8629 30.5421Z" fill="#AD75B9"/>
<path d="M43.0323 12.4121C43.0196 12.4052 43.0075 12.3969 42.9958 12.3881C42.7504 12.1974 36.9887 7.68062 37.3316 4.2189C37.4387 3.14001 38.113 2.28345 39.3362 1.67307C40.0301 1.32655 40.6642 1.3294 41.2146 1.68281C43.2899 3.00769 43.4712 9.25381 43.4702 11.43C44.7724 10.1088 48.2616 6.83148 50.7894 6.88975C51.5164 6.906 52.1146 7.19081 52.5679 7.73592C53.0894 8.36282 53.0355 8.89446 52.8982 9.23027C51.9772 11.4865 44.0977 12.3553 43.202 12.4468C43.1429 12.4531 43.0837 12.4407 43.0323 12.4121ZM40.841 2.1329C40.4815 1.93262 40.0729 1.95178 39.5944 2.19039C38.5461 2.71341 37.9942 3.3956 37.9068 4.27555C37.6476 6.88961 41.5376 10.4148 42.8935 11.5573C42.9088 8.84241 42.5908 3.24703 40.9036 2.1699C40.8829 2.1567 40.8623 2.14433 40.841 2.1329ZM51.6243 7.68342C51.3776 7.54594 51.0969 7.47497 50.7768 7.46776C48.5325 7.41603 45.2396 10.4765 43.9416 11.7794C46.6557 11.4322 51.7605 10.49 52.3633 9.0121C52.4773 8.73302 52.3986 8.43645 52.1235 8.10584C51.975 7.92721 51.8091 7.78677 51.6243 7.68342Z" fill="#AD75B9"/>
<path d="M47.1075 52.2324C49.6488 53.5277 51.8281 49.9458 49.8767 48.2269C51.9846 48.3656 53.4352 45.3729 51.6318 43.8917C53.6389 43.6278 54.813 40.5463 52.558 39.2906C52.5534 39.2882 52.5485 39.2863 52.544 39.2838C54.1239 38.534 54.8181 35.9885 52.8202 34.8763C50.0582 33.3384 47.6639 37.6285 50.4304 39.1688C50.4354 39.1716 50.4408 39.1735 50.4458 39.1763C48.9862 39.8686 48.2831 42.0935 49.7619 43.3057C47.9128 43.5451 46.7682 46.1751 48.3564 47.5724C46.3627 47.4407 44.9579 50.1094 46.3371 51.6529C44.2498 50.591 42.4088 52.8186 42.9004 54.6017C42.8115 54.5373 42.7183 54.4751 42.6154 54.4179C40.8168 53.4162 39.1753 54.8866 39.0119 56.4592C38.813 56.1406 38.5202 55.8538 38.1133 55.627C36.5428 54.7523 35.0923 55.7628 34.6409 57.0802C34.4684 56.6005 34.1196 56.1621 33.5457 55.8425C32.2427 55.1168 31.0221 55.6891 30.3858 56.6569C30.3407 55.9496 29.9755 55.2622 29.1654 54.8111C27.8388 54.0725 26.599 54.6794 25.9729 55.6791C25.9846 54.9072 25.6288 54.1368 24.7469 53.646C23.4498 52.9238 22.2341 53.487 21.5956 54.447C22.0511 53.4063 21.8779 52.1048 20.5972 51.3917C19.4786 50.769 18.421 51.1021 17.7411 51.821C18.1112 50.8105 17.8921 49.6037 16.6769 48.9273C15.7108 48.3893 14.7909 48.5657 14.1198 49.0865L14.2552 48.742C14.3556 48.3215 14.3476 47.9035 14.2307 47.4875C14.148 47.295 14.0658 47.1025 13.9831 46.9099C13.7563 46.5294 13.4499 46.2306 13.0628 46.0136L12.9768 45.9659C12.6878 45.7902 12.3778 45.6981 12.047 45.6901C11.7326 45.6287 11.42 45.6482 11.1091 45.7494C11.0263 45.7696 10.9466 45.7953 10.8695 45.825C11.5053 44.7473 11.4366 43.2502 10.0276 42.4655C9.48781 42.1648 8.9625 42.0894 8.4866 42.1702C9.45439 41.1071 9.61369 39.251 7.98672 38.3453C7.59396 38.1265 7.20905 38.0291 6.84472 38.0213C8.43572 37.3453 9.1934 34.8617 7.37616 33.681C8.89738 33.0669 9.68189 30.8055 8.24602 29.5486C10.1486 30.0436 11.6793 27.929 11.121 26.2788C13.0673 26.7073 14.5922 24.4211 13.8221 22.7714C15.8215 23.7701 17.5896 21.7614 17.2865 20.0243C19.9521 21.224 22.1489 17.1225 19.4564 15.6229C17.4094 14.4831 15.5662 16.5446 15.8746 18.3154C13.7078 17.3403 11.8511 19.867 12.6775 21.6526C10.5544 20.5971 8.69303 22.9367 9.2987 24.7293C7.03893 24.2329 5.3478 27.3959 7.1582 28.9701C4.73879 28.3329 2.91694 31.9145 5.21808 33.4078C3.55234 34.0801 2.76896 36.7273 4.81789 37.8686C5.21107 38.0873 5.59562 38.1852 5.95995 38.193C4.31962 38.8894 3.56304 41.5053 5.59691 42.6378C6.13669 42.9386 6.662 43.014 7.1379 42.9332C6.17011 43.9963 6.01081 45.8524 7.63778 46.758C8.35639 47.1582 9.04878 47.1617 9.63349 46.9238C9.55391 47.1262 9.4747 47.3281 9.39512 47.5304C9.29475 47.9509 9.30276 48.3689 9.41962 48.7848C9.50229 48.9774 9.58454 49.1699 9.66721 49.3624C9.89399 49.743 10.2005 50.0418 10.5875 50.2587L10.6735 50.3065C10.963 50.4821 11.2725 50.5743 11.6033 50.5823C11.9177 50.6437 12.2303 50.6242 12.5412 50.523C12.8294 50.4521 13.0814 50.3211 13.3014 50.1354C12.8298 51.1805 12.9955 52.5003 14.288 53.2197C15.4066 53.8424 16.4642 53.5093 17.1441 52.7905C16.774 53.8009 16.9931 55.0077 18.2083 55.6841C19.5053 56.4063 20.7211 55.8431 21.36 54.883C20.9044 55.9237 21.0776 57.2252 22.3583 57.9383C23.6849 58.6769 24.9247 58.07 25.5508 57.0703C25.5391 57.8422 25.8949 58.6126 26.7768 59.1035C28.0798 59.8292 29.3004 59.2569 29.9367 58.2891C29.9817 58.9964 30.347 59.6837 31.1571 60.1353C32.7277 61.01 34.1782 59.9994 34.6296 58.682C34.8021 59.1617 35.1509 59.6001 35.7248 59.9197C37.5234 60.9214 39.165 59.451 39.3284 57.8784C39.5273 58.197 39.82 58.4838 40.2269 58.7107C42.3545 59.8951 44.261 57.623 43.7618 55.812C43.8507 55.8764 43.9439 55.9386 44.0468 55.9958C46.5344 57.3809 48.723 54.0351 47.1075 52.2324Z" fill="#AD75B9"/>
<path d="M50.8296 30.0271L49.8396 29.7204C49.1873 29.5181 48.479 29.7445 48.0676 30.2895C46.229 32.7266 40.4273 38.8089 31.2292 33.6877C22.0707 28.5884 24.474 20.7432 25.7121 17.9554C25.9948 17.3189 25.8409 16.5746 25.328 16.1029L24.6566 15.4856C24.1404 15.0109 23.3789 14.9233 22.7663 15.2646C18.7104 17.5253 4.30598 26.4154 6.33607 37.6315C8.69539 50.6642 31.3971 61.7021 42.1807 56.1876C51.3869 51.4794 51.9916 35.996 51.9715 31.5665C51.9684 30.8588 51.5061 30.2366 50.8296 30.0271Z" fill="#C796D2"/>
<path d="M19.7791 26.2894C19.2917 26.0179 18.869 26.7749 19.3573 27.0467C19.8447 27.3181 20.267 26.5612 19.7791 26.2894Z" fill="#AD75B9"/>
<path d="M17.5499 25.8929C17.0625 25.6214 16.6397 26.3784 17.1281 26.6502C17.6159 26.9216 18.0382 26.1646 17.5499 25.8929Z" fill="#74AA93"/>
<path d="M18.7218 27.784C18.2343 27.5125 17.8116 28.2695 18.2999 28.5413C18.7874 28.8127 19.2101 28.0557 18.7218 27.784Z" fill="#AD75B9"/>
<path d="M39.4867 52.5772C38.9993 52.3058 38.5765 53.0627 39.0648 53.3345C39.5522 53.6059 39.975 52.8489 39.4867 52.5772Z" fill="#AD75B9"/>
<path d="M40.764 50.586C40.2766 50.3145 39.8539 51.0715 40.3422 51.3433C40.8296 51.6147 41.2523 50.8577 40.764 50.586Z" fill="#AD75B9"/>
<path d="M38.0172 50.4637C37.5298 50.1922 37.107 50.9492 37.5953 51.221C38.0828 51.4924 38.5055 50.7354 38.0172 50.4637Z" fill="#AD75B9"/>
<path d="M20.4035 51.8599C13.4235 47.9729 8.69622 42.5578 7.75764 37.374C5.86567 26.9224 20.5139 18.1744 23.4696 16.5266C23.5352 16.4899 23.6033 16.5016 23.6451 16.525C23.657 16.5316 23.6681 16.5396 23.6787 16.5494L24.35 17.1667C24.4064 17.2189 24.4228 17.298 24.3914 17.3688C23.2081 20.0329 20.1534 29.1747 30.5261 34.9501C40.8738 40.7115 47.4517 33.5056 49.2211 31.1601C49.265 31.1018 49.3399 31.0787 49.4118 31.101L50.4019 31.4077C50.4143 31.4118 50.4259 31.4163 50.4368 31.4226C50.4801 31.4467 50.5258 31.4989 50.5263 31.5731C50.5459 35.9556 49.9552 50.5887 41.5223 54.9013C36.6407 57.3979 28.1544 56.1761 20.4054 51.8614C20.4049 51.8606 20.4048 51.8602 20.4035 51.8599Z" stroke="white" stroke-width="1.2" stroke-miterlimit="10" stroke-linecap="round" stroke-linejoin="round" stroke-dasharray="20.57 20.57"/>
<path d="M31.5098 47.3349C33.8869 44.3051 33.3579 39.9219 30.3281 37.5447C27.2983 35.1676 22.915 35.6966 20.5379 38.7264C18.1607 41.7563 18.6898 46.1395 21.7196 48.5166C24.7494 50.8938 29.1326 50.3647 31.5098 47.3349Z" fill="white"/>
<path d="M24.6119 45.5722L22.2541 45.3181C21.8042 45.2696 21.5677 44.7595 21.8209 44.385L23.1494 42.4205L22.6625 40.0994C22.5696 39.6564 22.9815 39.2739 23.4164 39.3992L25.6955 40.0555L27.7524 38.875C28.1451 38.6497 28.6362 38.9233 28.6513 39.3757L28.7311 41.7459L30.4892 43.3375C30.8247 43.6413 30.7164 44.1926 30.291 44.3471L28.0614 45.1554L27.0911 47.3195C26.9057 47.7324 26.348 47.7998 26.0697 47.4428L24.6119 45.5722Z" fill="#C796D2"/>
</g>
</svg>
