<svg width="42" height="54" viewBox="0 0 42 54" fill="none" xmlns="http://www.w3.org/2000/svg">
<g opacity="0.6">
<path d="M48.4146 6.42513C48.323 6.19511 48.1403 6.01688 47.9091 5.92832C45.6829 5.07533 33.5035 0.44612 31.5277 0.503209C29.3514 0.566425 10.9281 7.07567 9.51786 8.97686C8.24798 10.6887 1.48421 20.6884 0.150839 22.6615C-0.00316112 22.8893 -0.0393605 23.173 0.0427917 23.4357C1.4714 28.0022 7.52003 30.2883 9.44016 30.9087C9.79049 31.0218 10.172 30.9079 10.4037 30.6219L14.286 25.8281C17.0606 32.4025 15.6952 45.4335 15.6952 45.4335C21.6594 45.9403 30.7321 53.0809 30.7321 53.0809C36.8264 52.6593 43.6269 48.486 43.6269 48.486C45.2661 37.7162 50.3589 33.3805 50.3589 33.3805C45.0525 27.3291 40.5012 17.4516 40.5012 17.4516L46.1096 18.5188C46.4585 18.5851 46.8127 18.4355 47.0144 18.1431C50.597 12.9408 48.9654 7.80863 48.4146 6.42513Z" fill="#C796D2"/>
<path d="M19.3991 35.1139C18.9663 35.2724 19.2116 35.9452 19.6452 35.7864C20.078 35.628 19.8326 34.9552 19.3991 35.1139Z" fill="white"/>
<path d="M20.6583 36.4706C20.2256 36.629 20.4709 37.3019 20.9045 37.1431C21.3373 36.9847 21.0916 36.3119 20.6583 36.4706Z" fill="white"/>
<path d="M21.0353 34.8395C20.6025 34.9979 20.8479 35.6708 21.2815 35.512C21.7142 35.3538 21.4689 34.6807 21.0353 34.8395Z" fill="white"/>
<path d="M32.3446 11.9091C31.9118 12.0675 32.1572 12.7403 32.5908 12.5816C33.0236 12.4231 32.7782 11.7503 32.3446 11.9091Z" fill="#F2B5FF"/>
<path d="M30.6412 11.6886C30.2085 11.8471 30.4538 12.5199 30.8874 12.3611C31.3202 12.203 31.0748 11.5299 30.6412 11.6886Z" fill="#F2B5FF"/>
<path d="M28.2382 0.0171068C21.6535 0.939161 15.3085 4.09938 12.0263 5.95741C10.8796 6.60683 10.8498 8.25127 11.9698 8.9458C21.8002 15.0434 29.058 8.46208 30.1995 2.04223C30.4056 0.883185 29.4042 -0.146084 28.2382 0.0171068Z" fill="#F2B5FF"/>
<path d="M26.7362 1.22428C21.4189 2.04163 16.1224 4.6833 13.8052 5.95402C13.2042 6.28346 13.1393 7.0156 13.6801 7.31691C21.0424 11.4162 26.9309 6.36701 27.7039 2.04608C27.7956 1.53507 27.3185 1.13461 26.7362 1.22428Z" fill="#855D8E"/>
<path d="M31.1194 51.7C26.6091 48.1307 21.3706 45.7321 15.7193 44.6572C14.1306 44.355 13.6901 46.8232 15.2749 47.1248C20.5098 48.1207 25.3423 50.3251 29.5212 53.6321C30.7844 54.6316 32.3893 52.705 31.1194 51.7Z" fill="#855D8E"/>
<path d="M30.0224 50.2938L29.7776 49.8157" stroke="#F2B5FF" stroke-width="2" stroke-linecap="round" stroke-linejoin="round"/>
<path d="M29.0311 48.356L24.6272 39.7458" stroke="#F2B5FF" stroke-width="2" stroke-linecap="round" stroke-linejoin="round" stroke-dasharray="35.32 35.32"/>
<path d="M24.2543 39.0164L24.0098 38.5382C24.1473 38.4265 24.2885 38.3168 24.4333 38.2085" stroke="#F2B5FF" stroke-width="2" stroke-linecap="round" stroke-linejoin="round"/>
<path d="M25.8174 37.2809C29.7092 34.928 35.0521 33.508 37.5164 32.938" stroke="#F2B5FF" stroke-width="2" stroke-linecap="round" stroke-linejoin="round" stroke-dasharray="35.98 35.98"/>
<path d="M38.335 32.7559C38.6728 32.6841 38.8613 32.6484 38.8613 32.6484L39.012 33.1642" stroke="#F2B5FF" stroke-width="2" stroke-linecap="round" stroke-linejoin="round"/>
<path d="M39.5081 34.8635L42.4355 44.8892" stroke="#F2B5FF" stroke-width="2" stroke-linecap="round" stroke-linejoin="round" stroke-dasharray="38.14 38.14"/>
<path d="M42.6836 45.7388L42.8343 46.2542" stroke="#F2B5FF" stroke-width="2" stroke-linecap="round" stroke-linejoin="round"/>
<path d="M27.4729 31.107C31.8664 31.107 35.4281 27.5454 35.4281 23.1519C35.4281 18.7584 31.8664 15.1968 27.4729 15.1968C23.0794 15.1968 19.5178 18.7584 19.5178 23.1519C19.5178 27.5454 23.0794 31.107 27.4729 31.107Z" fill="#F2B5FF"/>
<path d="M28.6139 26.27L26.6369 28.1171C26.2596 28.4697 25.643 28.294 25.508 27.7955L24.8015 25.1839L22.4338 23.8747C21.9821 23.6249 21.9584 22.9842 22.3909 22.7018L24.6564 21.2227L25.1699 18.5663C25.2679 18.0595 25.8703 17.8389 26.2721 18.1631L28.3788 19.8607L31.064 19.5282C31.5764 19.4647 31.9721 19.9693 31.7883 20.4519L30.8247 22.9803L31.9707 25.4312C32.1893 25.8987 31.8317 26.4312 31.316 26.4053L28.6139 26.27Z" fill="white"/>
<path d="M39.9698 16.3879C39.8849 16.2283 39.8008 16.0701 39.7178 15.9133" stroke="#F2B5FF" stroke-width="2" stroke-linecap="round" stroke-linejoin="round"/>
<path d="M38.9576 14.4725C36.0049 8.84275 34.3251 5.25451 33.5461 3.51929" stroke="#F2B5FF" stroke-width="2" stroke-linecap="round" stroke-linejoin="round" stroke-dasharray="35.1 35.1"/>
<path d="M33.2169 2.7743C33.0729 2.44319 33.0061 2.28027 33.0061 2.28027" stroke="#F2B5FF" stroke-width="2" stroke-linecap="round" stroke-linejoin="round"/>
<path d="M10.2227 10.6179C10.3082 10.7744 10.3923 10.9326 10.475 11.0919" stroke="#F2B5FF" stroke-width="2" stroke-linecap="round" stroke-linejoin="round"/>
<path d="M11.2485 12.7109C12.9306 16.5225 13.8883 20.7036 14.3057 22.8299" stroke="#F2B5FF" stroke-width="2" stroke-linecap="round" stroke-linejoin="round" stroke-dasharray="38.67 38.67"/>
<path d="M14.4705 23.7129C14.5306 24.0538 14.5593 24.2426 14.5593 24.2426" stroke="#F2B5FF" stroke-width="2" stroke-linecap="round" stroke-linejoin="round"/>
<path d="M9.43525 19.7897C9.58702 19.6877 9.74214 19.5828 9.84936 19.4346C9.95657 19.2864 10.0075 19.084 9.93039 18.918C9.85937 18.7648 9.69313 18.6735 9.52632 18.6479C9.3595 18.6223 9.18962 18.6521 9.02365 18.683C8.42491 18.7944 6.88128 19.2193 7.40734 20.1336C7.89691 20.9852 8.91616 20.138 9.43525 19.7897Z" fill="white"/>
</g>
</svg>
