<svg width="20" height="11" viewBox="0 0 20 11" fill="none" xmlns="http://www.w3.org/2000/svg">
<path d="M6.56569 4.91967C6.25327 4.60725 5.74673 4.60725 5.43431 4.91967C5.1219 5.23209 5.1219 5.73862 5.43431 6.05104L6.56569 4.91967ZM10.2426 9.72799L9.67696 10.2937C9.82699 10.4437 10.0305 10.528 10.2427 10.528C10.4548 10.528 10.6583 10.4437 10.8083 10.2937L10.2426 9.72799ZM19.2932 1.80834C19.6056 1.49592 19.6056 0.989385 19.2931 0.676974C18.9807 0.364564 18.4742 0.364578 18.1618 0.677007L19.2932 1.80834ZM1.56569 4.91967C1.25327 4.60725 0.746734 4.60725 0.434315 4.91967C0.121895 5.23209 0.121895 5.73862 0.434315 6.05104L1.56569 4.91967ZM4.67695 10.2937C4.98937 10.6061 5.49591 10.6061 5.80833 10.2937C6.12075 9.98126 6.12075 9.47473 5.80833 9.16231L4.67695 10.2937ZM14.2962 1.80578C14.6072 1.49195 14.6049 0.98542 14.291 0.674424C13.9772 0.363428 13.4707 0.365732 13.1597 0.679568L14.2962 1.80578ZM9.93175 3.93698C9.62075 4.25082 9.62306 4.75734 9.93689 5.06834C10.2507 5.37933 10.7573 5.37703 11.0683 5.06319L9.93175 3.93698ZM6 5.48535L5.43431 6.05104L9.67696 10.2937L10.2426 9.72799L10.8083 9.16231L6.56569 4.91967L6 5.48535ZM10.2426 9.72799L10.8083 10.2937L19.2932 1.80834L18.7275 1.24268L18.1618 0.677007L9.67694 9.16232L10.2426 9.72799ZM1 5.48535L0.434315 6.05104L4.67695 10.2937L5.24264 9.72799L5.80833 9.16231L1.56569 4.91967L1 5.48535ZM13.7279 1.24268L13.1597 0.679568L9.93175 3.93698L10.5 4.50009L11.0683 5.06319L14.2962 1.80578L13.7279 1.24268Z" fill="#2F9982"/>
</svg>
