<svg width="45" height="36" viewBox="0 0 45 36" fill="none" xmlns="http://www.w3.org/2000/svg">
<path d="M0.472689 30.2961C4.38025 30.0468 7.40546 28.9247 9.54832 26.9299C11.6912 24.9351 12.8256 22.4727 12.9517 19.5429C12.3214 19.7922 11.6912 20.0104 11.0609 20.1974C10.4307 20.3221 9.83193 20.3844 9.26471 20.3844C6.36555 20.3844 4.09664 19.4182 2.45798 17.4857C0.819328 15.5532 0 13.2156 0 10.4727C0 7.35584 0.913865 4.83117 2.7416 2.8987C4.56933 0.966234 7.02731 0 10.1155 0C13.2038 0 15.7563 1.09091 17.7731 3.27273C19.7899 5.45455 20.7983 8.6961 20.7983 12.9974C20.7983 18.3584 19.9475 22.7221 18.2458 26.0883C16.5441 29.4545 14.1492 31.948 11.0609 33.5688C8.03571 35.1273 4.5063 35.9377 0.472689 36V30.2961ZM24.6744 30.2961C28.5819 30.0468 31.6071 28.9247 33.75 26.9299C35.8929 24.9351 37.0273 22.4727 37.1534 19.5429C36.5231 19.7922 35.8929 20.0104 35.2626 20.1974C34.6324 20.3221 34.0336 20.3844 33.4664 20.3844C30.5672 20.3844 28.2668 19.4182 26.5651 17.4857C24.9265 15.5532 24.1071 13.2156 24.1071 10.4727C24.1071 7.35584 25.021 4.83117 26.8487 2.8987C28.6765 0.966234 31.166 0 34.3172 0C37.4055 0 39.958 1.09091 41.9748 3.27273C43.9916 5.45455 45 8.6961 45 12.9974C45 18.3584 44.1176 22.7221 42.3529 26.0883C40.6513 29.4545 38.2878 31.948 35.2626 33.5688C32.2374 35.1273 28.708 35.9377 24.6744 36V30.2961Z" fill="#F1F3F8"/>
</svg>
