<svg width="53" height="52" viewBox="0 0 53 52" fill="none" xmlns="http://www.w3.org/2000/svg">
<g clip-path="url(#clip0_375_16)">
<mask id="path-1-inside-1_375_16" fill="white">
<path d="M346 -251C354.837 -251 362 -243.837 362 -235V-15C362 -6.16344 354.837 1 346 1H52.9619L0 52V1H-34C-42.8366 1 -50 -6.16344 -50 -15V-235C-50 -243.837 -42.8366 -251 -34 -251H346Z"/>
</mask>
<path d="M346 -251C354.837 -251 362 -243.837 362 -235V-15C362 -6.16344 354.837 1 346 1H52.9619L0 52V1H-34C-42.8366 1 -50 -6.16344 -50 -15V-235C-50 -243.837 -42.8366 -251 -34 -251H346Z" fill="white"/>
<path d="M362 -235L363 -235V-235L362 -235ZM346 1L346 2L346 1ZM52.9619 1V0H52.5587L52.2683 0.279677L52.9619 1ZM0 52H-1V54.3512L0.693639 52.7203L0 52ZM0 1H1V0H0V1ZM-50 -15L-51 -15V-15L-50 -15ZM-34 -251L-34 -252L-34 -251ZM346 -251V-250C354.284 -250 361 -243.284 361 -235L362 -235L363 -235C363 -244.389 355.389 -252 346 -252V-251ZM362 -235H361V-15H362H363V-235H362ZM362 -15H361C361 -6.71573 354.284 -7.55037e-08 346 0L346 1L346 2C355.389 2 363 -5.61116 363 -15H362ZM346 1V0H52.9619V1V2H346V1ZM52.9619 1L52.2683 0.279677L-0.693639 51.2797L0 52L0.693639 52.7203L53.6556 1.72032L52.9619 1ZM0 52H1V1H0H-1V52H0ZM0 1V0H-34V1V2H0V1ZM-34 1V0C-42.2843 0 -49 -6.71573 -49 -15L-50 -15L-51 -15C-51 -5.61116 -43.3888 2 -34 2V1ZM-50 -15H-49V-235H-50H-51V-15H-50ZM-50 -235H-49C-49 -243.284 -42.2843 -250 -34 -250L-34 -251L-34 -252C-43.3888 -252 -51 -244.389 -51 -235H-50ZM-34 -251V-250H346V-251V-252H-34V-251Z" fill="#E5C9EB" mask="url(#path-1-inside-1_375_16)"/>
</g>
<defs>
<clipPath id="clip0_375_16">
<rect width="53" height="52" fill="white"/>
</clipPath>
</defs>
</svg>
