<svg width="265" height="116" viewBox="0 0 265 116" fill="none" xmlns="http://www.w3.org/2000/svg">
<path d="M203.149 -31.3493C201.939 -32.0048 200.561 -32.1847 199.222 -31.7991C197.819 -31.3879 195.849 -29.897 194.446 -30.8995C193.789 -31.375 193.274 -31.8377 192.399 -31.812C191.613 -31.7863 190.867 -31.4136 190.275 -30.9123C189.657 -30.3854 189.206 -29.6914 188.678 -29.0617C188.073 -28.3291 187.391 -27.9179 186.477 -27.6865C184.944 -27.3138 183.464 -27.1724 182.202 -26.0929C180.837 -24.9362 179.898 -23.2783 178.919 -21.8132C176.756 -18.536 174.774 -15.1559 172.842 -11.7502C168.98 -4.9387 165.324 2.00132 160.946 8.50437C156.556 15.0203 150.994 20.6623 146.643 27.191C143.012 32.6531 140.682 39.5417 134.94 43.2559C134.759 43.3715 134.682 43.5129 134.644 43.6671C129.236 44.721 124.318 47.5484 119.555 50.3372C116.825 51.9309 114.096 53.5373 111.225 54.8739C109.757 55.5551 108.225 56.082 106.732 56.6989C105.946 57.0331 105.187 57.4186 104.479 57.9198C103.758 58.4339 103.127 59.0637 102.367 59.5135C100.835 60.4131 99.0197 60.3103 97.3331 60.1432C96.6636 60.0789 95.9942 60.0918 95.3247 60.0404C93.5351 59.9376 91.7456 59.7319 89.9689 59.5135C84.9478 58.9094 79.9396 58.1383 74.9572 57.3029C70.4253 56.5447 65.9192 55.5551 61.3874 54.8225C61.22 54.7968 61.0784 54.8482 60.9754 54.9511C58.04 54.2956 55.0789 53.7044 52.1435 53.0618C48.9506 52.3678 45.7706 51.5839 42.6034 50.7742C37.7626 49.5276 33.0376 47.9211 28.3255 46.2889C26.8192 45.7748 25.3 45.2607 23.7937 44.7467C21.6951 44.027 19.6738 43.1787 17.6525 42.2663C13.1722 40.2485 8.74334 38.0765 4.16 36.303C-5.10968 32.7045 -14.8557 30.4554 -24.2928 27.3838C-29.0306 25.8416 -33.7298 24.158 -38.3904 22.3973C-40.7722 21.4976 -43.1411 20.5851 -45.5229 19.6598C-46.3726 19.3257 -47.2223 18.9915 -48.0721 18.6445C-48.1364 18.5674 -48.2137 18.4903 -48.3295 18.4389C-48.9733 18.1947 -49.617 17.9891 -50.2736 17.7963C-51.0718 17.5007 -51.87 17.2308 -52.6811 16.9866C-52.8743 16.9352 -53.0545 16.9481 -53.1961 17.0123C-53.7497 16.8709 -54.3162 16.7296 -54.8698 16.5882C-56.9684 16.0356 -59.054 15.4958 -61.1526 14.9432C-68.6971 12.9897 -76.2416 11.0233 -83.7861 9.06985C-87.5583 8.09311 -91.3305 7.11636 -95.1028 6.13962C-96.5447 5.76692 -98.1669 5.2914 -98.8879 7.01355C-99.5703 8.64574 -99.7891 10.6121 -99.9951 12.3471C-100.034 12.6555 -99.8406 13.0668 -99.5059 13.1567C-94.8324 14.4419 -90.1332 15.6629 -85.4726 16.9995C-77.1814 19.3642 -68.916 21.7804 -60.6376 24.1837C-56.5049 25.3917 -52.3722 26.6384 -48.2266 27.8079C-44.1582 28.9646 -40.0898 30.224 -35.9571 31.1494C-35.9185 31.1494 -35.8799 31.1494 -35.8541 31.1237C-31.5154 32.6016 -27.1252 33.9125 -22.7993 35.4291C-17.6495 37.2412 -12.5254 39.169 -7.42709 41.1224C1.72671 44.6181 10.8676 48.191 20.1116 51.4425C29.3297 54.694 38.638 57.6885 48.0236 60.4517C52.8129 61.8654 57.6151 63.2148 62.456 64.4872C67.1037 65.7081 71.8158 66.7619 76.6051 67.3146C81.5103 67.8929 86.4799 67.97 91.4108 68.0857C96.2388 68.1885 101.067 68.3427 105.895 68.3427C105.92 68.5098 106.011 68.6512 106.242 68.7154C112.074 70.1934 117.958 71.4657 123.893 72.5067C126.88 73.0336 129.88 73.4835 132.88 73.8819C134.36 74.0746 135.841 74.2417 137.321 74.3831C138.596 74.5116 139.948 74.6787 141.261 74.6273C141.004 76.7478 142.162 79.0483 143.54 80.5391C145.291 82.4412 147.685 83.5593 150.119 84.3433C153.016 85.2943 156.015 86.014 158.951 86.8237C165.066 88.5073 171.182 90.1909 177.297 91.8874C177.825 92.0287 178.443 91.4375 178.005 90.9363C175.546 88.1989 173.28 85.3329 171.169 82.3256C170.113 80.8219 169.109 79.2925 168.143 77.7374C167.783 77.1462 167.435 76.4651 167.062 75.8097C169.649 77.9045 172.392 79.8323 175.16 81.6701C178.778 84.0863 182.576 86.3996 186.657 87.9675C190.867 89.5869 195.489 90.0881 199.93 90.7949C204.823 91.5661 209.767 92.4143 214.337 94.3549C220.131 96.8225 225.306 101.166 231.087 103.762C231.306 104.829 231.846 105.857 232.349 106.821C232.941 107.939 233.623 109.006 234.383 110.008C235.696 111.743 237.267 113.363 239.043 114.648C240.344 115.586 242.275 116.409 243.897 115.779C245.983 114.969 245.699 112.373 245.326 110.625C245.107 109.61 244.734 108.633 244.27 107.695C243.949 107.053 243.601 106.217 243.034 105.755C242.893 105.652 242.725 105.755 242.687 105.909C242.545 106.603 242.983 107.425 243.228 108.055C243.601 108.993 243.974 109.931 244.154 110.934C244.309 111.808 244.566 113.106 244.154 113.941C243.833 114.609 243.125 114.789 242.442 114.725C240.743 114.571 239.365 113.376 238.168 112.283C236.764 110.998 235.529 109.507 234.486 107.914C233.958 107.104 233.494 106.256 233.082 105.382C232.928 105.073 232.799 104.752 232.67 104.431C235.078 105.343 237.589 105.934 240.318 105.922C244.978 105.896 248.918 103.711 252.523 100.922C255.806 98.3775 259.05 95.2288 260.338 91.1805C261.381 87.9418 260.467 84.8574 258.78 82.0942C259.115 82.0685 259.437 82.0043 259.771 81.8629C260.209 81.6701 260.634 81.3745 260.994 81.0532C261.728 80.3721 262.243 79.511 262.449 78.5343C262.642 77.5832 262.488 76.5422 262.076 75.6683C261.806 75.0899 261.316 74.2931 260.673 73.959C262.32 72.9565 263.685 71.5685 264.509 69.705C265.14 68.2785 265.204 66.6977 264.458 65.3097C263.775 64.0502 262.668 63.0349 261.587 62.1096C259.475 60.2974 257.003 58.8837 254.39 57.907C251.493 56.8274 248.416 56.2619 245.313 56.0949C244.785 55.5679 244.013 55.2338 243.356 54.8997C242.532 54.4884 241.695 54.1028 240.846 53.7558C239.224 53.0875 237.563 52.5606 235.85 52.1622C234.048 51.7509 232.22 51.4939 230.379 51.3654C229.452 51.3011 228.538 51.2883 227.611 51.3011C227.018 51.3011 226.375 51.2754 225.77 51.3911C225.744 51.3911 225.705 51.3654 225.68 51.3525C222.886 50.6842 220.015 50.3629 217.131 50.3886C220.955 48.8079 224.791 47.2399 228.512 45.4535C232.683 43.4615 236.61 41.0068 239.829 37.6653C240.022 37.4596 240.202 37.2412 240.395 37.0227C240.408 37.0355 240.421 37.0612 240.447 37.0612C241.245 37.2926 242.172 37.1641 242.996 37.1255C243.961 37.0741 244.927 36.997 245.893 36.9327C247.824 36.7914 249.755 36.6371 251.686 36.4701C252.227 36.4186 252.253 35.6604 251.802 35.4676C250.476 34.8893 249.24 34.0796 248.236 33.0515C247.952 32.7687 247.682 32.5374 247.85 32.1261C247.991 31.792 248.352 31.4835 248.583 31.2136C248.609 31.1879 248.635 31.1494 248.661 31.1108C249.227 31.1494 249.884 30.6739 250.321 30.404C251.004 29.9927 251.673 29.5429 252.317 29.0545C252.948 28.5662 253.566 28.0521 254.145 27.4866C254.583 27.0625 255.124 26.587 255.201 25.9315C255.265 25.2761 254.828 24.7106 254.506 24.1965C254.029 23.4383 253.553 22.6928 253.064 21.9474C252.587 21.2406 252.111 20.5337 251.609 19.8526C251.197 19.2871 250.811 18.6059 250.218 18.2075C250.695 18.079 251.184 17.8348 251.609 17.6421C252.227 17.3593 252.793 16.9995 253.308 16.5496C254.158 15.7914 254.827 14.7632 254.982 13.6323C255.059 13.0411 254.982 12.4756 254.789 11.923C254.673 11.576 254.518 11.2161 254.66 10.8434C254.789 10.4964 255.098 10.2008 255.317 9.90522C256.257 8.62004 257.145 7.27059 258.046 5.9597C258.329 5.54844 258.02 4.91869 257.48 5.02151C256.166 5.2914 254.84 5.57414 253.527 5.84403C252.883 5.97255 252.253 6.10107 251.609 6.22958C251.21 6.3067 250.772 6.3581 250.36 6.47377C250.244 6.15247 250.09 5.83118 249.884 5.53558C248.854 4.03191 246.974 3.6335 245.249 3.6078C243.807 3.59495 242.339 3.68491 240.884 3.82628C240.202 3.76202 239.533 3.76202 238.863 3.86484C238.657 3.89054 238.515 3.99336 238.425 4.12188C235.091 4.68736 232.271 6.17818 229.825 8.363C230.829 6.0111 231.628 3.56925 232.297 1.10168C232.632 -0.119242 232.889 -1.35302 233.108 -2.59966C233.276 -3.53784 233.507 -4.55314 233.301 -5.49133C232.876 -7.47052 230.752 -7.3677 229.194 -6.81507C227.521 -6.22388 226.182 -4.95155 224.997 -3.67921C223.671 -2.25265 222.487 -0.671873 220.993 0.587612C220.298 1.16595 219.551 1.66717 218.779 2.12984C219.332 1.10168 219.654 -0.144947 219.912 -1.16024C220.349 -2.8824 220.491 -4.66881 220.44 -6.44237C220.362 -9.0513 219.693 -13.0868 216.745 -13.845C217.401 -15.3359 216.693 -17.1608 215.264 -18.0476C213.294 -19.2685 210.681 -19.1143 208.492 -18.446C208.428 -18.7288 208.337 -19.0115 208.183 -19.1914C207.9 -19.5384 207.256 -19.6669 206.857 -19.7826C206.239 -19.9497 205.608 -20.014 204.977 -20.0011C205.621 -21.0807 206.123 -22.2502 206.406 -23.5225C207.076 -26.5813 205.994 -29.8199 203.162 -31.3622L203.149 -31.3493ZM217.659 2.74673C216.938 3.10658 216.191 3.45358 215.444 3.74917C213.397 4.54599 211.286 5.16288 209.2 5.84403C206.908 6.58944 204.668 7.46336 202.492 8.47866C193.609 12.6298 186.296 19.2742 178.842 25.5203C172.186 31.0851 165.581 36.7528 158.011 41.0839C153.84 43.4743 149.411 45.6077 144.789 46.9443C141.622 47.8568 138.39 48.5637 135.133 49.0906C135.854 48.2295 136.562 47.3428 137.27 46.4688C138.493 46.1604 139.703 45.7748 140.836 45.2607C146.553 42.6775 151.483 38.0123 155.526 33.3085C160.2 27.8593 164.371 21.9731 169.482 16.9095C174.838 11.6017 181.777 8.23448 186.786 2.55395C189.193 -0.17065 191.253 -3.16514 193.39 -6.09537C195.592 -9.11556 197.909 -11.9687 200.548 -14.629C201.81 -15.9013 203.072 -17.2122 204.115 -18.6645C205.196 -18.8187 206.2 -18.7159 207.192 -18.3047C207.269 -18.0476 207.346 -17.7906 207.423 -17.5335C207.539 -17.1351 207.874 -16.9166 208.286 -17.0709C210.011 -17.7135 212.097 -17.9834 213.861 -17.3408C215.316 -16.801 216.539 -15.1045 215.251 -13.7294C214.839 -13.2924 215.367 -12.7655 215.831 -12.7783C219.345 -12.9197 219.538 -7.7147 219.474 -5.24714C219.435 -3.80773 219.242 -2.36832 218.908 -0.967466C218.611 0.292015 217.981 1.50009 217.659 2.75958V2.74673ZM234.28 6.88503C236.159 5.92114 238.219 5.47132 240.305 5.25284C240.511 5.22714 240.717 5.21429 240.91 5.18858C242.442 5.40707 243.923 6.04966 244.978 7.16777C246.717 9.00559 246.343 11.7045 245.416 13.8765C243.704 17.9248 240.176 21.3305 236.43 23.5411C234.511 24.6592 232.452 25.3532 230.417 26.2014C228.319 27.0753 226.568 28.3477 225.023 30.0056C223.478 31.6635 222.126 33.4884 220.53 35.0949C218.985 36.6371 217.298 38.0637 215.521 39.3232C212.084 41.7522 208.273 43.2816 204.333 44.631C204.269 44.5667 204.205 44.5153 204.14 44.4511C203.831 44.2197 203.471 44.0655 203.11 43.9884C204.063 42.9603 204.977 41.9193 206.187 41.1481C206.548 40.9168 206.548 40.2485 206.175 40.03C205.685 39.7473 205.183 39.5417 204.694 39.4003C211.427 33.5527 217.234 26.8054 222.564 19.6855C224.907 16.5496 227.083 13.2082 229.812 10.3807C231.125 9.01844 232.606 7.77181 234.305 6.89788L234.28 6.88503ZM134.438 56.0178C134.438 56.2105 134.541 56.3905 134.759 56.4676C135.88 56.9045 137.154 57.0973 138.339 57.3929C139.484 57.6757 140.643 57.9584 141.789 58.2411C143.373 58.6267 144.956 59.0123 146.527 59.3978C145.819 59.5392 145.123 59.6805 144.415 59.8476C143.643 60.0147 142.858 60.2075 142.085 60.4003C141.956 60.4388 141.815 60.4645 141.686 60.4902C140.424 60.0533 139.175 59.6163 137.914 59.1665C136.51 58.6653 135.107 58.164 133.691 57.7014C132.944 57.4572 132.197 57.213 131.425 57.0074C132.429 56.6732 133.433 56.3391 134.438 56.0049V56.0178ZM148.896 51.1855C159.852 47.5098 170.795 43.8085 181.713 40.0429C187.21 38.1537 192.708 36.2387 198.192 34.3109C200.922 33.3599 203.638 32.3575 206.368 31.3679C207.707 30.8795 209.058 30.404 210.397 29.9156C211.363 29.5686 212.341 29.2345 213.281 28.8103C210.024 32.4731 206.561 35.9431 202.789 39.1175C199.415 39.169 196.235 41.7907 193.455 43.68C191.613 44.9266 189.669 46.0062 187.635 46.9058C185.562 47.8311 183.4 48.4094 181.275 49.1806C179.228 49.926 177.851 51.2754 176.422 52.8562C174.864 54.5912 173.1 55.9792 171.091 57.1616C167.087 59.5135 162.684 61.287 158.41 63.0734C156.208 63.9859 154.007 64.8984 151.78 65.7466C149.745 66.5177 147.608 67.1475 145.638 68.06C143.836 67.7515 141.905 67.8929 140.09 67.8543C137.939 67.8029 135.777 67.7258 133.626 67.5587C130.125 67.3017 126.623 66.8133 123.224 65.9651C123.623 65.888 123.996 65.7723 124.357 65.6438C124.447 65.6695 124.537 65.6824 124.653 65.6695C128.296 65.1812 131.901 64.4743 135.558 64.0887C139.214 63.7032 142.883 63.4718 146.54 63.2791C147.132 63.2534 147.235 62.2895 146.681 62.1224C145.587 61.8011 144.518 61.4413 143.437 61.0814C143.81 61.0171 144.196 60.9657 144.57 60.8886C146.089 60.6059 147.595 60.2974 149.115 60.0018C149.604 59.899 149.81 59.0765 149.243 58.9223C146.849 58.3311 144.467 57.7271 142.072 57.1359C140.875 56.8403 139.678 56.5447 138.48 56.2491C137.592 56.0306 136.691 55.735 135.777 55.5551C140.141 54.09 144.518 52.6377 148.883 51.1726L148.896 51.1855ZM177.683 61.2742C184.893 59.2693 192.296 58.1769 199.918 58.8066C200.355 59.1408 200.896 59.3335 201.385 59.5649C202.042 59.8733 202.698 60.1689 203.355 60.4645C204.771 61.0942 206.187 61.7111 207.617 62.2895C209.046 62.8678 210.526 63.3819 211.994 63.8574C212.972 64.1787 214.015 64.59 215.058 64.8084C213.165 65.6695 211.247 66.4792 209.277 67.1475C205.904 68.2913 202.402 69.0367 198.888 69.5251C192.888 70.3476 186.824 70.4119 180.786 70.3476C180.76 70.1291 180.619 69.9235 180.335 69.9106C171.735 69.2295 163.083 69.2938 154.483 70.0906C156.826 69.0624 159.17 68.0471 161.526 67.0575C165.851 65.2454 170.242 63.549 174.709 62.1609C175.726 62.0838 176.73 61.7626 177.683 61.2742ZM180.773 59.0765C180.773 59.0765 180.902 58.9608 180.966 58.8966C182.627 57.2644 183.889 55.3238 185.614 53.743C187.223 52.2779 189.026 50.9798 190.867 49.8232C192.708 48.6665 194.639 47.6255 196.647 46.7773C197.51 46.4174 198.373 46.0704 199.261 45.762C199.827 45.5692 200.407 45.4021 200.973 45.1836C201.141 45.4407 201.488 45.5563 201.784 45.3121C202.634 44.6053 203.703 45.5178 203.909 46.3789C204.166 47.4841 203.625 48.6793 203.136 49.6561C202.106 51.6995 200.561 53.4474 198.707 54.7968C197.896 55.3752 198.862 56.5832 199.66 55.9921C199.802 55.8892 199.943 55.7736 200.111 55.6579C204.179 54.1928 208.286 52.702 212.586 52.0594C216.114 51.5325 219.693 51.5839 223.195 52.175C218.084 53.6016 212.547 52.9205 207.385 54.4241C207.333 54.437 207.282 54.4498 207.23 54.4627C206.522 54.6812 206.896 55.7736 207.578 55.6708C211.492 55.0282 215.47 55.0282 219.371 55.6451C222.809 56.1848 226.04 57.2772 229.233 58.5624C225.77 59.7834 222.409 61.3256 219.049 62.9449C218.006 63.4461 216.963 63.9345 215.921 64.4229C214.839 63.7674 213.526 63.3819 212.367 62.9064C210.99 62.3409 209.612 61.7368 208.234 61.1714C206.857 60.593 205.479 60.0018 204.115 59.385C203.458 59.0894 202.801 58.7809 202.145 58.4725C201.604 58.2154 201.051 57.8684 200.458 57.7142C200.368 57.5985 200.227 57.5086 200.021 57.4829C196.21 57.1744 192.386 57.2515 188.575 57.6885C185.923 57.9969 183.322 58.4725 180.747 59.0765H180.773ZM249.742 17.8991C249.819 17.5007 249.922 17.1151 249.987 16.7167C250.321 14.7889 250.553 12.8483 250.669 10.8948C250.733 9.86667 250.798 8.7357 250.656 7.68185C251.042 7.61759 251.429 7.50192 251.789 7.42481C252.42 7.28344 253.064 7.15492 253.695 7.01355C254.544 6.83363 255.381 6.6537 256.231 6.48662C255.626 7.36055 255.033 8.23448 254.454 9.10841C254.119 9.60963 253.759 10.1494 253.63 10.7534C253.514 11.2804 253.682 11.7559 253.849 12.2443C254.3 13.5295 253.849 14.8146 252.871 15.7785C252.368 16.2798 251.763 16.6782 251.158 17.0509C250.695 17.3336 250.154 17.5649 249.729 17.9119L249.742 17.8991ZM249.909 29.5814C249.909 29.5814 250 29.4658 250.051 29.4015C250.54 28.7846 251.081 28.1806 251.519 27.5252C251.815 27.0753 251.944 26.497 251.544 26.0729C251.12 25.6231 250.296 25.5588 249.729 25.4174C249.073 25.2504 248.403 25.0704 247.734 24.9548C248.506 22.9242 249.111 20.8293 249.575 18.7088C249.768 19.2871 250.218 19.7498 250.592 20.251C251.03 20.8422 251.467 21.4334 251.892 22.0245C252.317 22.6286 252.729 23.2326 253.141 23.8367C253.489 24.3636 254.004 24.9676 254.21 25.5845C254.415 26.2271 253.424 26.8954 252.999 27.281C252.484 27.7436 251.957 28.1934 251.39 28.6047C250.914 28.9646 250.412 29.273 249.909 29.5943V29.5814ZM240.781 36.6114C243.562 33.4756 245.725 29.8642 247.309 25.9958C248.055 26.2785 248.841 26.4327 249.613 26.6384C249.729 26.6641 250.566 26.8569 250.553 26.844C250.553 26.844 250.051 27.448 249.948 27.5766C248.995 28.7975 248.03 30.0184 247.154 31.2908C246.794 31.8177 246.562 32.3832 246.858 32.9872C247.116 33.5013 247.631 33.9254 248.055 34.3109C248.596 34.7993 249.188 35.2363 249.806 35.609C248.506 35.7246 247.193 35.8275 245.893 35.956C244.966 36.0459 244.052 36.1231 243.125 36.2259C242.365 36.3158 241.528 36.3544 240.794 36.6114H240.781ZM215.11 50.4915C214.195 50.5557 213.294 50.6457 212.38 50.7742C208.955 51.2883 205.647 52.3036 202.389 53.4345C203.69 51.918 204.694 50.1573 205.157 48.2681C205.402 47.2785 205.376 46.1989 204.913 45.3379C209.612 44.3226 214.144 41.8293 217.929 38.9633C219.822 37.5239 221.547 35.866 223.117 34.0925C224.727 32.2675 226.285 30.3269 228.28 28.9003C230.379 27.3966 232.967 26.8183 235.284 25.713C237.357 24.7106 239.301 23.4254 241.026 21.896C244.386 18.9144 247.875 14.4933 247.553 9.78956C247.412 7.65615 246.099 5.9854 244.36 4.95725C245.017 4.95725 245.674 4.9701 246.317 5.06007C247.283 5.18858 248.274 5.54844 248.815 6.40951C249.24 7.10351 249.356 7.95174 249.382 8.74855C249.51 12.5142 248.776 16.4211 247.914 20.0839C246.189 27.3709 242.378 34.5423 236.507 39.3874C233.391 41.9578 229.812 43.8342 226.143 45.4921C222.474 47.15 218.65 48.538 215.135 50.5043L215.11 50.4915ZM237.099 56.5318C234.769 56.8917 232.529 57.47 230.327 58.1897C226.787 56.0435 222.667 54.7583 218.444 54.2185C220.903 53.9872 223.336 53.6145 225.654 52.6634C226.336 52.7277 227.044 52.6377 227.739 52.6249C228.615 52.612 229.49 52.6249 230.366 52.6891C232.065 52.7919 233.752 53.0233 235.413 53.3703C237.164 53.743 238.889 54.2185 240.575 54.8225C241.399 55.1181 242.198 55.4523 242.996 55.8121C243.163 55.8892 243.318 55.9663 243.485 56.0563C241.348 56.0563 239.198 56.2105 237.099 56.5447V56.5318ZM242.558 72.9694C239.211 72.0441 235.876 71.1958 232.387 71.0159C229.156 70.8617 225.911 71.1444 222.706 71.6585C216.049 72.7252 209.586 74.7044 202.93 75.7325C191.369 77.519 179.73 75.3213 168.259 73.8176C169.804 73.4835 171.349 73.0851 172.881 72.7252C174.477 72.3525 176.087 71.9798 177.683 71.6071C179.267 71.6328 180.863 71.6585 182.447 71.6585C189.219 71.6971 196.042 71.53 202.711 70.2191C206.033 69.5636 209.303 68.6255 212.444 67.366C215.599 66.0936 218.65 64.5643 221.714 63.0991C227.34 60.4131 233.044 58.2154 239.288 57.56C244.94 56.9688 250.836 57.56 255.973 60.0147C258.484 61.2228 261.046 62.9578 262.771 65.1554C264.921 67.88 262.681 71.0802 260.209 72.7124C254.892 76.2466 248.158 74.5245 242.545 72.9565L242.558 72.9694ZM258.355 81.4131C257.003 79.4082 255.201 77.429 253.089 76.0667C255.381 75.9767 257.737 75.4883 259.784 74.4731C259.952 74.7943 260.248 74.9743 260.492 75.2442C260.75 75.5269 260.969 75.8354 261.123 76.1824C261.445 76.8764 261.561 77.6346 261.432 78.3929C261.149 79.948 259.797 80.9633 258.355 81.4259V81.4131ZM166.637 74.1389C166.637 74.1389 166.701 74.1389 166.74 74.1261C167.718 74.3317 168.684 74.5502 169.662 74.7558C176.164 76.1052 182.769 77.0691 189.412 77.4675C192.605 77.6603 195.811 77.7117 199.003 77.4675C202.312 77.2234 205.595 76.6065 208.84 75.9125C215.599 74.4602 222.358 72.4939 229.297 72.2754C232.941 72.1597 236.494 72.6738 239.996 73.5991C243.292 74.4731 246.562 75.5526 249.974 75.9382C253.501 77.2234 256.463 80.3721 258.188 83.6236C258.999 85.153 259.681 86.9137 259.578 88.6872C259.449 90.9363 258.291 93.134 256.952 94.9075C255.703 96.5654 254.184 97.992 252.587 99.3029C250.875 100.704 249.073 102.027 247.103 103.017C242.893 105.15 238.309 105.022 233.932 103.531C229.503 102.027 225.667 99.3671 221.727 96.9381C217.762 94.4834 213.693 92.4914 209.136 91.3347C200.832 89.2142 191.858 89.3041 184.056 85.5128C177.76 82.4541 172.276 78.2001 166.637 74.1518V74.1389ZM108.431 68.0857C110.954 67.5716 113.388 66.672 115.705 65.5282C122.825 61.9939 128.696 56.5447 133.871 50.5686C138.068 49.9774 142.24 49.0649 146.295 47.8311C151.187 46.3274 155.887 43.9113 160.264 41.2638C167.345 36.9713 173.628 31.5863 179.962 26.2914C187.236 20.2124 194.369 13.7351 203.033 9.6996C207.076 7.82322 211.35 6.7051 215.483 5.11147C217.427 4.36606 219.332 3.46643 221.006 2.23265C222.5 1.14024 223.697 -0.260612 224.894 -1.64861C226.066 -3.02377 227.302 -4.52744 228.95 -5.36281C229.619 -5.69696 231.177 -6.3524 231.846 -5.76122C232.452 -5.23429 232.117 -3.96195 232.014 -3.29366C231.615 -0.761837 231.061 1.78284 230.276 4.22469C229.619 6.28099 228.769 8.24733 227.997 10.2522C225.332 13.221 223.117 16.5882 220.71 19.7755C218.637 22.5129 216.5 25.1861 214.26 27.7565C212.689 28.0007 211.196 28.6047 209.689 29.1188C208.144 29.6586 206.587 30.1855 205.042 30.7253C201.952 31.792 198.862 32.833 195.785 33.9125C184.854 37.7167 173.911 41.4694 162.955 45.1836C151.767 48.9621 140.579 52.7277 129.391 56.4676C128.644 56.7118 129.133 57.8299 129.88 57.5728C129.919 57.5728 129.957 57.5471 129.996 57.5343C131.167 58.0227 132.403 58.3825 133.601 58.8195C134.953 59.3078 136.317 59.7962 137.669 60.2974C139.523 60.9786 141.39 61.6469 143.27 62.2895C140.643 62.4308 138.017 62.6108 135.403 62.8807C131.785 63.2534 128.052 63.6389 124.498 64.4872C124.383 64.5129 124.305 64.5643 124.228 64.6285C122.979 64.6285 121.615 65.0526 120.43 65.284C119.902 65.3868 119.735 66.2093 120.301 66.3892C124.498 67.6744 128.837 68.3427 133.227 68.664C135.48 68.8311 137.746 68.8953 140.012 68.921C141.57 68.9339 143.244 69.0753 144.827 68.921C144.879 68.9596 144.943 68.9982 145.033 68.9853C147.595 68.6126 150.119 67.5459 152.565 66.6848C155.05 65.798 157.535 64.8727 159.981 63.8703C164.101 62.161 168.336 60.4388 172.16 58.1383C173.924 57.0845 175.623 55.8507 177.052 54.3727C177.851 53.5502 178.559 52.6377 179.447 51.8923C180.219 51.2497 181.108 50.8385 182.048 50.5172C184.056 49.8232 186.077 49.2705 188.021 48.4223C190.004 47.5612 191.897 46.5331 193.712 45.3636C196.248 43.7185 199.557 40.557 202.879 40.557C203.02 40.6212 203.175 40.6341 203.342 40.5827C203.69 40.6212 204.05 40.6855 204.398 40.8011C203.072 41.855 201.913 43.1787 200.999 44.5796C200.96 44.631 200.948 44.6824 200.935 44.7338C199.3 44.6824 197.42 45.5178 195.991 46.109C191.948 47.8054 188.215 50.2087 184.919 53.0875C184.133 53.7687 183.361 54.4627 182.666 55.2466C181.816 56.1977 181.082 57.2387 180.155 58.1255C179.28 58.9608 178.34 59.552 177.336 60.0532C168.105 62.6493 159.26 66.7491 150.505 70.6046C149.861 70.8874 150.17 71.8256 150.84 71.7485C159.414 70.6946 168.066 70.399 176.679 70.836C175.327 71.1573 173.962 71.4786 172.611 71.7999C170.319 72.3396 167.989 72.8152 165.748 73.5349C165.645 73.4578 165.543 73.3807 165.44 73.3035C164.963 72.9565 164.461 73.6505 164.899 74.0361C164.95 74.0747 164.989 74.1132 165.04 74.1518C165.04 74.1775 165.066 74.1903 165.079 74.216C165.375 75.7711 166.482 77.2619 167.268 78.5728C168.195 80.1022 169.16 81.6059 170.177 83.0838C171.903 85.5899 173.795 87.9932 175.791 90.3066C173.254 89.6126 170.705 88.9186 168.169 88.2117C162.594 86.6823 156.955 85.2429 151.432 83.5593C149.037 82.8268 146.501 81.8886 144.75 80.0379C143.965 79.2154 143.334 78.2387 142.961 77.172C142.561 76.041 142.6 74.91 142.69 73.7148C142.742 73.0979 141.892 72.8923 141.647 73.4578C141.57 73.6377 141.531 73.8176 141.48 73.9975C140.244 73.7148 138.918 73.6248 137.669 73.4706C136.189 73.3035 134.708 73.0979 133.24 72.9051C130.292 72.5196 127.344 72.0569 124.408 71.5428C119.065 70.6046 113.761 69.4737 108.495 68.1756L108.431 68.0857ZM137.154 44.5796C135.892 46.2118 134.618 47.8183 133.279 49.3862C133.047 49.4633 132.918 49.6304 132.893 49.836C129.507 53.7815 125.876 57.5343 121.718 60.683C117.314 64.0116 112.448 66.3892 107.118 67.7772C106.976 67.7387 106.822 67.7001 106.68 67.6744C106.538 67.6359 106.41 67.6744 106.294 67.713C100.861 67.3403 95.3891 67.1475 89.9431 66.9419C84.3813 66.7362 78.7938 66.582 73.3092 65.631C68.4684 64.7956 63.7177 63.459 58.9927 62.1738C54.2678 60.8886 49.5685 59.5392 44.8822 58.1255C35.4194 55.2723 26.0339 52.1622 16.7384 48.8079C7.62326 45.5178 -1.37606 41.945 -10.4269 38.5135C-14.9458 36.7914 -19.4777 35.1078 -24.0481 33.527C-28.6444 31.9333 -33.2921 30.2369 -38.0557 29.183C-38.3646 29.1188 -38.5835 29.3244 -38.6479 29.5814C-42.2528 28.3091 -45.9478 27.2167 -49.6041 26.1114C-65.8003 21.2277 -82.048 16.4982 -98.3343 11.8844C-98.2184 11.049 -98.0768 10.2008 -97.8837 9.3783C-97.7678 8.88993 -97.652 8.40155 -97.4975 7.92603C-97.343 7.43766 -97.2271 7.29629 -96.6864 7.38625C-95.6693 7.54048 -94.6522 7.91318 -93.648 8.17022C-92.6566 8.42726 -91.6524 8.6843 -90.6611 8.94133C-83.6444 10.7663 -76.6149 12.5784 -69.5983 14.4034C-66.0835 15.3159 -62.5817 16.2283 -59.0669 17.128C-57.3417 17.5778 -55.6037 18.0148 -53.8785 18.4646C-53.0931 18.6702 -52.3078 18.8758 -51.5224 19.0815C-49.4754 19.9939 -47.3382 20.7651 -45.2525 21.5747C-42.5875 22.6286 -39.9096 23.6567 -37.2317 24.6463C-31.966 26.5998 -26.6617 28.4633 -21.2801 30.1084C-11.7658 33.0129 -2.07128 35.2106 7.0954 39.1432C11.6144 41.0839 16.0303 43.2687 20.5622 45.1836C23.5491 46.4431 26.742 47.3813 29.8447 48.3195C34.6341 49.7718 39.3976 51.1726 44.2771 52.3293C47.2254 53.0233 50.1865 53.6016 53.1605 54.2185C55.7354 54.7454 58.3104 55.2852 60.8981 55.7607C60.9496 55.8378 61.0269 55.9149 61.1428 55.9407C63.3829 56.6218 65.7261 56.9945 68.0178 57.4186C70.8502 57.9327 73.6826 58.4211 76.5279 58.8709C81.4459 59.6548 86.3898 60.3874 91.3465 60.94C92.9172 61.12 94.5007 61.2999 96.0843 61.3384C97.2044 61.3641 98.3245 61.5312 99.4574 61.5055C101.118 61.467 102.573 61.0171 103.899 60.0147C104.633 59.4621 105.302 58.8452 106.114 58.4082C106.912 57.9712 107.762 57.6628 108.598 57.3544C110.053 56.8146 111.482 56.1977 112.873 55.5037C115.718 54.1028 118.422 52.4706 121.164 50.877C126.121 47.9982 131.386 45.1322 137.167 44.6181L137.154 44.5796ZM201.359 -30.7967C202.853 -30.5268 204.128 -29.4215 204.823 -28.1235C206.265 -25.3989 205.157 -22.2759 203.51 -19.7826C203.304 -19.6798 203.201 -19.4999 203.175 -19.3071C202.892 -18.9087 202.583 -18.5231 202.286 -18.1633C199.969 -15.4258 197.278 -13.0611 195.038 -10.2337C190.635 -4.66881 187.017 1.56435 181.404 6.06251C178.533 8.37585 175.353 10.2651 172.482 12.5784C169.675 14.8403 167.165 17.4493 164.796 20.1482C160.457 25.109 156.62 30.5196 152.101 35.3391C148.252 39.4388 143.501 43.3844 138.12 45.3379C138.416 44.9523 138.712 44.5796 139.008 44.194C139.266 43.847 139.072 43.1916 138.583 43.2044C138.223 43.2044 137.875 43.2301 137.515 43.2559C138.197 42.6904 138.841 42.0863 139.446 41.4309C141.583 39.0918 143.141 36.3158 144.686 33.5784C146.411 30.5068 148.239 27.5252 150.376 24.7106C152.668 21.7033 155.14 18.8373 157.496 15.8685C159.865 12.8869 162.053 9.76385 164.088 6.55088C168.13 0.150646 171.606 -6.55803 175.379 -13.1125C177.245 -16.364 179.177 -19.5898 181.288 -22.7C182.267 -24.1394 183.245 -25.5146 185.022 -25.9644C186.515 -26.3371 188.021 -26.4784 189.18 -27.6223C190.081 -28.5219 191.433 -31.3493 193.068 -30.424C193.776 -30.0256 194.214 -29.4858 195.077 -29.383C195.708 -29.3059 196.351 -29.4601 196.944 -29.6657C198.411 -30.1669 199.763 -31.1437 201.385 -30.8481L201.359 -30.7967Z" fill="#F9E0FF"/>
</svg>
